<svg width="118" height="189" viewBox="0 0 118 189" fill="none" xmlns="http://www.w3.org/2000/svg">
<path id="@S-Audit-Icon" d="M76.5377 0.269344C77.6923 -0.126399 79.0157 -0.1167 80.0884 0.504552C82.4118 1.72307 82.577 4.43582 82.9011 6.73366C83.0816 8.01252 83.8008 10.2154 83.6773 11.4172C83.4084 14.0311 83.2517 15.3884 83.8194 18.0452C84.3425 20.4933 83.9874 23.0283 83.1588 25.4122C84.0205 27.8085 85.2851 27.7809 87.5317 28.6257C90.0276 27.4606 93.6561 28.0198 96.1717 28.9305C97.6514 29.4663 99.1119 30.2125 100.614 30.6524C102.054 31.0735 103.57 31.1507 104.987 31.6726C108.211 32.8607 115.999 37.0983 117.444 40.2097C117.794 40.9628 117.932 41.8043 117.653 42.601C117.334 43.5138 116.455 44.1537 115.605 44.5346C113.559 45.4522 111.396 45.4871 109.223 45.7871C108.027 45.952 106.834 46.2194 105.629 46.3026C104.073 46.41 102.499 46.3735 100.949 46.5603C98.7809 46.8219 96.5384 47.4828 94.3606 47.5022C92.7584 47.5164 91.2496 47.0104 89.6682 46.8759C89.8988 48.6134 90.4442 49.8654 90.8658 51.5399C91.129 52.5859 91.8821 58.1306 92.4143 58.6461L92.7867 58.5599C93.0235 58.7786 93.2937 59.5715 93.4492 59.9143C94.24 61.6298 94.7534 63.407 95.1241 65.2535C95.3393 66.3217 95.3207 67.7111 95.5915 68.7229C96.2588 71.2132 96.7729 73.2251 96.6 75.8272C96.565 76.348 97.3824 78.1553 97.3752 78.7957C97.5214 79.8625 97.4864 81.134 97.6398 82.1886C97.7552 82.9811 98.1138 84.074 98.3043 84.8886C98.5267 85.8406 98.7233 86.7771 98.9364 87.7336C99.1403 88.6447 100.011 90.1399 100.153 90.9883C100.496 93.0553 100.731 95.2884 100.994 97.3732C101.137 98.4938 101.126 99.5297 101.34 100.676C101.92 103.694 103.159 106.518 103.802 109.52C104.288 111.785 104.196 114.163 104.575 116.411C104.973 118.769 105.351 121.077 105.647 123.456C105.82 124.839 106.344 126.317 106.477 127.723C106.841 131.677 107.229 135.634 107.537 139.592C107.63 140.781 107.942 142.122 108.086 143.319C108.254 144.712 108.378 146.097 108.518 147.491C108.699 149.309 108.936 151.121 109.229 152.925C109.501 154.547 110.303 157.77 110.067 159.31C109.597 162.221 109.105 165.327 107.644 167.926C107.061 168.962 105.847 170.192 105.39 171.044C103.738 174.129 102.22 175.292 99.0511 176.725C98.424 177.008 97.2098 178.332 96.5353 178.713C95.6344 179.311 94.4771 179.614 93.505 180.105C92.741 180.496 91.9983 181.218 91.2382 181.584C89.4894 182.424 87.4551 182.817 85.6726 183.538C83.7123 184.33 81.905 185.125 79.8473 185.665C78.9724 185.895 78.0104 186.408 77.1179 186.644C75.7932 187.058 74.4212 187.396 73.1164 187.871C72.0206 188.292 70.888 188.354 69.7372 188.502C68.0641 188.715 66.4072 189.041 64.7116 188.996C61.2094 188.903 57.6694 188.689 54.2105 188.116C53.4202 187.985 52.5463 187.993 51.7663 187.818C50.6321 187.562 49.5288 187.086 48.3881 186.84C44.3222 186.147 40.5172 184.877 36.6992 183.346C35.4338 182.838 34.1879 181.885 32.9232 181.339C30.2833 180.171 27.2094 178.404 25.0182 176.526C24.0655 175.466 23.278 174.342 22.2976 173.298C21.2966 172.231 19.7277 171.489 18.8646 170.378C17.837 168.953 17.4545 167.283 16.6654 165.713C15.9281 164.245 14.5798 162.895 14.5975 161.146C14.6076 160.149 14.6793 159.027 14.5573 158.07C14.3558 156.486 14.1126 155.019 14.2006 153.42C14.3493 150.714 14.5646 148.023 14.7023 145.318C14.7651 144.215 15.0414 142.761 15.1522 141.609L16.0656 131.701C16.3016 129.152 16.3975 126.643 16.5399 124.095C16.7352 120.599 17.3683 117.091 17.5797 113.589C17.655 112.461 17.6092 111.311 17.6238 110.18L17.5043 110.105C16.0532 109.201 13.9438 108.804 12.3836 107.866C11.2372 107.209 10.5132 106.207 9.6091 105.227C9.04967 104.621 7.52073 104.037 7.11687 103.494C6.07999 102.095 4.90886 99.9705 4.05327 98.4258C3.6279 97.6585 3.46418 96.7542 3.18986 95.9463C2.88466 94.6197 2.96399 93.2438 2.45778 91.9556C2.18494 91.1253 1.93668 90.267 1.60515 89.4585C1.09255 88.2505 0.507256 87.2443 0.258577 85.9392C-0.257437 83.2304 0.129584 80.6433 0.300718 77.9479C0.444159 75.6892 0.676198 73.8364 1.30525 71.6502C1.53611 70.848 1.64173 69.8826 2.09418 69.1443C2.43619 68.6114 3.20109 67.9925 3.58384 67.4057C4.02372 66.7313 4.49284 65.2699 4.89905 64.6685C5.78803 63.3528 7.36865 61.5625 8.44188 60.3769C10.1324 58.7008 12.4483 57.8376 14.3015 56.3538C15.4281 55.4518 16.1156 54.2055 17.3455 53.4314C18.5444 52.6769 19.9831 52.4735 21.2304 51.8819C23.2324 50.9326 25.1075 49.5841 27.2987 49.0634C28.7199 48.6975 30.1722 49.8742 30.6534 49.4593C30.6697 49.1651 30.6767 48.8701 30.675 48.5753C30.888 48.3887 32.3735 48.4611 32.734 48.493C35.436 48.7288 38.1021 49.3918 40.7478 49.9601C41.9179 50.1804 43.1859 50.5957 44.369 50.6618C47.7723 50.8519 51.1526 50.0623 54.4653 49.4221C57.3024 48.8738 59.9755 48.6513 62.6986 47.5855C63.4763 47.3383 65.8252 46.8401 65.7259 45.6979C65.6414 44.7261 65.1572 44.1379 64.101 44.3582C59.0749 45.4064 53.9215 45.427 48.8125 45.744C48.0056 45.794 47.1128 45.7068 46.2967 45.7136C44.3961 45.6175 42.4375 45.829 40.5478 45.7812C38.751 45.7358 36.9353 45.5017 35.1253 45.4588C32.5952 45.3987 30.0798 45.5699 27.5584 45.6136C26.1895 45.6374 24.4987 44.9017 23.1473 44.6512C22.0347 44.3972 20.6328 44.1517 19.5555 43.7467C17.2387 42.8758 15.0342 40.9751 12.9736 39.5874C12.4176 39.1697 11.6573 38.438 11.5956 37.7126C11.4788 36.3373 13.0136 34.6146 13.7723 33.6004C15.7858 30.9086 19.1863 31.2521 22.1408 31.018C22.8273 30.9635 23.7584 30.5706 24.4635 30.4731C27.1428 30.0911 29.5212 29.2396 32.0127 28.2219C32.8137 27.8947 33.7279 27.654 34.5108 27.2625C35.5129 26.745 36.2502 26.2201 36.468 25.0691C36.6587 24.0764 36.8544 22.8027 37.0109 21.8311C37.1126 21.1997 37.7965 19.0862 37.7655 18.7577C37.4765 15.6916 38.1604 15.165 39.951 12.8569C40.2885 12.4217 40.5989 10.5079 40.886 9.92367C42.4373 6.45075 45.0569 2.34213 49.1663 1.78154C50.869 1.54926 52.2144 2.25344 53.0129 3.75337C52.8415 4.03234 52.3335 3.9453 52.271 4.17185C51.4325 7.21233 52.7104 10.5266 54.2683 13.1323C55.4614 15.1277 57.6979 19.8482 60.4543 19.5947C60.6088 18.8503 60.5208 18.554 60.3945 17.811C58.8914 15.2354 57.5575 12.5652 56.4019 9.81685C57.9195 10.6825 59.0029 11.6717 60.7513 11.2046C63.3843 10.5011 64.6609 7.75164 67.0901 6.80618C67.7326 6.55608 68.8977 6.42209 69.6079 6.31126C69.8276 6.11326 70.0361 5.8581 70.1694 5.5978C70.5322 4.88972 70.8216 4.16828 71.1985 3.46622C72.2162 1.57046 74.6373 0.92074 76.5377 0.269344ZM46.8632 175.475C47.2509 175.817 48.4508 176.834 49.0173 176.981L49.1212 176.998L49.6151 177.139C50.0722 177.261 50.4506 177.313 51.0107 177.194L51.0117 177.08C50.5425 176.824 50.3434 176.836 49.8121 176.791C49.0514 176.552 48.8123 176.784 48.0559 176.103C47.8181 175.889 47.1674 175.596 46.8632 175.475ZM53.1589 169.342C53.3524 170.021 53.9926 171.755 54.4898 172.225L54.6123 172.182C54.3943 171.73 53.4049 169.547 53.1589 169.342ZM50.1316 153.853C49.7982 154 49.366 154.206 49.2809 154.59C48.6809 157.303 52.0333 160.071 54.1801 160.727C57.9102 161.865 65.5679 160.838 68.2476 158.084C68.8993 157.459 70.3614 156.021 69.4795 155.066C68.7145 154.742 67.6219 155.594 66.9128 155.942C63.4856 157.627 60.044 157.738 56.3284 157.598C53.4173 157.49 51.9989 154.015 50.1316 153.853ZM52.9571 149.694C53.0273 150.253 53.0317 150.764 53.5176 151.121C53.4243 150.697 53.3151 149.949 52.9571 149.694ZM65.9798 140.387C65.307 141.039 64.6413 141.757 63.9423 142.373C63.1758 143.048 62.214 143.562 61.402 144.186C59.8346 145.435 58.4269 146.533 56.6831 147.558C56.876 148.217 56.9341 148.498 57.0173 149.18L57.9258 149.618C59.2335 150.051 60.1523 149.948 61.3863 149.28C63.9716 147.879 64.5539 147.911 65.5819 145C65.7342 144.569 66.3962 143.373 66.5286 142.997C66.7076 142.486 65.9967 141.207 66.0513 140.478L65.9798 140.387ZM68.2878 128.316C63.2923 128.635 55.9547 133.533 52.6307 137.268C51.6703 138.347 50.7357 140.296 51.9123 141.537C52.8559 142.53 54.7584 140.698 55.6698 140.163C58.7726 138.342 62.0258 136.612 65.0811 134.725C66.9009 133.871 68.7979 133.058 70.583 132.215C71.0395 133.455 71.571 134.696 71.6738 136.018C71.8819 138.699 71.3383 141.334 71.1612 143.99C71.1361 144.368 71.2205 144.603 71.4601 144.879C72.8241 145.506 73.6291 143.91 74.0572 142.811C74.8645 140.737 75.4966 138.069 75.5322 135.839C75.5021 135.056 74.5931 131.467 74.3081 130.687C72.4414 129.057 70.7864 128.252 68.2878 128.316ZM69.5402 125.501C68.2474 122.474 64.4604 121.908 61.4736 122.141C55.7071 123.027 51.411 126.889 47.8324 131.228C46.9761 132.266 44.4845 136.21 47.4159 136.135C47.4359 136.113 51.5134 133.154 51.8496 132.879C53.779 131.403 55.8726 130.229 57.8886 128.889C59.8837 127.563 61.9265 126.689 64.1941 125.951C65.1233 125.648 66.0487 125.221 67.0578 125.301C68.1609 125.363 68.497 126.866 69.5373 126.135C69.6379 125.897 69.6468 125.751 69.5402 125.501ZM7.40598 93.0523C7.73254 94.2875 8.74097 96.9155 9.50227 98.0553C10.5297 99.5938 12.3152 101.578 13.3793 103.214C13.3625 103.279 13.3451 103.345 13.3283 103.409L13.1372 103.599C15.4854 104.518 17.6866 105.651 20.12 106.32C20.4104 106.399 20.8286 106.589 21.1079 106.706L21.198 106.627C22.4912 105.491 22.3514 107.119 22.8758 107.266C24.1052 107.611 25.7132 107.236 26.9939 107.252C28.0953 107.272 29.0116 108.189 30.1359 108.489C30.9548 108.707 33.6757 108.44 34.1678 108.743C36.4179 110.127 38.7791 115.535 39.9314 117.781C40.9934 119.851 41.6761 122.288 42.8725 123.954C42.5065 124.848 38.9325 128.027 41.2084 128.722C43.1366 129.31 45.7767 127.086 47.3326 126.218C49.9817 124.741 52.0606 122.785 54.4438 120.995C56.228 119.655 58.4864 118.111 60.4288 117.006V117.005C62.2474 116.533 64.3977 117.684 65.4545 119.116C65.6581 119.393 65.956 119.956 66.1523 120.05C66.9851 119.3 65.3312 117.427 64.791 116.899C63.9623 116.09 63.1135 115.6 62.0322 115.223H62.0332C59.2388 114.36 56.4944 115.198 53.9792 116.449C54.0085 115.177 54.1563 114.518 54.7633 113.384C54.1175 112.69 53.157 111.903 53.0433 111.051C52.2725 110.805 48.7775 113.385 47.0631 110.044C46.9845 109.888 46.9113 109.73 46.8436 109.569C47.0959 108.208 47.1657 107.986 48.3666 107.148C49.1465 106.604 50.0304 106.197 50.8363 105.714C52.2362 104.874 52.9429 104.07 54.5428 103.612C54.6664 102.867 55.975 101.007 56.443 100.267C57.5926 98.4504 58.4829 96.5895 59.5145 94.7124C58.5364 95.1917 57.6114 95.451 56.6175 95.8669C55.1368 96.4866 53.8942 97.3006 52.3044 97.6672C51.1267 97.9394 49.9319 97.8579 48.8007 98.0602C47.9588 98.2113 46.8045 99.0005 45.9106 99.1834C44.4595 99.4791 42.9762 99.4234 41.4926 99.5754C39.2157 99.8085 36.6154 100.372 34.3501 100.408C32.5378 100.438 30.2718 99.9758 28.367 99.8576C26.4509 99.7385 23.9865 99.5612 22.1526 99.055C21.4171 98.8527 20.698 98.424 19.8387 98.2709C18.6026 98.0522 17.0057 98.0777 15.8519 97.6927C12.8073 96.677 10.165 94.6146 7.40598 93.0523ZM17.9943 76.9042C17.5413 75.9457 16.3868 76.9275 16.0127 77.1835L15.9411 76.8699L15.8019 76.8013C14.9281 77.0284 12.8477 78.4335 11.9357 78.9574C11.0624 79.459 10.5313 79.7417 9.57774 80.1775C9.25672 80.0282 9.00343 79.9704 8.80645 79.9835C8.21482 80.0221 8.12502 80.7027 8.19589 81.4849C7.45705 82.7033 7.26285 83.0036 6.04177 83.7233C6.16313 84.6633 6.22326 85.5437 6.28874 86.489C8.24586 87.6068 10.1708 89.0472 12.1954 90.0406C13.803 90.7543 15.5731 91.0958 17.0897 92.0232C19.1527 93.2849 21.7834 93.2375 24.1264 93.7491C20.8028 90.929 18.7499 84.8528 18.4245 80.6499C18.2243 79.5775 18.4509 77.8717 17.9943 76.9042ZM49.9297 72.0374C49.8878 73.3714 50.6411 75.2643 50.8745 76.667C51.3522 79.5405 50.9781 83.7543 50.1953 86.5076C49.84 87.7563 47.786 90.7121 46.8152 91.6077C45.7035 92.6332 44.9176 93.0429 43.5644 93.6246C45.6126 93.3393 47.6724 93.1431 49.7376 93.0356C50.0443 92.4206 50.2619 91.9664 50.5138 91.3274C51.4456 91.3657 51.5958 91.3621 52.4582 90.9863C53.2715 90.5509 54.478 89.8676 55.3062 89.5349C57.262 88.749 61.7454 87.2279 62.3791 85.063C62.4275 84.9031 62.4709 84.7408 62.5085 84.5779C60.8035 81.9779 58.1633 81.1363 58.0101 77.8931C57.2611 77.7392 56.7998 77.6596 56.0922 77.3678C55.1431 76.9762 54.347 76.1021 53.5451 75.6468C51.8509 74.6852 51.7467 73.6736 50.749 72.2098C50.6227 72.0245 50.1726 71.9623 49.9346 71.9256L49.9297 72.0374ZM70.6702 74.655C69.8643 74.9851 69.2758 75.2141 68.4142 75.4165C68.6709 77.4632 68.6895 78.9036 68.7121 80.9537C69.3327 81.1048 69.8196 81.2333 70.4605 81.2987C71.0762 81.3541 71.5824 81.3993 72.1991 81.4016C71.4255 80.1918 70.696 79.0266 70.7663 77.5608C70.789 77.0883 71.0199 74.7987 70.6702 74.655ZM81.0312 74.4727C81.3898 77.1631 80.6355 78.6335 79.2593 80.8655C80.0034 80.407 81.0524 79.7964 81.7309 79.2926C82.8139 78.4561 84.0377 77.5525 85.0797 76.6827C84.64 76.0325 84.3169 75.4315 83.9399 74.7462C82.9531 74.6766 82.0103 74.6219 81.0312 74.4727ZM41.1417 55.1102C38.9616 54.3233 37.2919 53.1889 34.8607 53.4294C33.4137 53.6384 31.6855 53.9572 30.2673 54.3203C30.0873 53.9002 30.4553 53.9026 30.1849 53.7715C29.2349 54.0567 28.4445 54.4647 27.5104 54.7887C26.5261 55.1301 25.0688 55.3135 24.1636 55.7031C23.1391 56.1439 21.941 57.1023 20.9677 57.7279C20.0907 58.2915 19.1388 58.7376 18.2863 59.291C17.5831 59.7475 16.5604 60.5798 15.9176 61.1374C14.4388 62.4201 10.0157 66.422 8.30761 67.0911C7.74832 69.0392 8.30666 69.5083 7.97342 71.3209C7.74063 72.5862 6.85494 73.9875 6.40144 75.1891C6.00718 76.2339 5.93635 77.3881 5.84184 78.4977C7.20207 77.4355 8.03798 76.4395 9.29059 75.3303C10.5356 74.2279 12.3166 73.3472 13.7262 72.4735C14.805 71.8048 15.7988 71.1146 16.9231 70.5065C18.0572 69.8933 19.7201 69.7045 20.7168 69.1374C23.4922 67.5577 23.4827 66.7148 26.8009 66.3453L26.7274 66.3541C27.8591 65.4363 29.1016 64.7754 30.4515 64.2323C31.3484 63.8896 32.5479 63.4598 33.5171 63.5189C35.4061 63.6344 37.5936 63.7865 39.4453 64.1098C41.4085 64.4527 43.3465 65.0681 45.2991 65.4692C47.0159 65.8342 47.1109 65.4716 48.9056 66.3443C51.3257 67.5211 53.1757 68.2976 55.17 70.1606C55.905 70.8472 57.4173 72.4083 58.1218 72.9292C59.7673 74.1455 60.45 74.1448 62.0175 75.7193C60.7533 71.5576 59.173 67.5173 56.9507 63.7855C55.8791 61.9862 53.7416 59.9421 51.7751 59.1009C49.5617 58.1543 46.9855 57.3208 44.7571 56.2578C43.7324 55.769 42.23 55.532 41.1417 55.1102ZM28.3591 72.4705C28.155 72.7419 27.894 73.0157 27.8525 73.3339L27.9348 73.4359C28.1444 73.1816 28.4149 72.9194 28.4748 72.6136L28.3591 72.4705ZM53.1952 52.9335C52.9824 53.1969 52.7469 53.5091 52.5072 53.7421L52.5984 53.8489C53.4225 54.7964 54.872 55.6516 55.856 56.5567C58.6989 59.1717 61.2803 62.3611 63.1524 65.7387C63.8216 66.9315 65.1529 70.0037 65.9415 70.7868L66.1434 70.7937C66.6175 69.3456 65.2421 65.1467 64.5019 63.7159C62.3406 59.5388 58.0585 54.0565 53.1952 52.9335ZM69.3462 48.5243C69.6991 48.6465 70.4306 48.884 70.7349 49.0712C71.6497 49.6341 71.4161 49.7404 72.4754 49.4603C73.123 49.5026 73.4235 49.5179 74.0641 49.4593L74.0925 49.3878C73.6057 49.2623 73.3308 49.2395 72.8332 49.1908C72.5043 49.1646 71.8424 49.1168 71.5366 49.033C70.8791 48.8524 70.1052 48.4425 69.4187 48.4136L69.3462 48.5243ZM69.3893 48.4126C69.399 48.4129 69.409 48.4132 69.4187 48.4136L69.4266 48.4038L69.3893 48.4126ZM86.9819 32.0931C86.4931 31.7351 85.6016 31.7854 85.0199 31.8569C82.6304 32.2589 80.4648 33.1097 78.0244 33.0956C77.6949 33.0937 76.558 33.1188 76.3289 33.4573C75.4285 35.8933 77.9897 35.2252 78.7467 35.1449C80.5334 34.9875 85.8357 34.5565 87.2142 33.7915C87.5534 33.3217 87.4471 32.4344 86.9819 32.0931ZM60.3955 17.812C60.5217 18.5547 60.6098 18.8512 60.4553 19.5956C61.6206 19.2597 61.1695 18.3275 60.3955 17.812Z" fill="#380102"/>
</svg>
