<svg width="169" height="179" viewBox="0 0 169 179" fill="none" xmlns="http://www.w3.org/2000/svg">
<g id="@S-Design-Icon">
<path id="Subtract" d="M138.674 19.7043C142.274 19.6703 146.014 21.3332 149.174 22.9094C153.907 25.2695 166.792 33.4756 168.349 38.3111C168.779 39.646 168.416 41.4333 167.851 42.6803C167.403 43.6692 166.571 44.4705 166.035 45.4118C165.447 46.4438 165.148 47.6287 164.539 48.656C163.099 51.0894 161.189 53.3709 159.928 55.8875C158.938 57.8646 158.058 59.8949 157.054 61.8671C156.242 63.4612 155.315 64.9959 154.531 66.6035C153.625 68.4584 152.858 70.3767 151.915 72.214C149.01 77.8734 145.947 83.4567 142.997 89.0912C142.459 90.1192 142.022 91.1951 141.506 92.2339C140.884 93.487 140.131 94.6746 139.478 95.9126C138.882 97.0461 138.385 98.2345 137.776 99.36C137.201 100.422 136.422 101.358 135.853 102.429L121.076 130.682C118.333 135.937 115.334 141.308 112.519 146.54L105.931 158.653C104.406 161.434 101.545 167.055 99.4419 169.368C98.3714 170.546 92.9372 171.832 90.9252 172.464C89.6679 172.855 88.1056 173.091 86.805 173.502C85.3488 173.963 83.8331 174.812 82.4309 175.274C80.1131 176.04 77.6894 176.654 75.3536 177.391C73.8432 177.867 72.5342 178.508 71.0557 179C70.032 178.809 68.9379 178.661 68.8174 177.37C68.5133 174.11 68.3233 170.78 68.3252 167.504C68.3261 165.653 68.6124 163.748 68.5244 161.885C68.2747 156.372 67.1981 149.726 68.3857 144.291C68.7773 142.773 69.8189 141.307 70.4434 139.913C72.5498 134.649 76.595 130.11 79.09 125.183C81.9894 119.455 84.8694 113.809 88.1351 108.259C89.9348 105.199 91.5026 101.964 93.2231 98.8639L110.834 67.6495C111.858 65.831 113.046 64.1845 114.077 62.3066C116.541 57.7834 118.931 53.2194 121.244 48.6169C122.238 46.59 123.213 44.0388 124.299 42.1295C127.282 36.8845 130.588 31.752 133.312 26.3626C134.586 23.842 135.424 20.2791 138.674 19.7043ZM71.8409 147.361C72.5335 149.467 72.4832 151.803 72.6973 154.005C73.1444 158.607 72.8569 163.229 72.9473 167.836C73.9564 168.763 74.4144 169.152 75.5441 169.882C76.6564 170.601 78.7016 171.633 79.6125 172.513C82.8563 171.953 87.9277 169.804 91.3285 168.636C92.3815 168.253 93.5664 167.841 94.518 167.247C94.3904 166.843 94.1805 166.112 94.0219 165.755C92.7841 165.091 91.4652 164.281 90.1449 164.109C88.0353 163.833 83.3016 166.693 82.5832 163.015C81.5611 157.778 80.6518 157.985 76.1085 155.96C74.93 152.934 75.3943 150.111 72.8702 148.153C72.5775 147.927 72.1668 147.51 71.8409 147.361ZM139.415 67.0274C139.143 68.1341 138.325 69.3664 137.904 70.4747C133.284 82.6189 125.314 92.6566 118.474 103.528C117.645 104.845 116.68 106.276 115.931 107.645L94.559 147.585C92.5107 151.34 90.4161 156.741 87.9066 160.13C91.1886 159.559 93.436 159.37 96.395 161.456C96.7561 161.712 97.1136 161.974 97.4663 162.243C97.9913 162.838 98.1241 163.246 98.44 163.984C99.5318 160.456 101.74 157.063 103.311 153.759C105.701 148.771 108.145 143.542 110.99 138.796C113.38 134.811 114.972 130.725 117.088 126.674C121.495 118.229 126.134 109.995 130.233 101.381C131.928 97.8205 134.448 94.0749 136.315 90.5297L144.081 76.0002C145.164 73.9478 146.375 70.9028 147.654 69.0352C145.695 69.0049 140.968 67.9965 139.415 67.0274ZM130.648 60.4443C130.14 61.6477 128.952 63.1864 128.269 64.3896C127.004 66.6168 125.793 68.8709 124.612 71.1427L112.666 93.8023L107.418 103.975C106.123 106.543 104.919 109.136 103.545 111.671C99.3875 119.342 94.8547 126.787 90.7933 134.514C89.7083 136.578 88.2191 138.536 87.1087 140.596C85.1059 143.994 83.2225 147.486 81.1721 150.849C80.7258 151.582 79.7283 153.213 79.1906 153.758C81.8129 154.335 85.8338 155.658 86.0189 158.86L86.0599 159.056L86.2747 159.021C88.9059 155.119 90.6647 150.341 92.7856 146.155C93.8894 143.977 95.3034 141.921 96.396 139.743C102.164 128.239 108.208 116.888 114.396 105.607C115.709 103.216 117.482 100.878 118.871 98.5152C123.178 91.884 127.773 85.6972 131.29 78.5579C132.491 76.1205 133.531 73.3648 134.48 70.8077C135.158 68.9791 136.001 67.1176 136.653 65.3418C135.539 64.6792 134.319 63.448 133.297 62.5878C132.411 61.842 131.541 61.1706 130.648 60.4443ZM123.702 53.784C122.938 55.0077 122.103 56.2621 121.313 57.4813C118.836 61.3079 116.95 65.3279 114.858 69.3546C113.438 72.0324 111.995 74.6995 110.531 77.3537L93.7934 107.809C91.7723 111.553 89.5825 115.233 87.639 119.027C87.3848 119.523 87.0908 120.012 86.8265 120.504C83.2864 126.489 80.1044 132.718 76.924 138.903C75.8741 140.949 74.5569 142.871 73.5411 144.944C75.9336 146.966 77.714 148.079 78.6906 151.294L78.8732 151.256C81.5963 145.253 85.1411 138.536 88.1595 132.625C92.1012 124.746 96.1574 116.922 100.327 109.161C105.397 99.8088 111.251 90.779 115.967 81.2034C116.282 80.5637 116.743 79.9142 117.09 79.2825C118.586 76.5596 120.189 73.9031 121.754 71.2198C124.192 67.0397 126.31 62.757 128.441 58.4179C127.074 57.2442 125.72 56.0415 124.535 54.6785C124.267 54.3705 124.014 54.0494 123.702 53.784ZM126.585 48.6882C126.37 50.3633 127.307 51.3176 128.217 52.5711C133.44 59.7675 141.342 62.9714 149.595 65.3076C149.68 65.3315 149.832 65.281 149.911 65.2568L150.048 65.0537C150.266 64.7065 150.723 64.1135 150.691 63.7519C149.505 63.4244 147.554 62.7869 146.509 62.5615C139.625 61.0772 134.37 58.1183 129.922 52.5672C129.103 51.592 127.563 49.3149 126.585 48.6882ZM129.256 44.2194C129.402 44.936 130.165 45.9864 130.564 46.6032C134.829 53.1957 141.467 58.2743 149.134 60.1737C150.118 60.4177 151.279 60.9139 152.306 60.7089C152.52 60.4747 152.576 60.4133 152.742 60.1444L153.122 59.6601L153.075 59.4198C152.431 59.0601 151.531 59.2456 150.82 59.0692C143.154 57.1657 136.145 51.2481 130.794 45.6627C130.307 45.1547 129.893 44.4736 129.256 44.2194ZM140.899 23.718C138.292 27.4827 135.928 31.4108 133.822 35.477C133.156 36.7773 132.459 38.4223 131.749 39.8667C132.683 41.2446 134.176 43.8981 135.323 44.9674C140.177 49.4859 146.231 53.4573 152.4 55.911C152.836 56.0846 154.254 56.5938 154.621 56.5516C155.432 54.8569 156.456 53.3748 157.271 51.6218C158.925 48.062 160.199 43.979 162.553 40.8043C162.583 40.7626 162.469 40.2703 162.454 40.1998C162.85 39.2997 163.208 38.6918 163.698 37.8462C159.042 33.4267 152.909 28.8502 147.202 25.8597C146.684 25.5887 145.875 25.0949 145.332 25.1272C143.959 25.1314 142.199 24.2029 140.899 23.718ZM141.176 28.1585C143.461 28.8676 145.072 30.9301 147.098 32.142C150.61 34.2438 154.104 36.4743 157.754 38.3325C158.535 38.7295 159.271 38.9147 160.006 39.4292C160.235 39.8338 160.188 39.6528 160.092 40.1841C159.814 40.2443 159.531 40.2947 159.25 40.3355C154.722 40.9564 149.95 37.5386 146.625 34.8276C144.735 33.2863 141.506 30.6935 141.176 28.1585Z" fill="#380102"/>
<path id="Vector" d="M1.30967 0.022922C1.70935 -0.0307386 2.11613 0.0102357 2.49707 0.142708C4.48623 0.856116 7.28226 4.33711 8.91116 5.90269C9.73976 6.69886 11.0572 7.96338 11.8125 8.82958C17.0042 14.7844 22.0943 20.8354 27.1702 26.8898C31.2149 31.8914 35.054 36.9171 39.5331 41.5705L49.9765 52.32C51.23 53.5884 52.6452 54.7697 53.8485 56.0986C55.2945 57.6956 56.5004 59.4377 57.9264 61.0841C58.987 62.3087 60.5746 63.7366 61.3594 65.1571C61.7974 65.8642 60.8415 66.4157 60.766 66.8343C60.4148 68.7832 58.9794 70.6454 57.0568 71.4634C54.4212 72.5847 50.4993 70.8861 47.7883 70.4927C47.1775 70.404 46.3185 70.8522 45.6813 70.8619C43.414 70.9184 38.7371 70.3633 36.7544 69.5175C38.772 72.9159 39.7835 76.398 41.5586 79.8359C43.6505 83.8873 45.8206 87.9413 47.9561 91.9728C48.8564 93.4656 49.2205 94.7448 50.1369 96.2674C51.1319 97.9205 54.5485 100.418 51.6299 102.392C50.4624 103.18 48.778 102.875 47.4391 102.476C43.8118 103.582 40.6206 103.09 36.9128 102.742C34.076 102.49 31.2429 102.197 28.4146 101.864C29.504 102.561 30.7683 103.23 31.4626 104.29C33.9654 108.113 35.7437 112.825 37.8281 116.854C41.9326 124.61 45.8192 132.477 49.4843 140.449C52.2627 146.407 55.0066 152.493 57.8389 158.42C58.6801 160.18 60.6098 162.847 61.7085 164.908C62.3749 166.045 64.43 169.769 61.6201 170.034C60.8071 170.11 60.2598 169.645 59.6644 169.15C57.3327 167.212 55.619 164.756 53.7059 162.439C51.8937 160.228 50.0922 157.982 48.2379 155.802C46.969 154.31 45.7922 152.703 44.5226 151.208C42.281 148.607 39.9197 146.086 37.6067 143.548C36.6405 142.487 35.8344 141.308 34.8916 140.228C28.5108 133.401 22.847 125.933 16.9892 118.658C12.6644 113.287 8.09081 108.185 4.52268 102.258C3.48438 100.533 -0.0342939 98.4342 2.18521 96.2861C3.26681 95.27 5.03804 95.1207 6.432 95.0609C8.1119 94.9895 9.80366 94.8611 11.4831 94.9825C13.0805 95.1054 14.6758 95.4565 16.2727 95.5753C17.8088 95.6896 19.3432 95.7328 20.8779 95.8136C20.3707 95.0372 19.8751 94.027 19.4412 93.1951C13.4834 81.7736 6.60838 70.3414 1.77048 58.457C1.17859 57.1241 5.46908 55.4914 5.92624 55.5813C9.65554 56.3158 13.1224 56.4027 16.7914 56.6201C19.4829 56.7795 22.7764 57.7241 25.6261 58.0466C24.8012 53.5195 23.0123 50.8395 20.7246 46.91C15.0908 37.2333 10.6614 26.9018 6.13879 16.675C4.49583 12.96 1.81662 9.65708 0.899001 5.71895C0.600468 4.43446 -0.0338356 2.74666 0.00139034 1.48531C0.308051 1.0782 0.946562 0.420189 1.30967 0.022922Z" fill="#380102"/>
</g>
</svg>
