<svg width="1285" height="218" viewBox="0 0 1285 218" fill="none" xmlns="http://www.w3.org/2000/svg">
<g id="@S-Nectarine-Logo-Footer" clip-path="url(#clip0_0_242)">
<g id="Layer_1">
<g id="Group">
<path id="Vector" d="M134.561 78.922C105.787 65.91 85.9965 75.4565 74.8645 85.1992C70.5679 88.9262 63.8626 87.5531 61.7795 82.2568C56.6366 69.3755 43.5516 73.4295 40.2315 74.018C35.0886 74.9988 16.2749 82.3222 9.89512 79.6413C3.51537 76.9604 0.390591 78.5297 -6.66827e-06 91.2802C-0.195305 97.6881 2.08318 100.173 4.49186 101.088C7.48644 102.265 9.24413 105.404 9.24413 108.673V183.28C9.24413 190.145 8.39783 196.945 6.57505 203.55L5.46835 207.473C5.07776 208.977 6.18445 210.415 7.68174 210.415H55.9856C60.6728 210.415 64.3834 206.492 64.1881 201.784L61.1936 136.724C61.1936 136.724 57.8735 117.5 80.1375 101.742C98.756 88.5339 97.3238 115.931 97.3238 115.931L99.2768 183.018C99.4721 189.361 98.8862 195.703 97.454 201.849L96.152 207.604C95.8265 209.042 96.9332 210.415 98.4305 210.415H151.617C156.304 210.415 160.08 206.427 159.819 201.719L155.783 130.512C155.783 130.512 154.807 88.0762 134.561 78.922Z" fill="#D7432A"/>
<path id="Vector_2" d="M423.017 142.282C408.305 150.782 388.58 157.648 364.688 157.125C358.829 156.994 356.421 149.344 361.173 145.813C373.281 136.724 384.609 131.232 409.151 124.235C411.43 123.581 413.513 122.274 415.01 120.443C416.638 118.416 417.549 115.931 417.549 113.316C417.614 103.638 417.809 88.4685 417.874 79.5759C417.874 75.7834 414.62 72.841 410.909 73.2987C391.184 75.8488 343.791 78.7912 321.006 122.077C293.079 175.106 335.914 217.542 375.299 218C414.62 218.458 431.22 196.684 432.196 192.761C432.912 189.949 432.587 163.075 432.392 147.578C432.327 142.805 427.184 139.863 423.017 142.282Z" fill="#D7432A"/>
<path id="Vector_3" d="M540.912 143.917C537.852 143.917 534.142 143.917 525.483 143.917C514.482 143.982 512.659 131.755 512.529 124.431C512.529 121.424 514.872 119.004 517.802 119.004H534.793C537.722 119.004 540.066 116.65 540.066 113.708V78.0066C540.066 75.0642 537.722 72.7103 534.793 72.7103H517.346C514.416 72.7103 512.073 70.3563 512.073 67.4139V7.65027C512.073 3.40012 508.688 0 504.456 0C501.462 0 498.793 1.76545 497.556 4.5117C490.655 19.943 468.912 35.2435 461.621 40.0168C460.123 40.9976 459.277 42.6323 459.277 44.4631V67.087C459.277 70.0294 456.933 72.3833 454.004 72.3833H437.924C434.995 72.3833 432.651 74.7373 432.651 77.6797V113.708C432.651 116.65 434.995 119.004 437.924 119.004H455.827C458.886 119.004 461.23 121.62 461.1 124.693C456.283 216.3 503.415 210.35 503.415 210.35H540.912C543.841 210.35 546.185 207.996 546.185 205.053V149.213C546.185 146.271 543.841 143.917 540.912 143.917Z" fill="#D7432A"/>
<path id="Vector_4" d="M879.169 78.9221C849.809 65.6486 829.824 75.8489 818.757 85.7878C814.851 89.3187 808.406 88.0763 806.648 83.1069C801.766 69.1795 788.16 73.3642 784.84 74.0181C779.697 74.9989 760.883 82.3223 754.504 79.6414C748.124 76.9605 744.999 78.5298 744.608 91.3457C744.413 97.7536 746.692 100.238 749.1 101.154C752.095 102.331 753.853 105.469 753.853 108.739V192.63C753.853 193.284 753.853 194.003 753.657 194.657L751.965 200.869C750.663 205.707 754.243 210.481 759.256 210.481H801.31C805.607 210.481 809.057 206.884 808.862 202.569L805.802 136.79C805.802 136.79 802.482 117.566 824.746 101.808C843.364 88.5994 841.932 115.997 841.932 115.997L841.411 121.751C841.021 126.197 844.406 129.989 848.833 130.055L892.124 130.578C896.681 130.578 900.261 126.72 899.741 122.208C898.308 109.327 893.686 85.657 879.169 79.1183V78.9221Z" fill="#D7432A"/>
<path id="Vector_5" d="M947.85 74.0177C942.707 74.9985 923.893 82.3218 917.514 79.641C911.134 76.9601 908.009 78.5294 907.619 91.3452C907.358 100.042 911.72 101.546 914.519 101.611C915.821 101.611 916.863 102.657 916.863 103.965V193.414C916.863 193.414 916.863 193.807 916.863 194.068L913.152 207.603C912.761 209.107 913.868 210.546 915.365 210.546H969.789C971.091 210.546 972.197 209.434 972.132 208.126L966.794 98.407C968.096 66.8251 952.082 73.3638 947.85 74.1485V74.0177Z" fill="#D7432A"/>
<path id="Vector_6" d="M939.061 63.0982C952.993 63.0982 964.32 51.7208 964.32 37.728C964.32 23.7352 952.993 12.3579 939.061 12.3579C925.13 12.3579 913.803 23.7352 913.803 37.728C913.803 51.7208 925.13 63.0982 939.061 63.0982Z" fill="#D7432A"/>
<path id="Vector_7" d="M624.631 215.581C624.631 215.581 625.217 215.45 625.477 215.45C625.217 215.45 624.956 215.515 624.696 215.581H624.631Z" fill="#D7432A"/>
<path id="Vector_8" d="M639.345 139.078C639.345 139.078 639.345 139.209 639.278 139.274C639.278 139.274 639.278 139.143 639.345 139.078Z" fill="#D7432A"/>
<path id="Vector_9" d="M1118.87 78.922C1090.09 65.91 1070.3 75.4565 1059.17 85.1992C1054.87 88.9262 1048.17 87.5531 1046.09 82.2568C1040.94 69.3755 1027.86 73.4295 1024.54 74.018C1019.39 74.9988 1000.58 82.3222 994.201 79.6413C987.821 76.9604 984.696 78.5297 984.306 91.3456C984.11 97.4265 986.194 99.9766 988.407 101.023C991.532 102.461 993.55 105.665 993.55 109.131V183.345C993.55 190.211 992.704 197.011 990.881 203.615L989.839 207.538C989.449 209.042 990.555 210.48 992.053 210.48H1040.29C1044.98 210.48 1048.75 206.557 1048.56 201.784L1045.56 136.724C1045.56 136.724 1042.24 117.5 1064.51 101.742C1083.13 88.5339 1081.69 115.931 1081.69 115.931L1083.65 182.953C1083.84 189.295 1083.19 195.638 1081.82 201.849L1080.52 207.603C1080.2 209.042 1081.3 210.415 1082.8 210.415H1135.92C1140.67 210.415 1144.45 206.427 1144.13 201.653L1140.09 130.512C1140.09 130.512 1139.11 88.0762 1118.87 78.922Z" fill="#D7432A"/>
<path id="Vector_10" d="M289.563 143.917C274.85 151.763 245.295 165.625 221.403 165.233C216.651 165.167 214.242 160.459 216.065 156.994H215.349L293.013 130.905C296.854 129.597 299.002 125.412 297.7 121.554C291.06 101.611 269.902 54.1403 210.141 77.9411C174.597 92.1301 165.092 138.424 171.797 165.494C176.094 195.114 212.354 213.161 241.975 213.488C281.295 213.881 297.895 193.938 298.872 190.341C299.588 187.791 299.262 163.14 299.067 148.886C299.002 144.505 293.859 141.824 289.693 143.982L289.563 143.917ZM214.568 136.855C214.763 128.812 223.552 117.042 234.098 115.277C246.922 113.119 252.391 120.312 254.148 123.516C254.539 124.3 254.148 125.216 253.367 125.543L216.391 138.686C215.219 139.078 214.568 138.032 214.568 136.855Z" fill="#D7432A"/>
<path id="Vector_11" d="M1284.74 148.821C1284.68 144.44 1279.53 141.759 1275.37 143.917C1260.65 151.763 1231.1 165.625 1207.21 165.233C1202.45 165.168 1200.05 160.46 1201.87 156.994H1201.15L1278.82 130.905C1282.72 129.597 1284.81 125.412 1283.5 121.554C1276.86 101.611 1255.71 54.1405 1195.94 77.9414C1160.4 92.1303 1150.9 138.424 1157.6 165.494C1161.9 195.115 1198.16 213.162 1227.71 213.488C1267.03 213.881 1283.63 193.938 1284.61 190.341C1285.33 187.791 1285 163.141 1284.81 148.886L1284.74 148.821ZM1200.37 136.855C1200.57 128.812 1209.36 117.043 1219.9 115.277C1232.73 113.12 1238.19 120.312 1239.95 123.516C1240.34 124.301 1239.95 125.216 1239.17 125.543L1202.19 138.686C1201.02 139.078 1200.37 138.032 1200.37 136.855Z" fill="#D7432A"/>
<g id="Group_2">
<path id="Vector_12" d="M651.907 109.785C651.321 109.327 649.954 108.215 649.368 106.385C648.391 103.508 650.019 101.088 650.279 100.696C651.191 98.6036 651.256 96.9035 650.409 96.3804C649.628 95.9227 648.326 96.5112 648.196 96.5766C644.42 98.2766 646.894 104.423 642.597 108.281C641.296 109.458 639.733 110.046 638.822 110.308C636.869 111.746 635.176 112.727 634.069 113.316C629.252 115.996 627.104 117.108 622.937 119.331C621.896 119.92 621.18 120.704 620.659 121.685C619.617 123.647 620.659 126.001 618.055 127.112C616.037 129.074 613.954 131.428 613.693 134.174C613.628 135.22 613.889 136.266 614.214 137.247C608.095 138.163 610.438 149.802 612.391 153.136C612.587 153.529 612.782 153.986 612.717 154.444C612.456 159.544 613.238 164.644 618.901 167.26C619.227 172.752 622.026 176.087 628.666 175.695C631.075 176.349 633.939 179.487 636.413 179.291C636.543 179.291 636.608 179.226 636.673 179.226C636.804 179.226 636.869 179.226 636.999 179.291C637.455 180.468 639.147 180.991 640.775 180.86C641.296 180.86 641.816 180.73 642.272 180.599C654.576 177.199 662.648 176.676 666.945 165.167C672.153 157.91 671.241 139.47 669.484 131.232C666.294 120.05 662.388 116.389 651.842 109.719L651.907 109.785ZM624.76 130.055C624.76 130.055 624.174 130.709 623.849 131.035C623.654 131.297 623.458 131.624 623.263 131.886C623.133 132.212 623.003 132.474 622.872 132.801C622.677 133.389 622.547 133.978 622.417 134.566C622.156 136.005 621.961 137.378 621.896 138.817C621.896 138.817 621.896 138.751 621.896 138.686C621.896 138.817 621.896 138.882 621.896 139.013C621.896 139.013 621.896 139.078 621.896 139.143C621.896 139.143 621.896 139.143 621.896 139.209C621.896 139.209 621.896 139.209 621.896 139.274C621.896 139.34 621.896 139.405 621.896 139.47C621.896 140.059 621.896 140.582 621.831 141.17C621.701 143.328 621.635 145.551 621.44 147.709C621.44 148.232 621.18 148.69 620.854 149.017C620.854 149.278 620.854 149.475 620.789 149.736C620.789 150.325 620.789 150.913 620.789 151.567C620.789 152.221 620.919 152.809 620.984 153.463C621.115 154.182 621.245 154.836 621.375 155.556C621.635 156.798 621.766 158.04 622.026 159.283C622.026 159.283 622.026 159.217 622.026 159.152C622.091 159.479 622.156 159.871 622.221 160.198C622.221 160.329 622.286 160.46 622.352 160.59C622.482 161.048 622.221 161.506 621.766 161.767C621.57 161.833 621.44 161.898 621.245 161.898C620.724 161.898 620.203 161.702 620.008 161.31C619.552 160.525 619.227 159.675 618.836 158.825C618.836 158.825 618.836 158.956 618.901 158.956C618.641 158.433 618.38 157.91 618.12 157.321C617.925 156.798 617.729 156.34 617.534 155.817C617.144 154.706 616.948 153.594 616.688 152.482C616.493 151.436 616.297 150.325 616.102 149.213C615.842 147.971 615.581 146.728 615.321 145.486C615.191 144.898 615.516 144.44 615.972 144.047C616.167 143.917 616.232 143.721 616.493 143.655C616.493 143.524 616.493 143.394 616.493 143.197C616.493 142.936 616.493 142.674 616.493 142.413C616.623 140.713 616.753 139.013 616.948 137.313C617.144 136.136 617.339 134.893 617.664 133.716C617.99 132.67 618.315 131.493 618.966 130.512C619.292 130.055 619.617 129.597 620.008 129.205C620.333 128.812 620.789 128.485 621.18 128.158C621.961 127.57 622.742 126.981 623.588 126.524C624.239 126.131 624.956 125.739 625.607 125.281C625.607 125.281 625.672 125.281 625.737 125.281C625.737 125.281 625.867 125.281 625.867 125.216C626.127 125.02 626.388 124.889 626.583 124.693C627.039 124.431 627.429 124.104 627.885 123.778C627.885 123.778 627.95 123.712 628.015 123.647C628.08 123.581 628.211 123.516 628.276 123.385C628.276 123.385 628.471 123.189 628.536 123.124C628.731 122.928 628.927 122.666 629.122 122.47C629.122 122.47 629.122 122.47 629.122 122.404C629.187 122.274 629.317 122.077 629.382 121.947C629.382 121.947 629.382 121.881 629.447 121.816C629.447 121.816 629.447 121.816 629.447 121.881C629.447 121.881 629.447 121.881 629.447 121.816C629.447 121.816 629.447 121.816 629.447 121.881C629.447 121.816 629.447 121.751 629.512 121.685C629.512 121.685 629.512 121.62 629.512 121.554C629.512 121.554 629.512 121.554 629.512 121.62C629.578 121.424 629.643 121.227 629.708 121.031C629.708 120.901 629.708 120.77 629.708 120.639C629.708 120.574 629.708 120.443 629.708 120.377C629.708 120.377 629.708 120.312 629.708 120.247C629.708 120.181 629.708 120.116 629.643 120.05C629.643 120.05 629.643 120.05 629.643 119.985C629.187 119.397 629.512 118.612 630.229 118.285C630.489 118.154 630.749 118.22 631.075 118.285C631.14 118.285 631.27 118.285 631.335 118.285C631.596 118.416 631.856 118.547 632.051 118.808C632.247 119.135 632.312 119.527 632.377 119.92C632.377 120.05 632.377 120.116 632.377 120.247C632.377 120.639 632.377 121.031 632.377 121.358C632.247 122.535 631.661 123.647 630.88 124.562C629.708 126.001 628.145 127.112 626.713 128.355C626.062 128.943 625.346 129.466 624.76 130.12V130.055ZM635.502 133.716C635.502 133.716 635.502 134.174 635.502 134.436C635.437 134.828 635.371 135.22 635.241 135.678C635.111 136.463 634.916 137.182 634.786 138.032C634.786 137.901 634.786 137.77 634.851 137.705C634.655 138.555 634.46 139.47 634.265 140.32C634.265 140.19 634.265 140.059 634.33 139.993C634.33 140.19 634.265 140.386 634.2 140.517C634.004 141.497 633.809 142.478 633.679 143.459C633.549 144.571 633.418 145.617 633.353 146.728C633.353 146.728 633.353 146.728 633.353 146.794C633.353 146.859 633.353 146.925 633.353 147.055C633.353 146.99 633.353 146.925 633.353 146.859C633.223 148.428 633.353 150.063 633.418 151.632C633.418 152.94 633.614 154.182 633.418 155.49C633.288 156.798 633.028 158.106 632.247 159.217C632.051 159.61 631.726 159.937 631.465 160.263C631.4 160.329 631.335 160.46 631.27 160.525C631.27 160.656 631.14 160.721 631.075 160.852C631.01 161.048 630.88 161.244 630.814 161.506C630.814 161.702 630.749 161.833 630.684 162.029C630.684 162.356 630.619 162.683 630.554 163.01C630.554 163.01 630.554 163.01 630.554 163.075C630.554 163.402 630.554 163.664 630.554 163.991C630.554 163.991 630.554 163.925 630.554 163.86C630.554 164.121 630.554 164.383 630.554 164.71C630.554 164.841 630.554 164.906 630.554 165.037C630.554 165.233 630.619 165.429 630.684 165.625C630.749 166.148 630.88 166.737 630.945 167.26C631.01 167.587 631.075 167.979 631.14 168.306C631.27 168.764 631.4 169.156 631.531 169.614C631.661 170.137 631.986 170.725 631.791 171.248C631.661 171.641 631.205 171.968 630.749 171.968C630.619 171.968 630.424 171.968 630.294 171.902C629.968 171.772 629.708 171.575 629.578 171.248C629.578 171.118 629.578 170.987 629.578 170.856C629.578 170.856 629.578 170.791 629.578 170.725C629.578 170.595 629.513 170.464 629.447 170.333C629.187 169.614 628.796 168.829 628.536 168.11C628.211 167.26 627.95 166.41 627.69 165.494C627.299 163.99 627.039 162.552 627.104 160.983C627.104 160.198 627.234 159.479 627.56 158.76C627.755 158.302 627.95 157.844 628.08 157.386C628.145 157.125 628.211 156.798 628.276 156.536C628.276 156.079 628.341 155.621 628.341 155.163C628.341 153.398 627.885 151.698 627.69 149.932C627.559 148.952 627.494 147.905 627.429 146.925C627.429 146.074 627.429 145.224 627.494 144.374C627.56 142.609 627.82 140.909 628.211 139.209C628.601 137.247 629.057 135.351 629.512 133.455C629.838 132.082 631.531 131.232 633.093 131.493C633.223 131.493 633.288 131.559 633.418 131.624C634.069 131.82 634.59 132.147 634.981 132.67C635.111 132.801 635.111 132.997 635.176 133.193C635.176 133.324 635.306 133.52 635.371 133.651C635.371 133.716 635.371 133.847 635.371 133.913L635.502 133.716ZM651.972 154.052C652.232 153.398 652.493 152.744 652.818 152.09C653.079 151.567 653.404 150.979 653.73 150.455C653.73 150.455 653.73 150.455 653.73 150.39C653.795 150.259 653.86 150.128 653.925 149.998C653.925 150.063 653.86 150.194 653.795 150.259C654.771 148.298 655.227 146.14 656.008 144.113C656.333 143.263 656.724 142.413 657.05 141.563C657.115 141.367 657.18 141.236 657.31 141.04C657.766 140.124 658.352 139.209 658.937 138.359C658.937 138.359 658.937 138.424 658.937 138.49C658.937 138.49 658.938 138.424 659.003 138.359C659.003 138.359 659.003 138.424 658.937 138.49C658.937 138.49 659.003 138.359 659.003 138.293C659.198 137.966 659.328 137.574 659.523 137.247C659.654 136.855 659.784 136.397 659.914 136.005C659.914 135.809 659.979 135.547 660.044 135.351C660.044 135.024 660.044 134.697 660.044 134.305C660.044 133.978 659.914 133.651 659.849 133.324C659.654 132.736 659.458 132.147 659.263 131.624C658.807 130.643 658.352 129.662 657.896 128.747C657.44 127.962 656.919 127.243 656.399 126.589C655.878 125.87 655.422 125.151 655.032 124.366C654.576 123.385 654.315 122.339 654.055 121.293C653.925 120.639 653.73 119.92 653.599 119.266C653.599 119.266 653.599 119.2 653.599 119.135C653.469 119.004 653.469 118.874 653.404 118.743C653.404 118.612 653.274 118.547 653.274 118.481C653.274 117.762 653.925 117.239 654.706 117.239C655.292 117.239 655.813 117.566 656.073 118.023C656.268 118.416 656.333 118.874 656.464 119.266C656.659 119.985 656.919 120.639 657.18 121.358C657.18 121.358 657.18 121.358 657.115 121.293C657.245 121.62 657.375 122.012 657.505 122.339C657.505 122.339 657.505 122.404 657.505 122.47C657.505 122.47 657.505 122.47 657.505 122.404C657.635 122.666 657.766 122.928 657.896 123.189C658.091 123.516 658.287 123.778 658.482 124.104C659.263 124.954 660.044 125.87 660.76 126.785C661.411 127.635 661.997 128.551 662.518 129.466C663.104 130.643 663.69 131.755 663.95 132.997C664.276 134.305 664.341 135.678 664.08 137.051C663.95 137.574 663.82 138.097 663.625 138.62C663.625 138.62 663.625 138.686 663.625 138.751C663.625 138.751 663.625 138.882 663.56 138.947C663.429 139.34 663.234 139.667 663.039 140.059C662.778 140.517 662.518 140.909 662.258 141.301C661.997 141.759 661.802 142.151 661.541 142.609C661.021 143.851 660.63 145.159 660.239 146.467C660.239 146.532 660.239 146.598 660.239 146.663C659.849 148.036 659.458 149.409 659.003 150.717C658.612 151.763 658.026 152.809 657.44 153.79C657.18 154.379 656.919 154.967 656.659 155.556C656.138 157.059 655.683 158.629 655.292 160.133C655.032 160.983 654.185 161.506 653.209 161.571C652.948 161.571 652.753 161.571 652.493 161.571C652.167 161.506 651.907 161.375 651.646 161.179C651.06 160.721 650.67 160.067 650.8 159.413C651.126 157.713 651.516 155.883 652.167 154.248L651.972 154.052ZM637.52 140.974C637.259 140.582 637.259 140.19 637.455 139.732C637.455 139.667 637.585 139.601 637.65 139.536C637.78 139.405 637.91 139.274 638.041 139.143C638.171 139.078 638.301 138.947 638.496 138.947C638.561 138.62 638.561 138.228 638.626 137.901C638.887 136.332 639.147 134.763 639.277 133.128C639.277 131.886 639.408 130.578 639.603 129.335C639.603 129.205 639.603 129.074 639.603 128.943C639.863 127.57 640.124 126.197 640.254 124.824C640.384 123.451 640.514 122.077 640.71 120.704C640.84 119.854 640.97 119.07 641.23 118.22C641.491 117.435 641.816 116.65 642.207 115.866C642.402 115.539 642.663 115.277 642.988 115.146C643.053 115.146 643.118 115.081 643.183 115.016C643.509 114.885 643.834 114.754 644.225 114.754C644.616 114.754 645.071 114.754 645.462 114.95C646.634 115.473 647.154 116.781 646.569 117.827C646.308 118.22 646.113 118.612 645.918 118.939C645.918 119.07 645.852 119.135 645.787 119.266C645.657 119.658 645.462 119.985 645.332 120.377C644.941 121.751 644.681 123.124 644.355 124.562C644.29 124.889 644.225 125.216 644.095 125.543C643.769 126.851 643.444 128.224 643.118 129.532C642.988 129.924 642.923 130.316 642.793 130.709C642.402 132.67 642.142 134.632 641.751 136.593C641.621 137.182 641.491 137.77 641.361 138.359C641.23 138.882 641.165 139.405 640.97 139.928C640.71 140.582 640.514 141.17 639.733 141.432C639.603 141.432 639.408 141.497 639.212 141.563C639.082 141.563 638.952 141.563 638.887 141.563C638.887 141.563 638.822 141.563 638.757 141.563C638.171 141.563 637.65 141.301 637.39 140.909L637.52 140.974ZM640.384 163.991C640.384 163.991 640.059 163.991 639.863 163.991C639.343 163.925 638.887 163.664 638.496 163.337C638.301 163.14 638.106 162.944 637.975 162.748C637.975 162.683 637.845 162.617 637.845 162.487C637.715 162.16 637.65 161.833 637.715 161.44C638.041 159.61 638.431 157.844 638.952 156.013C638.952 155.948 638.952 155.883 639.017 155.752C639.147 155.425 639.277 155.098 639.408 154.771C639.603 154.379 639.733 153.921 639.928 153.529C640.254 152.809 640.514 152.09 640.84 151.436C641.491 149.867 642.207 148.298 643.183 146.794C643.639 146.074 644.16 145.421 644.681 144.767C645.201 144.113 645.787 143.524 646.373 142.936C646.503 142.805 646.634 142.609 646.699 142.478C646.699 142.478 646.959 142.151 647.089 141.955C647.35 141.497 647.61 141.04 647.871 140.582C648.261 139.732 648.587 138.882 648.847 138.032C648.977 137.574 649.107 137.051 649.173 136.593C649.173 136.005 649.303 135.416 649.303 134.763C649.303 134.763 649.303 134.763 649.303 134.697C649.303 133.455 649.173 132.212 649.042 130.97C649.042 130.316 648.977 129.597 648.912 128.943C648.912 128.42 649.303 128.028 649.889 127.962C650.149 127.962 650.409 127.962 650.67 128.158C650.865 128.289 650.995 128.551 651.06 128.747C651.06 128.878 651.06 128.943 651.06 129.074C651.06 130.185 651.321 131.297 651.386 132.409C651.516 133.455 651.646 134.501 651.581 135.547C651.581 137.116 651.321 138.686 650.8 140.19C650.54 140.909 650.279 141.628 650.019 142.347C649.824 142.871 649.563 143.459 649.238 143.917C648.587 144.963 647.805 145.944 647.089 146.99C647.089 146.99 647.089 147.055 647.089 147.121C646.373 148.298 645.722 149.475 645.332 150.717C645.332 150.848 645.332 150.913 645.267 151.044C645.267 151.044 645.267 151.175 645.201 151.24C645.006 151.959 644.811 152.744 644.616 153.529C644.55 153.921 644.42 154.313 644.29 154.706C644.29 154.706 644.29 154.836 644.29 154.902C643.834 157.321 643.379 159.74 642.923 162.094C642.728 163.14 641.751 163.925 640.579 163.991H640.384ZM665.382 154.117C665.382 154.117 665.057 154.771 664.927 155.098C664.927 155.229 664.862 155.425 664.796 155.556C664.666 156.209 664.601 156.929 664.601 157.583C664.601 158.236 664.601 158.825 664.601 159.479C664.601 160.133 664.601 160.852 664.601 161.506C664.601 161.637 664.601 161.767 664.536 161.964C664.536 162.356 664.406 162.683 664.341 163.075C664.341 163.271 664.211 163.402 664.145 163.598C664.015 163.991 663.885 164.383 663.625 164.71C663.169 165.429 662.583 166.017 661.867 166.541C661.672 166.671 661.476 166.802 661.346 166.933C661.346 166.933 661.216 166.998 661.151 167.064C660.825 167.325 660.5 167.587 660.174 167.848C659.979 168.044 659.849 168.241 659.654 168.371C659.654 168.371 659.654 168.371 659.654 168.437C659.654 168.437 659.654 168.502 659.588 168.568C659.588 168.568 659.588 168.633 659.523 168.698C659.393 168.829 659.263 169.025 659.133 169.156C658.417 170.006 657.635 170.856 656.724 171.51C655.487 172.491 654.055 173.21 652.558 173.799C651.06 174.387 649.433 174.779 647.871 175.237C647.48 175.368 647.024 175.433 646.569 175.564C646.048 175.695 645.462 175.76 644.941 175.826C644.941 175.826 644.941 175.826 644.876 175.826C644.746 175.826 644.681 175.826 644.551 175.826C644.095 175.826 643.704 175.826 643.248 175.695C643.118 175.695 642.988 175.695 642.793 175.564C642.728 175.564 642.663 175.564 642.597 175.499C642.337 175.433 642.077 175.302 641.881 175.106C641.881 175.106 641.816 175.041 641.751 174.976C641.426 174.649 641.23 174.256 641.23 173.799C641.23 173.799 641.23 173.733 641.23 173.668C641.23 173.406 641.361 173.21 641.491 172.949C642.012 172.229 642.923 172.033 643.769 172.229C644.03 172.295 644.29 172.425 644.485 172.622C644.485 172.622 644.616 172.622 644.681 172.622C644.941 172.622 645.201 172.491 645.397 172.425C645.462 172.425 645.592 172.425 645.657 172.36C645.918 172.295 646.113 172.229 646.373 172.164C647.22 171.902 648.001 171.575 648.847 171.314H648.977C649.042 171.314 649.173 171.314 649.238 171.248C649.173 171.248 649.107 171.248 649.042 171.314C649.107 171.314 649.173 171.314 649.238 171.248C649.238 171.248 649.173 171.248 649.107 171.248C649.824 170.922 650.54 170.66 651.256 170.268C651.777 169.941 652.232 169.679 652.753 169.352C653.079 169.091 653.404 168.829 653.73 168.633C653.86 168.502 653.99 168.306 654.12 168.175C654.315 167.979 654.576 167.718 654.771 167.521C655.097 167.129 655.487 166.737 655.813 166.344C656.659 165.364 657.701 164.579 658.742 163.794C658.742 163.794 658.612 163.86 658.612 163.925C658.807 163.794 658.937 163.664 659.133 163.533C659.198 163.467 659.328 163.337 659.393 163.271C659.393 163.271 659.458 163.14 659.523 163.075C659.523 163.01 659.588 162.879 659.654 162.814C659.719 162.748 659.654 162.617 659.719 162.552C659.784 162.16 659.849 161.833 659.914 161.44C660.044 159.413 660.109 157.386 660.63 155.425C660.89 154.444 661.346 153.529 661.867 152.613C662.388 151.763 662.974 150.978 663.364 150.128C663.56 149.736 664.015 149.409 664.471 149.278C664.992 149.148 665.513 149.148 665.968 149.344C666.815 149.736 667.27 150.652 666.88 151.371C666.424 152.352 665.838 153.267 665.317 154.248L665.382 154.117ZM666.945 156.863C666.945 156.863 666.945 156.733 666.945 156.667C666.945 156.733 666.945 156.798 666.88 156.929L666.945 156.863Z" fill="#D7432A"/>
<path id="Vector_13" d="M728.529 111.419C727.943 109.523 727.422 107.562 726.771 105.731C723.516 98.342 719.806 91.2149 713.621 85.9185C711.278 83.7608 709.259 81.4068 707.111 79.1183C703.27 75.8489 699.95 74.2143 696.37 71.2065C694.807 69.8987 692.659 69.3103 690.706 69.5718C688.688 68.5256 686.67 67.5448 684.847 66.2371C682.764 65.3217 680.876 63.4908 678.598 63.2293C678.402 63.2293 678.207 63.36 678.012 63.36C676.384 62.6408 673.91 61.7908 670.786 61.66C665.252 61.4638 662.843 64.6678 656.008 65.9755C653.664 66.4332 651.711 66.4332 647.871 66.3678C638.106 66.3678 635.176 64.537 626.909 64.6024C624.76 64.6024 621.505 64.7986 617.469 65.5178C613.303 67.1525 607.183 69.5718 599.892 72.7104C588.044 77.8759 586.156 79.1837 584.724 80.426C579.386 84.8723 576.391 90.2341 572.355 97.2959C570.858 99.9767 569.36 102.919 567.928 106.188C562.916 118.024 561.874 127.57 560.832 137.967C559.27 153.071 560.051 169.679 563.632 178.441C565.52 183.149 567.928 187.661 570.597 192.042C571.118 192.957 571.704 193.938 572.355 194.788C574.243 197.73 576.131 200.607 578.149 203.419C582.055 208.519 587.914 211.723 594.163 213.096C596.637 215.581 602.626 216.235 605.295 216.954C609.136 217.085 615.256 217.019 622.612 215.842C623.393 215.712 624.044 215.581 624.695 215.45C624.89 215.319 625.086 215.254 625.281 215.123C625.346 215.188 625.411 215.254 625.476 215.319C635.567 213.358 638.952 210.808 646.959 211.331C655.292 211.854 656.268 214.927 664.927 216.431C669.223 217.15 674.822 217.346 681.527 215.908C702.88 214.665 724.102 201.588 732.174 181.383C737.057 169.156 736.862 154.509 735.755 141.563C734.909 131.166 732.695 120.901 728.529 111.354V111.419ZM702.88 191.453C702.815 191.453 702.749 191.584 702.684 191.649C702.684 191.649 702.815 191.518 702.815 191.453H702.88ZM656.073 201.326C654.25 199.365 653.013 197.534 651.581 196.422C650.865 194.199 650.344 191.911 648.912 189.949C648.522 189.491 647.35 189.753 646.829 189.949C646.373 190.08 645.918 190.211 645.527 190.472C645.332 190.603 645.071 190.734 645.071 190.995C645.071 193.153 645.006 195.245 644.941 197.403C644.29 197.926 643.509 198.515 642.532 199.299C637.259 203.615 637.52 203.942 635.567 205.315C635.046 205.707 634.525 206.034 633.939 206.296C622.807 211.984 606.142 209.434 606.142 209.434C600.999 209.304 597.158 208.061 596.051 207.669C588.63 205.053 584.268 200.28 581.469 197.207C579.321 194.853 577.172 191.911 575.285 188.249C571.704 181.449 567.798 172.752 568.71 152.613C569.23 140.909 567.993 128.943 570.793 117.37C572.29 109.392 576.847 102.723 581.209 95.9881C585.766 86.7686 591.364 81.9953 595.596 79.3145C596.832 78.5298 598.525 77.7452 599.241 77.4182C606.923 73.6258 613.107 71.9257 614.865 71.468C618.641 70.4872 622.286 69.441 627.364 69.3756C633.614 69.2449 647.48 68.1333 651.256 75.1297C652.753 77.9413 652.297 81.5376 652.167 82.5838C651.451 87.8801 648.001 90.9533 649.107 92.3264C649.498 92.8495 650.605 93.1765 653.599 92.3264C654.901 89.2533 655.813 86.7032 656.333 84.9377C658.482 78.4644 659.068 74.6066 662.909 70.9449C663.039 70.8142 663.169 70.6834 663.299 70.5526C667.596 66.7602 676.124 66.8256 680.551 70.618C682.113 71.9911 683.48 75.1297 684.847 81.7338C689.795 105.077 692.008 102.723 692.789 114.166C693.31 121.227 692.659 125.412 694.612 133.455C695.523 137.247 696.109 138.032 696.435 141.04C697.281 148.101 695.393 152.94 693.896 158.629C691.097 169.418 693.505 170.595 691.162 179.683C689.599 185.503 686.54 194.265 679.704 204.073C674.431 207.996 670.004 208.388 667.921 208.454C660.565 208.454 660.565 206.296 656.008 201.457L656.073 201.326Z" fill="#D7432A"/>
<path id="Vector_14" d="M646.568 184.849C644.55 184.849 643.768 187.464 646.242 187.464C648.26 187.464 649.041 184.849 646.568 184.849Z" fill="#D7432A"/>
</g>
</g>
</g>
</g>
<defs>
<clipPath id="clip0_0_242">
<rect width="1285" height="218" fill="white"/>
</clipPath>
</defs>
</svg>
