<svg width="1285" height="218" viewBox="0 0 1285 218" fill="none" xmlns="http://www.w3.org/2000/svg">
<g id="@S-Nectarine-Logo-Footer" clip-path="url(#clip0_37_21425)">
<g id="Layer_1">
<g id="Group">
<path id="Vector" d="M134.561 78.922C105.787 65.91 85.9965 75.4565 74.8645 85.1992C70.5679 88.9262 63.8626 87.5531 61.7795 82.2568C56.6366 69.3755 43.5516 73.4295 40.2315 74.018C35.0886 74.9988 16.2749 82.3222 9.89512 79.6413C3.51537 76.9604 0.390591 78.5297 -6.66827e-06 91.2802C-0.195305 97.6881 2.08318 100.173 4.49186 101.088C7.48644 102.265 9.24413 105.404 9.24413 108.673V183.28C9.24413 190.145 8.39783 196.945 6.57505 203.55L5.46835 207.473C5.07776 208.977 6.18445 210.415 7.68174 210.415H55.9856C60.6728 210.415 64.3834 206.492 64.1881 201.784L61.1936 136.724C61.1936 136.724 57.8735 117.5 80.1375 101.742C98.756 88.5339 97.3238 115.931 97.3238 115.931L99.2768 183.018C99.4721 189.361 98.8862 195.703 97.454 201.849L96.152 207.604C95.8265 209.042 96.9332 210.415 98.4305 210.415H151.617C156.304 210.415 160.08 206.427 159.819 201.719L155.783 130.512C155.783 130.512 154.807 88.0762 134.561 78.922Z" fill="#D7432A"/>
<path id="Vector_2" d="M423.017 142.282C408.304 150.782 388.579 157.648 364.688 157.125C358.829 156.994 356.42 149.344 361.172 145.813C373.281 136.724 384.608 131.232 409.151 124.235C411.429 123.582 413.512 122.274 415.01 120.443C416.637 118.416 417.548 115.931 417.548 113.316C417.614 103.639 417.809 88.4687 417.874 79.5761C417.874 75.7837 414.619 72.8413 410.908 73.299C391.183 75.8491 343.791 78.7915 321.006 122.078C293.078 175.106 335.914 217.543 375.299 218C414.619 218.458 431.219 196.684 432.196 192.761C432.912 189.949 432.586 163.075 432.391 147.579C432.326 142.805 427.183 139.863 423.017 142.282Z" fill="#D7432A"/>
<path id="Vector_3" d="M540.912 143.917C537.852 143.917 534.142 143.917 525.483 143.917C514.482 143.982 512.659 131.755 512.529 124.431C512.529 121.424 514.872 119.004 517.802 119.004H534.793C537.722 119.004 540.066 116.65 540.066 113.708V78.0066C540.066 75.0642 537.722 72.7103 534.793 72.7103H517.346C514.416 72.7103 512.073 70.3563 512.073 67.4139V7.65027C512.073 3.40012 508.688 0 504.456 0C501.462 0 498.793 1.76545 497.556 4.5117C490.655 19.943 468.912 35.2435 461.621 40.0168C460.123 40.9976 459.277 42.6323 459.277 44.4631V67.087C459.277 70.0294 456.933 72.3833 454.004 72.3833H437.924C434.995 72.3833 432.651 74.7373 432.651 77.6797V113.708C432.651 116.65 434.995 119.004 437.924 119.004H455.827C458.886 119.004 461.23 121.62 461.1 124.693C456.283 216.3 503.415 210.35 503.415 210.35H540.912C543.841 210.35 546.185 207.996 546.185 205.053V149.213C546.185 146.271 543.841 143.917 540.912 143.917Z" fill="#D7432A"/>
<path id="Vector_4" d="M879.169 78.9221C849.809 65.6486 829.824 75.8489 818.757 85.7878C814.851 89.3187 808.406 88.0763 806.648 83.1069C801.766 69.1795 788.16 73.3642 784.84 74.0181C779.697 74.9989 760.883 82.3223 754.504 79.6414C748.124 76.9605 744.999 78.5298 744.608 91.3457C744.413 97.7536 746.692 100.238 749.1 101.154C752.095 102.331 753.853 105.469 753.853 108.739V192.63C753.853 193.284 753.853 194.003 753.657 194.657L751.965 200.869C750.663 205.707 754.243 210.481 759.256 210.481H801.31C805.607 210.481 809.057 206.884 808.862 202.569L805.802 136.79C805.802 136.79 802.482 117.566 824.746 101.808C843.364 88.5994 841.932 115.997 841.932 115.997L841.411 121.751C841.021 126.197 844.406 129.989 848.833 130.055L892.124 130.578C896.681 130.578 900.261 126.72 899.741 122.208C898.308 109.327 893.686 85.657 879.169 79.1183V78.9221Z" fill="#D7432A"/>
<path id="Vector_5" d="M947.85 74.0179C942.707 74.9987 923.893 82.3221 917.514 79.6412C911.134 76.9603 908.009 78.5296 907.619 91.3455C907.358 100.042 911.72 101.546 914.519 101.611C915.821 101.611 916.863 102.657 916.863 103.965V193.414C916.863 193.414 916.863 193.807 916.863 194.068L913.152 207.603C912.761 209.107 913.868 210.546 915.365 210.546H969.789C971.091 210.546 972.197 209.434 972.132 208.126L966.794 98.4073C968.096 66.8254 952.082 73.3641 947.85 74.1487V74.0179Z" fill="#D7432A"/>
<path id="Vector_6" d="M939.061 63.0977C952.993 63.0977 964.32 51.7203 964.32 37.7275C964.32 23.7347 952.993 12.3574 939.061 12.3574C925.13 12.3574 913.803 23.7347 913.803 37.7275C913.803 51.7203 925.13 63.0977 939.061 63.0977Z" fill="#D7432A"/>
<path id="Vector_7" d="M624.631 215.581C624.631 215.581 625.217 215.45 625.477 215.45C625.217 215.45 624.956 215.516 624.696 215.581H624.631Z" fill="#D7432A"/>
<path id="Vector_8" d="M639.345 139.078C639.345 139.078 639.345 139.209 639.278 139.274C639.278 139.274 639.278 139.144 639.345 139.078Z" fill="#D7432A"/>
<path id="Vector_9" d="M1118.87 78.922C1090.09 65.91 1070.3 75.4565 1059.17 85.1992C1054.87 88.9262 1048.17 87.5531 1046.09 82.2568C1040.94 69.3755 1027.86 73.4295 1024.54 74.018C1019.39 74.9988 1000.58 82.3222 994.201 79.6413C987.821 76.9604 984.696 78.5297 984.306 91.3456C984.11 97.4265 986.194 99.9766 988.407 101.023C991.532 102.461 993.55 105.665 993.55 109.131V183.345C993.55 190.211 992.704 197.011 990.881 203.615L989.839 207.538C989.449 209.042 990.555 210.48 992.053 210.48H1040.29C1044.98 210.48 1048.75 206.557 1048.56 201.784L1045.56 136.724C1045.56 136.724 1042.24 117.5 1064.51 101.742C1083.13 88.5339 1081.69 115.931 1081.69 115.931L1083.65 182.953C1083.84 189.295 1083.19 195.638 1081.82 201.849L1080.52 207.603C1080.2 209.042 1081.3 210.415 1082.8 210.415H1135.92C1140.67 210.415 1144.45 206.427 1144.13 201.653L1140.09 130.512C1140.09 130.512 1139.11 88.0762 1118.87 78.922Z" fill="#D7432A"/>
<path id="Vector_10" d="M289.563 143.917C274.851 151.763 245.295 165.625 221.404 165.233C216.652 165.168 214.243 160.46 216.066 156.994H215.35L293.013 130.905C296.854 129.597 299.002 125.413 297.7 121.555C291.06 101.612 269.903 54.1408 210.142 77.9416C174.597 92.1306 165.093 138.424 171.798 165.495C176.094 195.115 212.355 213.162 241.975 213.489C281.295 213.881 297.896 193.938 298.872 190.342C299.588 187.792 299.263 163.141 299.068 148.886C299.002 144.505 293.86 141.825 289.693 143.982L289.563 143.917ZM214.568 136.855C214.764 128.813 223.552 117.043 234.098 115.278C246.923 113.12 252.391 120.312 254.149 123.516C254.539 124.301 254.149 125.216 253.368 125.543L216.391 138.686C215.219 139.078 214.568 138.032 214.568 136.855Z" fill="#D7432A"/>
<path id="Vector_11" d="M1284.74 148.821C1284.68 144.44 1279.53 141.759 1275.37 143.917C1260.65 151.763 1231.1 165.625 1207.21 165.233C1202.45 165.168 1200.05 160.46 1201.87 156.994H1201.15L1278.82 130.905C1282.72 129.597 1284.81 125.413 1283.5 121.555C1276.86 101.612 1255.71 54.1408 1195.94 77.9416C1160.4 92.1306 1150.9 138.424 1157.6 165.495C1161.9 195.115 1198.16 213.162 1227.71 213.489C1267.03 213.881 1283.63 193.938 1284.61 190.342C1285.33 187.792 1285 163.141 1284.81 148.886L1284.74 148.821ZM1200.37 136.855C1200.57 128.813 1209.36 117.043 1219.9 115.278C1232.73 113.12 1238.19 120.312 1239.95 123.516C1240.34 124.301 1239.95 125.216 1239.17 125.543L1202.19 138.686C1201.02 139.078 1200.37 138.032 1200.37 136.855Z" fill="#D7432A"/>
<g id="Group_2">
<path id="Vector_12" d="M651.907 109.785C651.321 109.328 649.954 108.216 649.368 106.385C648.391 103.508 650.019 101.089 650.279 100.696C651.191 98.6041 651.256 96.904 650.409 96.3809C649.628 95.9232 648.326 96.5117 648.196 96.5771C644.42 98.2771 646.894 104.423 642.597 108.281C641.296 109.458 639.733 110.047 638.822 110.308C636.869 111.747 635.176 112.728 634.069 113.316C629.252 115.997 627.104 117.109 622.937 119.332C621.896 119.92 621.18 120.705 620.659 121.686C619.617 123.647 620.659 126.001 618.055 127.113C616.037 129.074 613.954 131.428 613.693 134.175C613.628 135.221 613.889 136.267 614.214 137.248C608.095 138.163 610.438 149.802 612.391 153.137C612.587 153.529 612.782 153.987 612.717 154.444C612.456 159.545 613.238 164.645 618.901 167.26C619.227 172.753 622.026 176.088 628.666 175.695C631.075 176.349 633.939 179.488 636.413 179.292C636.543 179.292 636.608 179.226 636.673 179.226C636.804 179.226 636.869 179.226 636.999 179.292C637.455 180.468 639.147 180.992 640.775 180.861C641.296 180.861 641.816 180.73 642.272 180.599C654.576 177.199 662.648 176.676 666.945 165.168C672.153 157.91 671.241 139.471 669.484 131.232C666.294 120.051 662.388 116.389 651.842 109.72L651.907 109.785ZM624.76 130.055C624.76 130.055 624.174 130.709 623.849 131.036C623.654 131.298 623.458 131.624 623.263 131.886C623.133 132.213 623.003 132.474 622.872 132.801C622.677 133.39 622.547 133.978 622.417 134.567C622.156 136.005 621.961 137.379 621.896 138.817C621.896 138.817 621.896 138.752 621.896 138.686C621.896 138.817 621.896 138.882 621.896 139.013C621.896 139.013 621.896 139.079 621.896 139.144C621.896 139.144 621.896 139.144 621.896 139.209C621.896 139.209 621.896 139.209 621.896 139.275C621.896 139.34 621.896 139.405 621.896 139.471C621.896 140.059 621.896 140.582 621.831 141.171C621.701 143.329 621.635 145.552 621.44 147.71C621.44 148.233 621.18 148.69 620.854 149.017C620.854 149.279 620.854 149.475 620.789 149.737C620.789 150.325 620.789 150.914 620.789 151.567C620.789 152.221 620.919 152.81 620.984 153.464C621.115 154.183 621.245 154.837 621.375 155.556C621.635 156.798 621.766 158.041 622.026 159.283C622.026 159.283 622.026 159.218 622.026 159.152C622.091 159.479 622.156 159.872 622.221 160.199C622.221 160.329 622.286 160.46 622.352 160.591C622.482 161.049 622.221 161.506 621.766 161.768C621.57 161.833 621.44 161.899 621.245 161.899C620.724 161.899 620.203 161.702 620.008 161.31C619.552 160.525 619.227 159.675 618.836 158.825C618.836 158.825 618.836 158.956 618.901 158.956C618.641 158.433 618.38 157.91 618.12 157.322C617.925 156.798 617.729 156.341 617.534 155.818C617.144 154.706 616.948 153.594 616.688 152.483C616.493 151.437 616.297 150.325 616.102 149.214C615.842 147.971 615.581 146.729 615.321 145.486C615.191 144.898 615.516 144.44 615.972 144.048C616.167 143.917 616.232 143.721 616.493 143.656C616.493 143.525 616.493 143.394 616.493 143.198C616.493 142.936 616.493 142.675 616.493 142.413C616.623 140.713 616.753 139.013 616.948 137.313C617.144 136.136 617.339 134.894 617.664 133.717C617.99 132.671 618.315 131.494 618.966 130.513C619.292 130.055 619.617 129.597 620.008 129.205C620.333 128.813 620.789 128.486 621.18 128.159C621.961 127.57 622.742 126.982 623.588 126.524C624.239 126.132 624.956 125.74 625.607 125.282C625.607 125.282 625.672 125.282 625.737 125.282C625.737 125.282 625.867 125.282 625.867 125.217C626.127 125.02 626.388 124.89 626.583 124.693C627.039 124.432 627.429 124.105 627.885 123.778C627.885 123.778 627.95 123.713 628.015 123.647C628.08 123.582 628.211 123.516 628.276 123.386C628.276 123.386 628.471 123.19 628.536 123.124C628.731 122.928 628.927 122.666 629.122 122.47C629.122 122.47 629.122 122.47 629.122 122.405C629.187 122.274 629.317 122.078 629.382 121.947C629.382 121.947 629.382 121.882 629.447 121.816C629.447 121.816 629.447 121.816 629.447 121.882C629.447 121.882 629.447 121.882 629.447 121.816C629.447 121.816 629.447 121.816 629.447 121.882C629.447 121.816 629.447 121.751 629.512 121.686C629.512 121.686 629.512 121.62 629.512 121.555C629.512 121.555 629.512 121.555 629.512 121.62C629.578 121.424 629.643 121.228 629.708 121.032C629.708 120.901 629.708 120.77 629.708 120.639C629.708 120.574 629.708 120.443 629.708 120.378C629.708 120.378 629.708 120.313 629.708 120.247C629.708 120.182 629.708 120.116 629.643 120.051C629.643 120.051 629.643 120.051 629.643 119.986C629.187 119.397 629.512 118.612 630.229 118.286C630.489 118.155 630.749 118.22 631.075 118.286C631.14 118.286 631.27 118.286 631.335 118.286C631.596 118.416 631.856 118.547 632.051 118.809C632.247 119.136 632.312 119.528 632.377 119.92C632.377 120.051 632.377 120.116 632.377 120.247C632.377 120.639 632.377 121.032 632.377 121.359C632.247 122.536 631.661 123.647 630.88 124.563C629.708 126.001 628.145 127.113 626.713 128.355C626.062 128.944 625.346 129.467 624.76 130.121V130.055ZM635.502 133.717C635.502 133.717 635.502 134.175 635.502 134.436C635.437 134.828 635.371 135.221 635.241 135.678C635.111 136.463 634.916 137.182 634.786 138.032C634.786 137.902 634.786 137.771 634.851 137.705C634.655 138.555 634.46 139.471 634.265 140.321C634.265 140.19 634.265 140.059 634.33 139.994C634.33 140.19 634.265 140.386 634.2 140.517C634.004 141.498 633.809 142.479 633.679 143.459C633.549 144.571 633.418 145.617 633.353 146.729C633.353 146.729 633.353 146.729 633.353 146.794C633.353 146.86 633.353 146.925 633.353 147.056C633.353 146.99 633.353 146.925 633.353 146.86C633.223 148.429 633.353 150.064 633.418 151.633C633.418 152.941 633.614 154.183 633.418 155.491C633.288 156.798 633.028 158.106 632.247 159.218C632.051 159.61 631.726 159.937 631.465 160.264C631.4 160.329 631.335 160.46 631.27 160.525C631.27 160.656 631.14 160.722 631.075 160.852C631.01 161.049 630.88 161.245 630.814 161.506C630.814 161.702 630.749 161.833 630.684 162.029C630.684 162.356 630.619 162.683 630.554 163.01C630.554 163.01 630.554 163.01 630.554 163.076C630.554 163.403 630.554 163.664 630.554 163.991C630.554 163.991 630.554 163.926 630.554 163.86C630.554 164.122 630.554 164.383 630.554 164.71C630.554 164.841 630.554 164.906 630.554 165.037C630.554 165.233 630.619 165.429 630.684 165.626C630.749 166.149 630.88 166.737 630.945 167.26C631.01 167.587 631.075 167.98 631.14 168.307C631.27 168.764 631.4 169.157 631.531 169.614C631.661 170.137 631.986 170.726 631.791 171.249C631.661 171.641 631.205 171.968 630.749 171.968C630.619 171.968 630.424 171.968 630.294 171.903C629.968 171.772 629.708 171.576 629.578 171.249C629.578 171.118 629.578 170.987 629.578 170.857C629.578 170.857 629.578 170.791 629.578 170.726C629.578 170.595 629.513 170.464 629.447 170.334C629.187 169.614 628.796 168.83 628.536 168.11C628.211 167.26 627.95 166.41 627.69 165.495C627.299 163.991 627.039 162.552 627.104 160.983C627.104 160.199 627.234 159.479 627.56 158.76C627.755 158.302 627.95 157.845 628.08 157.387C628.145 157.125 628.211 156.798 628.276 156.537C628.276 156.079 628.341 155.621 628.341 155.164C628.341 153.398 627.885 151.698 627.69 149.933C627.559 148.952 627.494 147.906 627.429 146.925C627.429 146.075 627.429 145.225 627.494 144.375C627.56 142.609 627.82 140.909 628.211 139.209C628.601 137.248 629.057 135.352 629.512 133.455C629.838 132.082 631.531 131.232 633.093 131.494C633.223 131.494 633.288 131.559 633.418 131.624C634.069 131.821 634.59 132.148 634.981 132.671C635.111 132.801 635.111 132.998 635.176 133.194C635.176 133.325 635.306 133.521 635.371 133.651C635.371 133.717 635.371 133.848 635.371 133.913L635.502 133.717ZM651.972 154.052C652.232 153.398 652.493 152.744 652.818 152.091C653.079 151.567 653.404 150.979 653.73 150.456C653.73 150.456 653.73 150.456 653.73 150.391C653.795 150.26 653.86 150.129 653.925 149.998C653.925 150.064 653.86 150.194 653.795 150.26C654.771 148.298 655.227 146.14 656.008 144.113C656.333 143.263 656.724 142.413 657.05 141.563C657.115 141.367 657.18 141.236 657.31 141.04C657.766 140.125 658.352 139.209 658.937 138.359C658.937 138.359 658.937 138.425 658.937 138.49C658.937 138.49 658.938 138.425 659.003 138.359C659.003 138.359 659.003 138.425 658.937 138.49C658.937 138.49 659.003 138.359 659.003 138.294C659.198 137.967 659.328 137.575 659.523 137.248C659.654 136.855 659.784 136.398 659.914 136.005C659.914 135.809 659.979 135.548 660.044 135.352C660.044 135.025 660.044 134.698 660.044 134.305C660.044 133.978 659.914 133.651 659.849 133.325C659.654 132.736 659.458 132.148 659.263 131.624C658.807 130.644 658.352 129.663 657.896 128.747C657.44 127.963 656.919 127.244 656.399 126.59C655.878 125.87 655.422 125.151 655.032 124.367C654.576 123.386 654.315 122.34 654.055 121.293C653.925 120.639 653.73 119.92 653.599 119.266C653.599 119.266 653.599 119.201 653.599 119.136C653.469 119.005 653.469 118.874 653.404 118.743C653.404 118.612 653.274 118.547 653.274 118.482C653.274 117.762 653.925 117.239 654.706 117.239C655.292 117.239 655.813 117.566 656.073 118.024C656.268 118.416 656.333 118.874 656.464 119.266C656.659 119.986 656.919 120.639 657.18 121.359C657.18 121.359 657.18 121.359 657.115 121.293C657.245 121.62 657.375 122.013 657.505 122.34C657.505 122.34 657.505 122.405 657.505 122.47C657.505 122.47 657.505 122.47 657.505 122.405C657.635 122.666 657.766 122.928 657.896 123.19C658.091 123.516 658.287 123.778 658.482 124.105C659.263 124.955 660.044 125.87 660.76 126.786C661.411 127.636 661.997 128.551 662.518 129.467C663.104 130.644 663.69 131.755 663.95 132.998C664.276 134.305 664.341 135.678 664.08 137.052C663.95 137.575 663.82 138.098 663.625 138.621C663.625 138.621 663.625 138.686 663.625 138.752C663.625 138.752 663.625 138.882 663.56 138.948C663.429 139.34 663.234 139.667 663.039 140.059C662.778 140.517 662.518 140.909 662.258 141.302C661.997 141.759 661.802 142.152 661.541 142.609C661.021 143.852 660.63 145.16 660.239 146.467C660.239 146.533 660.239 146.598 660.239 146.663C659.849 148.037 659.458 149.41 659.003 150.717C658.612 151.764 658.026 152.81 657.44 153.791C657.18 154.379 656.919 154.968 656.659 155.556C656.138 157.06 655.683 158.629 655.292 160.133C655.032 160.983 654.185 161.506 653.209 161.572C652.948 161.572 652.753 161.572 652.493 161.572C652.167 161.506 651.907 161.376 651.646 161.179C651.06 160.722 650.67 160.068 650.8 159.414C651.126 157.714 651.516 155.883 652.167 154.248L651.972 154.052ZM637.52 140.975C637.259 140.582 637.259 140.19 637.455 139.732C637.455 139.667 637.585 139.602 637.65 139.536C637.78 139.405 637.91 139.275 638.041 139.144C638.171 139.079 638.301 138.948 638.496 138.948C638.561 138.621 638.561 138.229 638.626 137.902C638.887 136.332 639.147 134.763 639.277 133.128C639.277 131.886 639.408 130.578 639.603 129.336C639.603 129.205 639.603 129.074 639.603 128.944C639.863 127.57 640.124 126.197 640.254 124.824C640.384 123.451 640.514 122.078 640.71 120.705C640.84 119.855 640.97 119.07 641.23 118.22C641.491 117.435 641.816 116.651 642.207 115.866C642.402 115.539 642.663 115.278 642.988 115.147C643.053 115.147 643.118 115.082 643.183 115.016C643.509 114.885 643.834 114.755 644.225 114.755C644.616 114.755 645.071 114.755 645.462 114.951C646.634 115.474 647.154 116.782 646.569 117.828C646.308 118.22 646.113 118.612 645.918 118.939C645.918 119.07 645.852 119.136 645.787 119.266C645.657 119.659 645.462 119.986 645.332 120.378C644.941 121.751 644.681 123.124 644.355 124.563C644.29 124.89 644.225 125.217 644.095 125.543C643.769 126.851 643.444 128.224 643.118 129.532C642.988 129.924 642.923 130.317 642.793 130.709C642.402 132.671 642.142 134.632 641.751 136.594C641.621 137.182 641.491 137.771 641.361 138.359C641.23 138.882 641.165 139.405 640.97 139.929C640.71 140.582 640.514 141.171 639.733 141.432C639.603 141.432 639.408 141.498 639.212 141.563C639.082 141.563 638.952 141.563 638.887 141.563C638.887 141.563 638.822 141.563 638.757 141.563C638.171 141.563 637.65 141.302 637.39 140.909L637.52 140.975ZM640.384 163.991C640.384 163.991 640.059 163.991 639.863 163.991C639.343 163.926 638.887 163.664 638.496 163.337C638.301 163.141 638.106 162.945 637.975 162.749C637.975 162.683 637.845 162.618 637.845 162.487C637.715 162.16 637.65 161.833 637.715 161.441C638.041 159.61 638.431 157.845 638.952 156.014C638.952 155.948 638.952 155.883 639.017 155.752C639.147 155.425 639.277 155.098 639.408 154.771C639.603 154.379 639.733 153.921 639.928 153.529C640.254 152.81 640.514 152.091 640.84 151.437C641.491 149.867 642.207 148.298 643.183 146.794C643.639 146.075 644.16 145.421 644.681 144.767C645.201 144.113 645.787 143.525 646.373 142.936C646.503 142.806 646.634 142.609 646.699 142.479C646.699 142.479 646.959 142.152 647.089 141.956C647.35 141.498 647.61 141.04 647.871 140.582C648.261 139.732 648.587 138.882 648.847 138.032C648.977 137.575 649.107 137.052 649.173 136.594C649.173 136.005 649.303 135.417 649.303 134.763C649.303 134.763 649.303 134.763 649.303 134.698C649.303 133.455 649.173 132.213 649.042 130.971C649.042 130.317 648.977 129.597 648.912 128.944C648.912 128.42 649.303 128.028 649.889 127.963C650.149 127.963 650.409 127.963 650.67 128.159C650.865 128.29 650.995 128.551 651.06 128.747C651.06 128.878 651.06 128.944 651.06 129.074C651.06 130.186 651.321 131.298 651.386 132.409C651.516 133.455 651.646 134.501 651.581 135.548C651.581 137.117 651.321 138.686 650.8 140.19C650.54 140.909 650.279 141.629 650.019 142.348C649.824 142.871 649.563 143.459 649.238 143.917C648.587 144.963 647.805 145.944 647.089 146.99C647.089 146.99 647.089 147.056 647.089 147.121C646.373 148.298 645.722 149.475 645.332 150.717C645.332 150.848 645.332 150.914 645.267 151.044C645.267 151.044 645.267 151.175 645.201 151.241C645.006 151.96 644.811 152.744 644.616 153.529C644.55 153.921 644.42 154.314 644.29 154.706C644.29 154.706 644.29 154.837 644.29 154.902C643.834 157.322 643.379 159.741 642.923 162.095C642.728 163.141 641.751 163.926 640.579 163.991H640.384ZM665.382 154.118C665.382 154.118 665.057 154.771 664.927 155.098C664.927 155.229 664.862 155.425 664.796 155.556C664.666 156.21 664.601 156.929 664.601 157.583C664.601 158.237 664.601 158.825 664.601 159.479C664.601 160.133 664.601 160.852 664.601 161.506C664.601 161.637 664.601 161.768 664.536 161.964C664.536 162.356 664.406 162.683 664.341 163.076C664.341 163.272 664.211 163.403 664.145 163.599C664.015 163.991 663.885 164.383 663.625 164.71C663.169 165.43 662.583 166.018 661.867 166.541C661.672 166.672 661.476 166.803 661.346 166.933C661.346 166.933 661.216 166.999 661.151 167.064C660.825 167.326 660.5 167.587 660.174 167.849C659.979 168.045 659.849 168.241 659.654 168.372C659.654 168.372 659.654 168.372 659.654 168.437C659.654 168.437 659.654 168.503 659.588 168.568C659.588 168.568 659.588 168.633 659.523 168.699C659.393 168.83 659.263 169.026 659.133 169.157C658.417 170.007 657.635 170.857 656.724 171.51C655.487 172.491 654.055 173.211 652.558 173.799C651.06 174.388 649.433 174.78 647.871 175.238C647.48 175.368 647.024 175.434 646.569 175.564C646.048 175.695 645.462 175.761 644.941 175.826C644.941 175.826 644.941 175.826 644.876 175.826C644.746 175.826 644.681 175.826 644.551 175.826C644.095 175.826 643.704 175.826 643.248 175.695C643.118 175.695 642.988 175.695 642.793 175.564C642.728 175.564 642.663 175.564 642.597 175.499C642.337 175.434 642.077 175.303 641.881 175.107C641.881 175.107 641.816 175.041 641.751 174.976C641.426 174.649 641.23 174.257 641.23 173.799C641.23 173.799 641.23 173.734 641.23 173.668C641.23 173.407 641.361 173.211 641.491 172.949C642.012 172.23 642.923 172.034 643.769 172.23C644.03 172.295 644.29 172.426 644.485 172.622C644.485 172.622 644.616 172.622 644.681 172.622C644.941 172.622 645.201 172.491 645.397 172.426C645.462 172.426 645.592 172.426 645.657 172.361C645.918 172.295 646.113 172.23 646.373 172.164C647.22 171.903 648.001 171.576 648.847 171.314H648.977C649.042 171.314 649.173 171.314 649.238 171.249C649.173 171.249 649.107 171.249 649.042 171.314C649.107 171.314 649.173 171.314 649.238 171.249C649.238 171.249 649.173 171.249 649.107 171.249C649.824 170.922 650.54 170.66 651.256 170.268C651.777 169.941 652.232 169.68 652.753 169.353C653.079 169.091 653.404 168.83 653.73 168.633C653.86 168.503 653.99 168.307 654.12 168.176C654.315 167.98 654.576 167.718 654.771 167.522C655.097 167.13 655.487 166.737 655.813 166.345C656.659 165.364 657.701 164.579 658.742 163.795C658.742 163.795 658.612 163.86 658.612 163.926C658.807 163.795 658.937 163.664 659.133 163.533C659.198 163.468 659.328 163.337 659.393 163.272C659.393 163.272 659.458 163.141 659.523 163.076C659.523 163.01 659.588 162.879 659.654 162.814C659.719 162.749 659.654 162.618 659.719 162.552C659.784 162.16 659.849 161.833 659.914 161.441C660.044 159.414 660.109 157.387 660.63 155.425C660.89 154.444 661.346 153.529 661.867 152.614C662.388 151.764 662.974 150.979 663.364 150.129C663.56 149.737 664.015 149.41 664.471 149.279C664.992 149.148 665.513 149.148 665.968 149.344C666.815 149.737 667.27 150.652 666.88 151.371C666.424 152.352 665.838 153.268 665.317 154.248L665.382 154.118ZM666.945 156.864C666.945 156.864 666.945 156.733 666.945 156.668C666.945 156.733 666.945 156.798 666.88 156.929L666.945 156.864Z" fill="#D7432A"/>
<path id="Vector_13" d="M728.529 111.419C727.943 109.523 727.422 107.562 726.771 105.731C723.516 98.342 719.806 91.2149 713.621 85.9185C711.278 83.7608 709.259 81.4068 707.111 79.1183C703.27 75.8489 699.95 74.2143 696.37 71.2065C694.807 69.8987 692.659 69.3103 690.706 69.5718C688.688 68.5256 686.67 67.5448 684.847 66.2371C682.764 65.3217 680.876 63.4908 678.598 63.2293C678.402 63.2293 678.207 63.36 678.012 63.36C676.384 62.6408 673.91 61.7908 670.786 61.66C665.252 61.4638 662.843 64.6678 656.008 65.9755C653.664 66.4332 651.711 66.4332 647.871 66.3678C638.106 66.3678 635.176 64.537 626.909 64.6024C624.76 64.6024 621.505 64.7986 617.469 65.5178C613.303 67.1525 607.183 69.5718 599.892 72.7104C588.044 77.8759 586.156 79.1837 584.724 80.426C579.386 84.8723 576.391 90.2341 572.355 97.2959C570.858 99.9767 569.36 102.919 567.928 106.188C562.916 118.024 561.874 127.57 560.832 137.967C559.27 153.071 560.051 169.679 563.632 178.441C565.52 183.149 567.928 187.661 570.597 192.042C571.118 192.957 571.704 193.938 572.355 194.788C574.243 197.73 576.131 200.607 578.149 203.419C582.055 208.519 587.914 211.723 594.163 213.096C596.637 215.581 602.626 216.235 605.295 216.954C609.136 217.085 615.256 217.019 622.612 215.842C623.393 215.712 624.044 215.581 624.695 215.45C624.89 215.319 625.086 215.254 625.281 215.123C625.346 215.188 625.411 215.254 625.476 215.319C635.567 213.358 638.952 210.808 646.959 211.331C655.292 211.854 656.268 214.927 664.927 216.431C669.223 217.15 674.822 217.346 681.527 215.908C702.88 214.665 724.102 201.588 732.174 181.383C737.057 169.156 736.862 154.509 735.755 141.563C734.909 131.166 732.695 120.901 728.529 111.354V111.419ZM702.88 191.453C702.815 191.453 702.749 191.584 702.684 191.649C702.684 191.649 702.815 191.518 702.815 191.453H702.88ZM656.073 201.326C654.25 199.365 653.013 197.534 651.581 196.422C650.865 194.199 650.344 191.911 648.912 189.949C648.522 189.491 647.35 189.753 646.829 189.949C646.373 190.08 645.918 190.211 645.527 190.472C645.332 190.603 645.071 190.734 645.071 190.995C645.071 193.153 645.006 195.245 644.941 197.403C644.29 197.926 643.509 198.515 642.532 199.299C637.259 203.615 637.52 203.942 635.567 205.315C635.046 205.707 634.525 206.034 633.939 206.296C622.807 211.984 606.142 209.434 606.142 209.434C600.999 209.304 597.158 208.061 596.051 207.669C588.63 205.053 584.268 200.28 581.469 197.207C579.321 194.853 577.172 191.911 575.285 188.249C571.704 181.449 567.798 172.752 568.71 152.613C569.23 140.909 567.993 128.943 570.793 117.37C572.29 109.392 576.847 102.723 581.209 95.9881C585.766 86.7686 591.364 81.9953 595.596 79.3145C596.832 78.5298 598.525 77.7452 599.241 77.4182C606.923 73.6258 613.107 71.9257 614.865 71.468C618.641 70.4872 622.286 69.441 627.364 69.3756C633.614 69.2449 647.48 68.1333 651.256 75.1297C652.753 77.9413 652.297 81.5376 652.167 82.5838C651.451 87.8801 648.001 90.9533 649.107 92.3264C649.498 92.8495 650.605 93.1765 653.599 92.3264C654.901 89.2533 655.813 86.7032 656.333 84.9377C658.482 78.4644 659.068 74.6066 662.909 70.9449C663.039 70.8142 663.169 70.6834 663.299 70.5526C667.596 66.7602 676.124 66.8256 680.551 70.618C682.113 71.9911 683.48 75.1297 684.847 81.7338C689.795 105.077 692.008 102.723 692.789 114.166C693.31 121.227 692.659 125.412 694.612 133.455C695.523 137.247 696.109 138.032 696.435 141.04C697.281 148.101 695.393 152.94 693.896 158.629C691.097 169.418 693.505 170.595 691.162 179.683C689.599 185.503 686.54 194.265 679.704 204.073C674.431 207.996 670.004 208.388 667.921 208.454C660.565 208.454 660.565 206.296 656.008 201.457L656.073 201.326Z" fill="#D7432A"/>
<path id="Vector_14" d="M646.568 184.849C644.55 184.849 643.768 187.464 646.242 187.464C648.26 187.464 649.041 184.849 646.568 184.849Z" fill="#D7432A"/>
</g>
</g>
</g>
</g>
<defs>
<clipPath id="clip0_37_21425">
<rect width="1285" height="218" fill="white"/>
</clipPath>
</defs>
</svg>
