<svg width="98" height="100" viewBox="0 0 98 100" fill="none" xmlns="http://www.w3.org/2000/svg">
<g id="@S-Video-Icon">
<path id="Subtract" d="M61.0059 0.0230913C62.3832 -0.121924 62.5017 0.427272 63.3164 1.3561C63.9395 2.06619 64.5921 2.95972 65.2617 3.61782C66.2734 4.61133 67.2865 5.54104 68.1885 6.64614C69.0803 7.67274 70.2343 8.43132 70.5557 9.87465C70.5898 10.0274 70.605 10.0031 70.5244 10.1188C69.7697 10.0606 70.0487 10.5949 70.1836 11.1334C68.686 12.4188 66.7892 13.8015 65.2188 15.0143C64.4612 15.6151 63.7489 16.2982 62.9365 16.8297C60.7339 18.2235 58.6657 19.5667 56.5801 21.1393C54.8008 22.481 52.371 23.7779 50.6748 25.2194C48.0795 27.4247 45.4765 29.2637 42.7168 31.234C40.5789 32.7744 38.426 34.2953 36.2598 35.7956C33.8007 37.4649 31.2446 38.8684 28.7891 40.5387C27.9698 41.0314 27.2099 41.7811 26.4102 42.2809C24.5197 43.4623 22.7538 44.6856 21.0186 46.0875C20.2108 46.74 18.904 47.2893 18.25 48.0983C18.4922 48.9103 18.4926 49.1028 18.4961 49.9645C19.5717 49.9046 20.8251 49.886 21.8838 49.7594C24.3603 49.4632 26.8205 49.2077 29.3086 49.0241C30.1523 48.9614 31.0458 48.7279 31.9004 48.6725C34.8163 48.3499 37.7473 48.2269 40.6494 47.7887C42.8508 47.441 45.0391 47.436 47.2559 47.2487C47.9387 47.2066 48.7038 46.9738 49.377 46.9401C51.555 46.8313 53.6505 46.4768 55.8037 46.1784L64.0137 45.0778L71.1484 44.2272C73.5717 43.936 75.7415 43.6939 78.0947 42.9694C78.8918 42.7242 81.8162 42.8815 82.4941 43.3532C82.7537 43.5365 82.9516 43.7951 83.0596 44.0944C83.2885 44.7135 83.2378 45.5752 83.3525 46.2428C84.1364 50.8064 84.1586 55.5462 84.1133 60.1676C84.1043 61.115 84.2262 62.0558 84.2637 62.9987C84.304 64.0243 84.2446 65.0566 84.333 66.0817C84.422 67.6448 84.7466 69.1611 84.7578 70.7321C84.7808 73.8871 85.4628 76.9822 85.5361 80.1227C85.5261 81.6528 85.4848 83.2166 85.3857 84.7428C85.3034 86.0115 84.9573 86.7294 85.2002 88.0338C85.1034 88.1811 85.0016 88.3067 84.8936 88.445C83.8836 89.6123 83.8157 89.627 82.498 90.3395C79.7686 91.8159 76.971 91.012 74.0557 91.5954C73.47 91.7124 72.7106 91.6917 72.0908 91.7936C70.714 92.0209 69.2447 92.0482 67.874 92.2565L63.9873 92.8288C63.652 92.8775 63.2982 92.9254 62.9668 92.987C62.0207 93.1633 61.0815 93.1091 60.1191 93.1432L54.6182 93.3092L42.7656 93.6208C41.158 93.6527 39.4794 94.0576 37.8125 93.8063C37.2276 93.7184 36.3651 93.952 35.791 93.9088C34.5781 93.8182 33.451 93.9421 32.2461 93.9948C27.5614 93.7764 22.9638 94.1279 18.2715 94.1676C16.5723 94.2628 15.2125 93.7897 14.8008 91.9606C14.3548 89.9802 14.4888 87.7737 14.2324 85.7956C13.6859 81.5773 13.8576 77.4598 13.7725 73.236L13.5029 58.986C13.4729 56.8097 13.3677 54.6143 13.4033 52.4352C12.1699 51.171 11.6042 50.3881 12.6045 48.695C11.3299 47.4274 9.69991 44.7023 8.77344 43.1002C8.22554 42.1528 7.61126 41.1717 7.07227 40.2204C7.30145 38.3629 8.87004 37.2492 10.3164 36.2711C11.6087 35.3973 12.9018 34.5476 14.1846 33.6579C17.0643 31.6723 19.9154 29.6456 22.7373 27.5788C23.5424 26.9774 24.2406 26.3331 25.0098 25.7409C26.3856 24.6399 27.8715 23.5795 29.21 22.4372C32.1092 19.9628 35.0932 17.6667 38.1709 15.4225C38.7948 14.9676 39.5141 14.5656 40.1562 14.112L51.4336 6.12465C52.9581 5.02265 54.5133 3.90425 56.04 2.80336C56.9229 2.1668 57.6652 1.15692 58.6299 0.571919C59.3978 0.106361 60.149 0.110994 61.0059 0.0230913ZM69.708 78.2418C69.7044 78.2423 69.7009 78.2428 69.6973 78.2438C68.3542 78.3037 66.9329 78.2724 65.582 78.2858L57.2793 78.444C55.6535 78.4888 54.1314 78.5073 52.5039 78.6305C51.0354 78.7413 49.4961 78.6865 48.0254 78.8942C43.7013 79.5067 39.3627 79.3652 35.0723 80.2711C34.1599 80.4635 32.9328 80.3776 31.9854 80.5387C27.7853 81.219 23.5111 81.5893 19.3418 82.4196C18.9954 82.4883 18.5406 82.4606 18.4287 82.8688C18.9955 83.7717 24.8213 82.9612 26.0615 82.9127L40.8174 82.0094L47.5703 81.6696C48.276 81.6411 49.0153 81.6749 49.7109 81.6325C55.2385 81.268 60.7604 80.8088 66.2725 80.2545C67.7246 80.114 69.127 79.8485 70.5674 79.6715C72.3791 79.4493 74.2586 79.5045 76.0625 79.2409C76.443 79.1853 77.5297 78.8816 77.4189 78.3834C77.0921 78.1332 75.6784 78.2807 75.1445 78.2672C73.3369 78.2236 71.5151 78.1954 69.708 78.2418ZM62.6094 70.0602C61.2876 70.0725 59.8829 69.9184 58.5605 70.0114C57.5254 70.0852 56.4179 70.0507 55.4131 70.1403C54.129 70.255 52.9489 70.1675 51.7051 70.2409C44.2907 70.7017 36.8827 71.2674 29.4844 71.9381C26.9744 72.1665 24.4862 72.3003 21.9873 72.7067C20.9997 72.8673 19.9494 72.8692 18.9609 73.0915C18.2637 73.1155 17.683 73.9359 18.3281 74.4118C18.616 74.6239 20.3392 74.6006 20.7461 74.5788C25.4045 74.3268 30.0987 73.8453 34.7646 73.7965C37.2449 73.7126 39.7248 73.6068 42.2031 73.4791C43.671 73.3907 45.0406 73.1959 46.5205 73.2653C47.0093 73.2882 47.8308 73.1538 48.374 73.1325L57.875 72.8327C60.8752 72.6905 63.8747 72.528 66.8721 72.3444L71.7236 72.0348C73.1372 71.9363 74.3754 71.9681 75.6865 71.3473C75.7861 70.6081 75.8276 70.4304 75.1123 70.0856C73.1668 70.4461 71.8677 70.1904 69.9199 70.1686C67.4778 70.1406 65.0509 70.0367 62.6094 70.0602ZM77.2129 49.319C76.7511 49.0308 75.4621 49.0249 74.9463 49.0719C74.4785 49.1161 74.0043 49.156 73.5371 49.2086C71.7817 49.4069 70.1305 49.8918 68.3594 50.0895C63.5367 50.6264 58.6932 51.0454 53.8975 51.7877C53.0445 51.9378 52.167 52.2323 51.3096 52.3336C48.7553 52.6354 46.0531 52.7928 43.5439 53.3952C41.0205 54.0013 38.6261 53.9722 36.0635 54.2633C35.2476 54.3563 34.4228 54.526 33.6045 54.6178C30.7701 54.849 27.9256 54.8409 25.084 55.0289C23.5055 55.1336 21.8628 55.0893 20.2783 55.1559C19.6864 55.1805 19.0927 55.1608 18.499 55.1989C18.4973 55.9394 18.6389 56.6899 18.6045 57.4254C18.5766 58.0193 18.4649 58.612 18.415 59.2047C18.3073 60.4851 17.8797 65.9122 18.9062 66.7301C19.2787 67.0256 20.6301 66.6811 21.1318 66.6696C22.9017 66.5033 24.7986 66.528 26.5889 66.4245C31.2746 66.1535 35.979 66.3899 40.668 66.1178C45.9597 65.8446 51.2874 65.7038 56.5596 65.1452C57.1069 65.087 57.6668 64.9326 58.2197 64.8883C62.0872 64.7383 65.9288 63.8322 69.8008 63.6989C71.8851 63.6267 73.4796 63.5855 75.4922 62.9362C76.8525 62.4973 77.0957 62.5777 77.2939 61.1149C77.4473 59.9269 77.4964 58.7269 77.4404 57.5299C77.4113 56.8587 77.304 55.912 77.3438 55.2633C77.4334 53.7906 77.8208 52.1747 77.6904 50.6969C77.6633 50.3895 77.4552 49.4712 77.2129 49.319ZM37.0166 55.7457C37.1465 55.9097 37.0757 57.9505 37.083 58.3424C37.1166 60.1098 36.629 62.2475 36.9766 63.987C35.4866 63.9692 34.4074 64.1744 33.0176 64.2096C31.4507 64.2179 29.8327 64.0813 28.2676 64.2184C25.7367 64.4412 23.1124 64.6271 20.5781 64.3102L20.46 63.7604C20.3435 63.1379 20.3909 62.354 20.3867 61.7077C20.3758 60.05 20.3309 57.7495 19.6611 56.2448C21.7665 56.9031 26.3504 56.416 28.6514 56.3073C30.4029 56.2244 32.2343 56.1673 33.9863 56.0319C34.9729 55.9552 35.9411 55.7807 36.9629 55.7409L37.0166 55.7457ZM55.9688 53.8209C56.0313 53.9476 55.7531 55.225 55.7275 55.4547C55.5726 56.8506 55.7026 61.3783 56.6143 62.3424L56.667 62.3961C56.4527 62.5314 53.7327 62.5618 53.2207 62.5954C48.9125 62.8871 44.6084 63.248 40.3115 63.6774L39.9336 63.7057C39.7282 63.5845 39.8229 63.098 39.8369 62.8151C39.9145 61.2429 39.6683 56.7543 39.0547 55.4225C40.0187 55.3581 41.1872 55.1427 42.2266 55.0553L55.8613 53.8346L55.9688 53.8209ZM75.4844 51.6207C75.6379 51.777 75.2175 52.2348 75.0986 52.5075C74.9019 52.9618 74.8959 53.5402 74.8584 54.027C74.766 55.1857 74.6645 56.3441 74.5537 57.5016C74.5005 58.0842 74.4387 58.7152 74.3984 59.2956C74.374 59.6515 74.707 60.4376 74.7305 60.8024C74.7506 60.8589 74.6372 61.0057 74.5879 61.0416C73.7385 61.6567 72.1271 61.56 71.1211 61.6149L66.6553 61.8454C64.2732 61.9534 61.865 62.1901 59.46 62.2702C59.3347 62.2751 59.3015 62.2703 59.1758 62.2536C59.1119 62.1146 59.2157 60.1744 59.2285 59.8639C59.3145 57.7841 58.6584 55.4643 58.9551 53.4293C60.1948 53.2648 61.4214 53.2046 62.665 53.0905L68.6807 52.4831C70.7788 52.2597 72.9832 51.8229 75.0176 51.6588C75.2052 51.6337 75.2964 51.6258 75.4844 51.6207ZM15.3906 48.4987C14.3209 48.7726 13.8939 49.3654 13.8447 50.4147C14.2908 50.9887 14.61 51.1721 15.3535 51.2858C16.2809 51.1066 16.6913 50.2069 16.8105 49.3581C16.3554 48.7604 16.1939 48.4394 15.3906 48.4987Z" fill="#380102"/>
<path id="Vector" d="M93.6651 12.3347C93.865 12.3003 94.052 12.3174 94.2418 12.316C96.9792 12.2959 97.2143 14.4471 97.3481 16.5962C97.398 17.3978 97.3985 18.258 97.3817 19.0933C97.3509 20.6288 98.0122 23.3962 95.7642 23.6451C94.0111 23.8033 92.2743 23.6405 90.5324 23.4889C88.0011 23.3398 85.449 23.3238 82.9227 23.1104C82.6725 23.0896 82.4115 23.0672 82.1545 23.0454C80.8041 22.929 77.3657 22.8916 79.0527 20.6138C79.9541 19.5381 81.2301 18.8771 82.3746 18.1222C83.7547 17.2114 85.1215 16.3436 86.5716 15.5432C87.2228 15.1842 87.907 14.8964 88.5655 14.5498C90.169 13.7052 91.8515 12.6204 93.6651 12.3347Z" fill="#380102"/>
<path id="Vector_2" d="M82.0276 3.70212C83.1351 3.62754 83.8843 4.79915 84.5707 5.53593C85.6888 6.72825 87.6373 8.34626 87.466 10.1535C87.4234 10.5993 85.2728 12.0538 84.8395 12.3879C82.4638 14.2207 79.8754 15.7502 77.4907 17.568C76.7942 18.0584 74.9235 19.44 74.0831 19.0658C73.7629 18.7886 73.5523 17.1835 73.6867 16.7487C74.0949 15.4454 74.7757 14.3091 75.4734 13.1506C76.7164 11.0848 77.8155 8.9495 78.9263 6.81307C79.1559 6.37181 79.9291 6.20143 80.0736 6.02859C80.863 5.0856 80.6385 4.09988 82.0276 3.70212Z" fill="#380102"/>
<path id="Vector_3" d="M88.0253 65.2206C88.2107 65.2139 88.2622 65.2027 88.4441 65.257C88.5544 65.3824 88.5679 65.4591 88.5858 65.6366C89.0371 70.2049 89.7672 74.7496 90.2353 79.3179C90.4206 81.1286 90.3663 83.0805 90.401 84.9063C90.4245 86.0754 90.4346 87.2456 90.4307 88.4153C90.4318 89.0496 90.4581 90.1974 90.3618 90.7792C90.1597 92.0009 89.6922 93.8531 88.9005 94.8049C88.3534 95.4622 87.0511 96.3379 86.2504 96.6218C83.3081 97.6643 80.1469 97.862 77.1391 98.4622C74.5686 98.9751 72.2276 99.7074 69.5664 99.9672C69.096 100.02 68.4079 100.08 68.2254 99.5378C67.9326 98.6688 69.0104 98.4728 69.5126 98.2735C70.4174 97.9135 71.2931 97.6319 72.1845 97.297C74.0327 96.661 75.9862 95.6968 77.9028 95.301C79.3742 94.9975 80.8473 94.7243 82.3328 94.3973C84.2482 93.9757 86.7717 93.9566 87.8266 91.9219C88.2734 91.0597 88.2947 90.0507 88.3887 89.109C88.672 85.8878 88.6619 82.651 88.6457 79.4198C88.639 77.6684 88.3266 75.898 88.2555 74.1578C88.1592 71.8107 87.8311 69.5156 87.6832 67.1786C87.6457 66.5829 87.7521 65.8348 87.9957 65.2856L88.0253 65.2206Z" fill="#380102"/>
<path id="Vector_4" d="M77.1568 27.16C80.0095 26.9912 83.4249 27.1829 86.1931 27.8014C87.2619 28.0401 89.0956 28.0479 89.4629 29.3007C89.5665 29.6535 89.0878 30.0395 88.8739 30.2213C89.0161 31.9884 88.8739 34.6052 88.2093 36.2623C87.7334 36.9858 86.66 37.3367 85.8946 36.9465C84.7317 36.3536 83.9943 34.7796 83.0279 33.903C82.0582 33.0242 81.0022 32.2701 79.9753 31.4623C79.0268 30.7024 77.1982 29.739 76.5767 28.6961C76.407 28.4118 76.3992 27.8803 76.547 27.5827C76.706 27.2637 76.8242 27.2721 77.1568 27.16Z" fill="#380102"/>
<path id="Vector_5" d="M19.7226 18.8066C20.475 18.8339 20.3001 19.5293 19.8911 19.9118C18.7853 20.9462 17.676 21.9968 16.6469 23.11L10.3359 29.9958C8.90215 31.554 7.52904 33.1379 6.00845 34.6272C4.72677 35.8825 3.37169 37.1583 2.27914 38.5804C1.99992 38.9439 1.93189 39.6658 2.06167 40.1021C2.77779 42.1359 4.42649 43.8453 5.67071 45.5812C5.936 45.9513 6.7982 46.8532 6.47894 47.2837C6.15917 47.3707 5.83645 47.2394 5.55425 47.0964C4.46944 46.37 1.23654 42.592 0.529011 41.2704C0.0795578 40.3268 -0.202646 39.1225 0.178359 38.1286C0.946622 36.1247 2.77197 34.8107 4.27084 33.3478L9.83619 27.9024C12.6726 25.1618 15.2555 22.2045 18.3436 19.7309C18.8363 19.3362 19.1502 19.0726 19.7226 18.8066Z" fill="#380102"/>
</g>
</svg>
