<svg width="121" height="100" viewBox="0 0 121 100" fill="none" xmlns="http://www.w3.org/2000/svg">
<g id="@S-Websites-Icon">
<path id="Subtract" d="M93.1255 0.000232503C95.1703 -0.0168208 97.7442 0.904912 99.0298 2.54126C101.201 5.30553 100.486 8.57626 100.17 11.721C99.9003 14.6707 99.597 17.6173 99.2583 20.5599C99.0631 22.1238 98.7375 23.5798 98.8022 25.1908C98.8362 26.0231 98.5005 27.4306 98.5669 28.1957C98.6888 29.6009 98.5279 30.4307 98.2124 31.7924C98.0743 32.4582 98.118 33.4597 98.0161 34.184C97.4436 38.2573 96.9947 42.5357 96.9878 46.6567C97.7725 47.9217 98.5646 49.5844 98.9604 51.0132C99.6541 50.967 100.619 50.9839 101.3 51.0454C103.931 51.2828 106.283 55.9975 106.536 58.274C107.426 58.6394 108.214 59.2439 108.96 59.8433C110.823 61.3362 111.77 62.8149 113.004 64.7779C115.319 68.4586 116.827 72.2803 117.238 76.6285C117.356 77.8762 117.509 80.8263 117.416 82.0866C117.117 85.4756 116.275 88.9743 114.92 92.0964C114.533 92.9901 113.226 94.9865 112.65 95.7234C110.642 98.2897 107.123 99.6184 103.959 99.9626C102.6 100.11 99.7384 99.8208 98.5522 99.1072C98.1334 98.868 98.2277 97.8066 98.4976 97.5739C98.7159 97.3857 99.7198 97.6056 100.079 97.4929C101.079 97.1534 102.079 96.8134 103.075 96.4577C105.217 95.693 107.276 95.4942 108.983 93.8776C111.411 91.5781 112.68 89.0761 113.578 85.9108C114.092 84.0946 114.63 82.4312 114.63 80.5016C114.924 75.1242 113.703 70.1916 111.085 65.4947C109.844 63.27 109.134 62.3468 107.413 60.5122C107.615 61.187 107.72 61.9794 107.873 62.6685C108.599 65.9735 108.728 69.4574 108.678 72.8326C108.671 73.3481 108.9 74.7132 108.383 74.9293C106.759 75.6058 106.467 72.5963 106.184 71.6539C105.433 69.1592 105.103 66.613 104.58 64.0689C103.995 60.7719 103.837 57.1318 102.518 54.0298C101.863 52.557 100.582 52.6081 99.3423 52.2437C99.6594 53.4819 99.8623 55.9727 100.059 57.3443C100.412 60.0644 101.027 62.7708 101.15 65.5162C101.195 66.5023 101.555 67.8444 100.858 68.6275C100.677 68.9563 99.4245 68.8795 99.3726 68.5914C98.641 64.4291 98.4757 60.1572 97.5845 55.9878C97.2782 54.5555 97.3024 53.1395 96.7925 51.7065C96.2701 50.2407 95.4291 49.2186 94.7007 47.8706C93.8997 46.114 92.9344 44.2011 92.1967 42.4516C90.9883 39.5851 90.1496 37.3938 88.0561 35.0131C86.9843 35.9152 86.9543 36.3002 86.7807 37.6498C86.4026 40.586 87.4589 43.4473 88.4018 46.1762C88.7421 47.1606 89.0217 48.1768 89.3627 49.1616C91.6343 54.6698 92.3967 61.1571 90.1821 66.8062C89.9282 67.452 89.5863 67.2746 89.145 67.6324C88.9953 68.0614 88.8646 68.328 88.3676 68.3326C88.1971 68.2439 88.1088 68.234 88.0278 68.0357C87.5418 66.8406 87.4203 65.2915 86.9682 64.0748C86.7869 63.4575 86.1096 62.6068 85.9506 62.0289C85.402 60.0351 84.3526 58.3315 83.601 56.4448C82.3332 53.262 80.7942 50.2565 79.4555 47.1079C78.4223 44.6786 77.6707 42.1431 76.639 39.7172C76.4407 39.2476 75.8337 38.4719 75.5111 38.0317C74.5658 38.8721 73.3058 40.48 72.2093 41.5424C72.5859 43.0592 73.456 44.5282 73.9691 46.019C74.4413 47.3936 74.7321 48.8234 75.2035 50.2016C76.4497 53.842 77.8884 57.4527 78.8529 61.1783C79.4633 63.5364 80.8697 72.4079 80.098 74.3941C79.5448 75.8181 78.3018 76.0651 77.0551 76.6158L76.9848 76.6481C75.8582 75.807 74.3389 75.3808 73.2201 74.4332C72.3451 73.7256 71.4121 72.8145 70.7377 71.8971C69.7592 70.5652 68.5221 70.2612 67.1331 69.481C66.3716 70.3938 65.6553 71.3784 64.6458 71.9957C66.7066 72.9464 70.5956 78.3641 71.8148 80.3727C72.9915 82.1019 73.8767 84.5864 75.1097 86.2184C76.4909 88.0464 78.4859 90.2237 80.0678 91.9128C80.5053 92.3804 81.9172 93.4711 82.4682 93.823C83.7159 94.6207 85.1795 95.3048 86.4711 96.0525C87.9048 96.7831 89.9796 96.9156 91.2065 97.9148C91.553 98.1972 91.1873 98.9192 90.7915 99.1159C87.9796 100.515 83.5642 98.6732 80.9398 97.3884C79.2284 96.5511 77.2418 94.7489 75.9115 93.4147C75.2076 92.9118 72.9837 88.5105 72.3695 88.4704C69.6095 88.4094 66.7987 88.4701 64.0277 88.4137C60.082 88.3327 56.3423 88.1354 52.4807 87.2897C50.8397 86.9301 48.768 86.8384 47.1643 86.3747C46.214 88.9194 44.8802 91.5625 42.507 93.0563C41.8547 93.4665 38.0308 94.9103 37.7678 93.6853C37.1852 90.9685 41.6251 89.3853 43.1106 87.6862C45.4263 85.0387 46.1316 81.8445 47.3957 78.6676C47.9548 77.3051 48.4713 76.6576 48.9875 75.1715C47.3194 75.0442 45.6525 74.8974 43.9875 74.733C42.028 77.5156 37.8543 81.6135 34.4611 82.5387C33.9497 82.6782 32.882 82.2452 33.464 81.5192C34.0724 80.76 34.8786 80.6172 35.6769 80.1266C37.3128 79.0231 38.5799 77.8 39.802 76.2613C38.7469 76.4543 37.5396 76.459 36.4787 76.2584C35.8383 76.1373 35.4515 75.8067 34.9787 75.3824C34.5789 76.1512 33.5753 79.0313 32.3849 78.3698C31.4948 77.2864 33.7518 73.1254 34.1467 71.8121C34.2049 71.619 34.4281 71.1833 34.5353 70.9967C34.775 70.5809 35.0789 70.2055 35.4357 69.8853C35.6689 69.6785 35.8219 69.5542 36.1262 69.5758C36.896 69.9671 36.2513 70.7256 36.4211 71.0982C36.5318 71.0967 36.9143 71.0924 36.9611 71.1803C37.9453 73.0319 38.8062 73.8483 41.0012 73.3043C41.0495 73.2938 41.921 73.3461 42.1311 73.3385C42.3567 73.1452 42.47 71.029 42.5227 70.5611C37.1027 67.355 37.3075 64.2781 35.2678 59.274C34.3682 59.8443 34.1578 60.0553 33.5226 60.9205C32.554 62.1149 31.4709 64.3287 30.8527 65.7447C30.4063 66.7671 29.1876 70.7422 28.2648 71.0709C27.9154 71.0284 27.6006 70.7362 27.5763 70.3814C27.3406 66.9059 28.6443 63.2492 30.3449 60.2691C30.9229 59.3389 31.7855 58.516 32.3146 57.5581C33.2747 55.8202 34.2238 54.1559 35.298 52.4878C34.6061 50.051 33.8685 47.6684 33.1408 45.2465C32.7531 43.8525 32.4795 42.3913 32.0099 41.0229C30.7887 37.4645 29.4406 33.9568 28.8273 30.226C28.6632 29.2276 28.3076 28.1825 28.1613 27.1683C27.975 25.876 27.8367 24.5814 27.5197 23.3138C27.0767 21.0747 26.1818 18.5397 26.0275 16.3226C26.0906 15.8147 26.6574 15.2535 27.0128 14.9739C28.788 13.5774 31.1133 13.6392 33.2394 13.4114C34.5388 13.2722 36.0344 13.2417 37.3058 13.0013C39.4997 12.5863 41.6992 11.8458 43.9016 11.4583C45.6258 11.0771 47.9836 11.1858 49.6389 10.7122C53.5853 9.58274 57.425 9.23749 61.5228 9.13895C62.7331 9.10985 64.0714 8.89468 65.2904 8.89676C67.6231 8.90078 69.9665 8.93722 72.3021 8.83035C73.387 8.78476 74.5436 8.96298 75.64 8.90653C77.002 8.83646 78.3413 8.52159 79.6986 8.38895C82.1631 8.15211 84.7156 8.36141 87.1723 8.59891C87.8799 8.67638 89.2758 8.89918 89.6879 9.5745C90.8956 11.5528 90.3682 14.1094 90.0249 16.2191C89.6475 18.5399 89.3283 20.6588 88.8862 22.9525C88.6963 23.837 88.7159 24.9064 88.5122 25.7728C87.9481 28.1786 87.8581 30.706 87.4213 33.101C88.0069 33.0241 88.4402 32.9693 88.9995 33.2074C90.3506 33.7835 91.2632 36.5532 91.7895 37.9057C91.8343 36.7476 92.0952 35.99 92.2719 34.8754L93.2524 28.267C93.4437 26.8999 93.5173 25.1738 93.6098 23.7806C93.7256 21.7307 93.8894 19.6832 94.1001 17.6409C94.4057 14.4757 95.7733 8.44938 94.8628 5.60182C93.669 5.08399 92.6887 5.27615 91.3969 5.26588C88.5798 5.2483 85.7635 5.35755 82.9565 5.59303C80.9688 5.76703 78.9885 6.05209 76.9916 6.19948C75.6853 6.29585 74.4181 6.25905 73.1195 6.34206C72.263 6.42964 71.4112 6.59861 70.557 6.69753C65.692 7.26032 60.8443 7.16724 55.9602 7.09988C54.475 7.07935 53.0001 7.29649 51.5276 7.45144C50.8622 7.52142 50.1449 7.46587 49.4758 7.54421C48.1651 7.72616 46.8622 7.95609 45.5422 8.0784C42.2176 8.40248 38.9433 9.02068 35.633 9.46708C33.0913 9.80974 30.571 9.85423 28.0294 10.177C27.059 10.3003 26.0575 10.3136 25.0939 10.4974C24.1945 10.6723 23.3524 11.0208 22.4845 11.3099C22.9643 14.2032 23.061 17.7293 23.382 20.6683C23.5833 23.0518 24.3221 25.4224 24.6827 27.7582C25.0722 30.281 25.1629 32.6058 26.0861 35.0375C26.4057 35.8796 26.5641 36.9626 26.8898 37.8393C27.1249 38.6797 27.6263 39.6 27.8273 40.434C28.3151 42.4587 28.937 44.4369 29.5353 46.4233C30.218 48.6899 30.5634 51.0604 30.8488 53.4009C30.9353 54.1106 31.4682 54.4147 31.3537 55.023C31.1841 55.2014 30.8781 55.2322 30.6251 55.2905C30.4311 55.5095 30.4963 55.6731 30.425 55.9351C30.3715 56.1316 30.2833 56.2712 30.0998 56.3696C29.5106 56.6854 29.0122 55.9321 28.4845 55.8111C27.8574 55.6674 27.0543 56.079 26.5167 56.3677C25.6629 56.8263 24.7794 57.3989 24.172 58.1695C23.8372 58.5942 23.6404 59.1495 23.4152 59.6382C23.0627 60.4027 22.6737 61.1691 22.3868 61.9605C21.7016 63.8495 20.0624 70.0884 18.4268 70.9742C18.2454 71.0722 18.0686 71.1034 17.8712 71.0308C17.6569 70.9521 17.4878 70.7827 17.4083 70.5689C17.0873 69.7221 18.4692 65.0448 18.7296 63.8209C18.9645 62.7166 19.5737 60.375 20.0411 59.3911L20.0938 59.2808C19.4542 59.7449 18.4587 60.4815 17.9513 61.1255C16.031 63.5901 14.8576 66.6437 13.7559 69.5465C13.4467 70.3606 13.0581 73.0934 11.9073 73.0826C10.4724 72.1335 12.5268 66.4284 13.1495 65.0904C11.5597 66.5178 9.25164 67.8901 8.02543 69.5582C5.71836 72.7181 3.77521 76.7356 3.1133 80.5993C2.47972 84.2984 4.30612 89.9571 8.33305 91.0222C10.5055 91.597 13.1124 91.6881 15.3477 91.989L19.4112 92.5095C21.5746 92.7826 23.0203 92.7816 25.1359 92.2878C26.2528 91.9209 26.8778 93.2991 26.088 93.9265C23.9143 95.6526 21.0192 95.6778 18.4464 95.9402C14.7052 96.3213 11.1072 95.9187 7.51859 94.7976C6.19506 94.3847 4.19481 92.9044 3.1963 91.9499C1.13302 89.7792 0.369592 85.6107 0.2334 82.6862C0.341131 77.8088 4.02239 70.3267 7.56644 66.9615C8.67075 65.9128 11.8515 63.6556 13.2872 62.8423C13.4793 62.7336 14.0574 62.7506 14.3175 62.7584C14.5028 62.5313 14.8799 61.7177 15.0167 61.4068C16.3197 58.4423 18.2463 58.2847 21.0577 57.3277C22.3916 54.9538 24.9066 53.1373 27.7482 53.4858C27.9283 53.508 27.9341 53.538 28.1369 53.5278C28.1574 53.2408 27.4578 52.425 27.257 52.1294C26.0178 50.3045 26.0749 47.7788 25.3937 45.684C25.0026 44.4815 24.6067 43.3483 24.2159 42.1704C23.1068 38.8273 22.3038 35.4213 21.506 32.0023L19.4561 23.3695C18.6089 19.8482 17.0895 16.1581 17.1729 12.4681C17.1848 11.9421 17.6234 11.548 18.0167 11.2601C18.2028 10.0088 18.9344 8.54317 20.0694 7.88699C21.1763 7.2472 22.4341 6.76449 23.6749 6.45144C25.0656 6.10057 26.5046 6.10296 27.924 5.95534C30.3015 5.75595 32.6349 5.43975 35.0031 5.19362C36.0649 5.01691 37.1128 4.71573 38.1769 4.55006C40.8904 4.12775 43.6124 3.77445 46.3176 3.29712C47.2617 3.13053 48.329 2.95166 49.2825 2.99634C50.6747 3.10532 52.0901 2.62951 53.4602 2.59595C55.8329 2.53776 58.18 2.41269 60.5472 2.25513C61.6963 2.17868 62.9138 2.28573 64.0657 2.18677C64.9632 2.10968 65.863 1.95239 66.7601 1.86157L77.3207 0.824455C79.5992 0.621527 81.9566 0.489983 84.2436 0.280507C85.0506 0.206593 86.0278 0.306693 86.8295 0.260976C88.5996 0.159972 90.353 0.0992189 92.1254 0.0461312C92.4587 0.0213673 92.7922 0.00571449 93.1255 0.000232503ZM50.8127 75.3932C50.4031 77.7378 49.6275 79.4306 48.7795 81.6403C49.6963 81.7259 50.4807 81.8782 51.3801 82.0202C55.6897 82.7 60.0988 83.0454 64.4613 83.1442C65.9774 83.1781 66.7711 82.673 68.4261 83.1051C69.416 83.3065 69.6206 83.3126 70.6048 83.1637C68.7106 80.9539 66.8589 77.8222 64.8607 75.6949C60.112 75.7412 55.4523 75.3739 50.8127 75.3932ZM72.7064 66.8277C72.7265 68.0915 72.7736 69.5618 72.7142 70.8209C74.6414 72.4872 75.1072 72.0564 77.7221 72.0719C77.5114 70.0851 77.2125 68.8475 76.6918 66.9273C75.3454 66.871 74.0551 66.8115 72.7064 66.8277ZM47.2151 66.9898C46.8466 67.2335 46.7051 67.4118 46.6243 67.8638C46.4389 68.8992 46.355 69.935 46.1711 70.9742C47.7367 70.9557 48.7347 71.1735 49.9192 71.4644C51.1446 71.766 61.4416 72.2274 61.9603 71.9449C62.0633 71.232 63.1482 70.4591 63.7122 69.9976C64.757 69.1798 65.4681 68.8565 66.6449 68.274C66.0539 68.3914 64.2778 68.8319 63.8304 68.774C58.9428 68.139 54.0239 67.5036 49.1077 67.0738C48.5666 67.0267 47.7325 66.9628 47.2151 66.9898ZM42.0891 66.0494C42.5677 66.743 42.9312 67.4658 43.3947 68.1578L43.7502 67.6187C44.024 67.0779 44.1255 66.8333 44.2737 66.2379C43.4673 66.079 42.9141 66.0455 42.0891 66.0494ZM70.8753 62.271C70.9872 63.2021 71.138 64.1287 71.3285 65.0474C72.3085 65.0899 75.4085 65.0397 76.1254 65.1724C75.9618 64.2597 75.6845 63.3238 75.3998 62.4419C73.8674 62.3625 72.4109 62.2618 70.8753 62.271ZM59.345 62.1529C58.9884 62.1652 58.6055 62.185 58.2513 62.188C58.1849 63.0452 58.1265 63.9032 58.0745 64.7603C59.4651 65.0095 61.0583 65.0193 62.4847 65.0494C64.2501 65.0887 66.0164 65.1092 67.7826 65.1099L68.8265 65.0943C68.673 64.3228 68.4017 63.0783 68.346 62.3013C66.7625 62.12 65.1244 62.2463 63.5267 62.2378C62.1557 62.2301 60.7058 62.1174 59.345 62.1529ZM48.8137 61.7261C48.4119 62.5425 47.8064 64.0304 47.4582 64.647C50.039 64.5035 52.8257 64.6421 55.4261 64.6675C55.7798 64.6938 56.1351 64.715 56.4866 64.7613C56.4154 63.8239 56.5114 62.9781 56.4768 62.0669C54.77 61.9311 53.0591 61.9176 51.3508 61.8482C50.6649 61.8204 49.4542 61.8357 48.8137 61.7261ZM46.26 61.5757C44.4631 61.6737 42.4187 61.5093 40.7414 61.6119C40.2971 61.6481 39.9504 61.6689 39.5139 61.7662C39.8994 62.7429 40.4774 63.7237 41.1818 64.5045C41.729 64.5106 44.7635 64.6002 45.0549 64.4293L45.0686 64.3668C45.43 63.5321 45.8795 62.3696 46.26 61.5757ZM85.9828 47.9614C85.6828 48.1066 85.4876 48.2067 85.1674 48.312C85.3401 49.2826 85.2946 50.3452 85.2807 51.3354C85.9649 52.261 88.5326 61.2333 88.8452 62.8746L88.9174 63.1216L88.979 63.0972C89.185 62.2292 88.5503 56.2014 88.2817 55.1528C87.7014 52.8893 86.6116 50.3398 86.0043 47.977L85.9828 47.9614ZM58.8235 57.77C58.8315 58.9544 58.6303 59.2373 58.5452 60.2857C61.7244 60.4216 64.4789 60.2373 67.6351 60.0953L67.8275 60.0777C67.9864 59.7498 67.7987 58.8172 67.7415 58.439C66.3818 58.1522 64.9001 58.147 63.5091 58.0347C61.9308 57.9072 60.4123 57.7691 58.8235 57.77ZM50.4504 57.1792C50.2392 57.9594 49.6773 59.2315 49.3674 60.0308C51.4724 60.1431 53.7309 60.2997 55.8245 60.2886L56.552 60.3101C56.6591 59.3792 56.7486 58.4455 56.8206 57.5113C54.7075 57.4569 52.47 57.1564 50.4504 57.1792ZM70.0384 58.5533C70.1379 59.0371 70.2346 59.558 70.3519 60.0347C71.3126 60.0352 73.7868 59.9818 74.6117 60.0757L74.2748 59.0376C72.8768 58.8687 71.4379 58.674 70.0384 58.5533ZM44.175 57.1382C43.2666 57.1668 42.3574 57.1836 41.4484 57.187C41.3232 57.8769 40.5775 59.3412 40.1994 59.9742C41.6107 60.0559 42.9215 59.9747 44.3322 59.9331C45.1057 59.9363 46.0058 59.9779 46.7815 60.0269C47.2392 59.0941 47.6707 58.1483 48.0745 57.1909C46.7801 57.1507 45.4688 57.1015 44.175 57.1382ZM36.1047 57.2046C37.0184 57.7168 37.6876 58.2823 38.1184 59.2701C38.224 59.0215 38.3474 58.7015 38.4826 58.4751L39.1564 57.2593C38.1402 57.2038 37.1222 57.1856 36.1047 57.2046ZM73.055 54.1372C71.3104 54.2401 70.5026 54.4644 68.6908 54.3941L68.6644 54.4546C69.0972 55.0131 69.3794 56.0735 69.5599 56.7749C69.8017 56.9111 73.1701 56.8727 73.6888 56.8716C73.4922 56.2304 73.3682 55.5864 73.2679 54.9243C73.2294 54.6716 73.2764 54.2728 73.1107 54.1284L73.055 54.1372ZM60.1937 54.2827C59.9076 54.3064 59.6199 54.2732 59.4378 54.4829C59.0933 54.8804 59.0896 55.7802 59.0149 56.313C61.5215 56.4524 63.9966 56.6983 66.5462 56.8111L67.4554 56.8716C67.4492 56.3545 67.3542 54.9237 67.5745 54.5405L67.5208 54.4253C66.133 54.2761 65.2395 54.3782 63.8734 54.3794C62.6772 54.3804 61.4121 54.2816 60.1937 54.2827ZM51.5051 53.6235C51.3691 54.4677 51.234 54.9255 50.8919 55.7095C52.2075 55.7914 56.1566 56.0189 57.1868 56.2915C57.3189 55.4994 57.4844 54.8173 57.6731 54.0376C55.6524 53.9358 53.5815 53.7306 51.5051 53.6235ZM36.8615 52.27C36.3952 53.6595 35.7955 54.7263 35.1232 56.0181C35.9995 56.0131 38.5964 55.8413 39.5148 55.7232C39.7985 55.6942 39.8439 55.7397 40.0305 55.5073C40.5823 54.8199 40.8667 53.7633 41.3127 53.0522C40.425 52.9524 37.6181 52.5389 36.8615 52.27ZM43.2229 53.2222C42.9625 53.9191 42.5735 55.0386 42.2551 55.6948C43.5044 55.5892 44.6487 55.5621 45.8948 55.5855C46.4855 55.5966 48.3784 55.7688 48.8577 55.6948C49.1913 54.8754 49.5434 54.2112 49.9524 53.4253C48.7019 53.229 46.8241 53.27 45.5217 53.2398C44.6792 53.2202 44.1407 53.3212 43.2229 53.2222ZM86.5766 12.1126C85.1838 12.1053 82.6673 11.967 81.4496 12.0726C79.5113 12.1986 77.6064 12.544 75.7113 12.6565C73.9119 12.7634 71.9324 12.5281 70.0658 12.5745C64.7882 12.7055 59.5369 13.2801 54.262 13.2796C53.1003 13.2796 51.5603 13.9606 50.3665 14.056C48.1805 14.4698 46.0457 14.393 43.9485 14.6653C42.0216 14.9155 40.2426 15.3661 38.2394 15.6009C35.4473 15.928 30.9958 15.5802 28.5451 16.6204C28.6972 17.514 28.8402 18.4139 29.1017 19.2865C31.1055 25.9712 32.8874 32.8304 35.1965 39.4086C36.3845 42.793 37.3433 45.8644 38.2394 49.314C39.0988 49.5136 40.3352 49.8255 41.1975 49.8725C44.4374 50.0491 47.5801 49.6642 50.8518 49.8999L62.931 50.312C65.8173 50.4213 68.7107 50.7843 71.6019 50.3667C71.8858 50.3256 72.2028 50.2905 72.4906 50.27C71.7985 48.9309 70.7736 46.9333 70.6546 45.4253C70.5813 44.4907 70.0413 41.2928 70.3187 40.6293C71.1962 38.5379 73.7179 36.3121 75.4008 34.8149C75.9147 35.7706 76.7847 36.4689 77.2445 37.3344C78.7892 40.2438 80.2914 43.1305 82.1 45.8901C82.7828 46.9324 83.167 47.8072 83.9633 48.8305C83.0582 46.4751 83.0729 44.585 83.1694 42.0961C83.2326 40.4797 83.2314 38.941 83.3803 37.3051C83.6527 34.3032 84.3895 31.4118 84.5531 28.3832C84.6019 27.4794 85.0746 26.3114 85.1342 25.3695C85.4753 20.9387 86.2795 16.5447 86.5766 12.1126Z" fill="#380102"/>
<path id="Union" d="M16.3194 42.6697C17.9017 42.8949 20.2868 48.4641 20.6915 50.0398C20.8233 50.5533 19.9499 50.6717 19.753 50.825C18.5639 51.7503 17.7054 53.0314 16.6387 54.1102C16.0804 54.6617 14.4099 56.262 13.9531 55.0125C13.3358 53.323 14.7612 50.103 15.0459 48.3416C15.1699 47.5761 15.8504 46.5186 15.9199 45.7673C16.0051 44.8461 15.3824 43.9567 15.7627 43.0232C15.8692 42.8064 16.1094 42.7502 16.3194 42.6697ZM102.805 35.3698C103.135 35.4221 103.732 35.7195 104.073 35.8737C106.706 37.0688 108.713 39.5749 109.73 42.2439C110.355 43.8843 109.732 44.9258 108.111 45.4255C107.237 45.2375 106.926 45.0488 106.22 44.5154L105.72 44.0066C104.51 45.7182 103.083 46.8872 100.954 45.2869C100.643 45.0532 100.464 44.773 100.252 44.448C100.306 42.2587 100.156 40.545 100.6 38.3044C100.935 36.6157 100.677 35.6435 102.805 35.3698ZM2.27535 32.0417C4.69045 31.7434 4.48878 33.0637 6.10154 33.7429C8.84231 34.8967 12.5967 34.7059 14.9219 36.7614C15.0181 37.112 15.1036 37.5405 15.1846 37.9011C14.9891 38.2753 14.7862 38.5711 14.4961 38.8786C14.1409 39.2551 14.2797 39.3683 14.1787 39.8122C13.4339 40.5166 10.9303 41.1745 9.78515 41.7302C9.12926 42.0934 8.48778 42.4952 7.81444 42.825C6.63394 43.403 5.25953 43.9328 4.03415 44.4607C3.4079 44.7305 2.8653 44.8702 2.20601 44.5828C1.66795 44.3481 1.42753 43.9953 1.21675 43.4685C0.549742 41.8015 -0.455053 33.9694 0.228466 32.5563C0.577529 31.8348 1.06904 32.3917 1.59371 32.3083C1.80028 32.2754 2.07287 32.1176 2.27535 32.0417ZM119.007 24.0895C120.028 24.3891 120.073 25.0832 120.186 26.0065C119.931 26.2763 119.63 26.5016 119.34 26.735C119.406 27.0845 119.676 26.7333 119.876 27.3952C119.963 27.6834 120.157 28.5121 120.097 28.7819C119.754 30.3377 119.399 31.8722 119.14 33.446C118.98 34.4172 118.335 35.6756 117.947 36.5808C117.647 37.2802 116.793 37.9713 116.072 38.1745C115.849 38.2665 114.983 38.3633 114.786 38.2429C112.566 36.8806 110.119 35.9213 107.821 34.7312C105.967 33.65 104.003 33.0347 102.457 31.3122C102.538 31.0836 102.962 30.3118 102.962 30.2077C102.965 29.4736 102.881 28.8125 103.824 28.4382C105.213 27.8865 106.939 27.4331 108.417 27.07C109.981 26.6859 111.57 26.2301 113.116 25.7546C115.279 25.1857 116.905 25.0557 119.007 24.0895ZM4.64743 17.6559C7.94535 18.6666 11.6092 20.7977 14.0244 23.2057C14.1769 23.8503 14.4826 29.7002 14.3135 30.0436C14.116 30.442 13.6161 30.5548 13.2276 30.6716C12.6994 30.7306 11.8353 30.7619 11.2861 30.569C9.57424 29.9675 8.02269 27.4903 6.95018 26.0299C6.48868 25.2054 6.07024 24.3428 5.56931 23.5426C4.57335 21.9518 1.40796 19.0995 4.35056 17.6774C4.39572 17.6727 4.62601 17.6493 4.64743 17.6559ZM116.43 5.17633C116.815 5.13209 117.566 5.20605 117.676 5.61676C117.909 6.48008 116.253 6.7657 115.984 7.649C116.68 8.74183 116.76 8.78191 116.501 10.0943C116.023 12.5044 115.595 14.9358 114.949 17.3082C114.723 18.1348 114.308 19.2662 113.644 19.8463C113.147 20.2616 112.543 19.9939 112.029 20.0563C111.158 20.1621 110.175 20.7145 109.365 21.0495C108.7 21.3249 107.95 21.5744 107.34 21.8991C106.511 22.3409 105.741 22.8732 104.917 23.3229C102.511 23.8658 103.404 20.1216 103.465 18.7916C103.383 18.7011 103.064 18.4641 102.951 18.3756C103.554 16.3411 105.949 14.0922 107.456 12.6353C109.673 10.486 112.056 8.52536 114.395 6.51325C115.122 5.8886 115.551 5.54649 116.43 5.17633Z" fill="#380102"/>
</g>
</svg>
