<svg width="133" height="189" viewBox="0 0 133 189" fill="none" xmlns="http://www.w3.org/2000/svg">
<g id="@S-Workshop-Icon">
<path id="Subtract" d="M94.5924 23.5377C94.9843 23.7163 95.7279 24.3888 96.0399 24.6921C99.3615 27.9264 101.335 32.0479 103.452 36.0947C104.132 37.2805 104.94 38.4242 105.645 39.5904C108.179 43.776 110.46 47.991 112.435 52.4757C112.934 53.6101 113.833 54.7799 114.301 55.9254C114.983 57.5994 115.575 59.1615 116.377 60.7971C118.505 61.2986 121.435 62.6209 122.657 64.5104C124.422 64.7779 126.028 64.486 127.648 65.4767C129.043 66.3396 130.436 67.7162 131.77 68.6215C132.374 69.0317 132.898 72.9953 132.836 73.7911C132.528 77.6248 133.084 92.2998 131.427 95.1634C130.697 95.591 129.388 95.9236 128.767 96.2336C124.949 98.14 125.63 98.1426 121.557 97.8516C118.608 102.914 116.878 102.4 111.615 103.139C111.567 104.501 111.333 106.931 111.147 108.288C114.97 108.178 119.626 108.805 120.24 113.353C119.629 114.875 120.606 115.331 120.379 116.442C119.886 118.596 118.843 120.67 117.959 122.696C117.373 124.038 115.624 124.533 114.435 125.316C113.698 125.8 112.259 127.041 111.509 127.293C110.314 127.679 108.657 127.501 107.498 127.769C101.918 129.056 96.7345 128.873 91.13 127.786C89.8137 127.532 87.8587 127.53 86.5738 127.126C83.9843 126.31 80.6663 125.649 78.6396 123.747C76.3698 121.417 77.7274 116.788 78.6788 114.087C79.1149 112.848 79.6523 112.959 79.5432 111.825C79.4897 111.269 79.8288 110.721 80.2517 110.36C82.3748 108.55 87.084 107.649 89.7373 107.738C89.5616 106.22 89.4702 104.36 89.1827 102.906C85.5189 103.106 82.615 103.158 80.4771 99.6764C80.5689 98.8286 80.6033 98.6106 80.8878 97.8134C80.668 96.7926 80.436 96.106 79.404 95.6093C78.9595 95.3953 78.226 95.4781 77.8272 95.772C75.814 97.2559 73.6465 98.505 71.6001 99.941C71.2078 100.216 70.8041 100.478 70.431 100.779C62.3976 107.602 55.1922 115.402 49.4135 124.235C48.5807 125.508 47.9816 127.024 47.2065 128.34C46.129 130.202 45.2034 132.124 44.3781 134.104C43.1303 137.435 41.8977 140.982 40.8667 144.381C40.5912 145.577 40.4191 146.796 40.1483 147.993C39.5756 150.528 38.9806 153.055 38.3922 155.585C38.1361 156.917 38.0444 158.892 37.7218 160.043C37.1234 162.178 36.7275 163.609 36.6742 165.876C36.6463 167.062 36.1817 168.724 36.0832 169.987C35.848 173.003 35.7104 175.995 34.9376 178.94C34.5356 180.492 34.0061 180.84 33.5675 182.023C33.6442 182.403 33.6994 182.484 33.8762 182.838C33.8522 184.318 30.1519 185.515 28.9663 186.001C28.4219 186.208 27.9503 187.013 27.4316 187.208C20.186 189.92 9.041 190.056 3.36428 184.065C0.0800538 180.598 0.841628 177.598 0.193921 173.297C-0.428359 169.166 0.558041 165.328 1.58065 161.376C3.69722 150.751 7.22591 140.536 11.1858 130.466C11.6308 129.506 12.1376 128.567 12.6323 127.63C14.666 123.779 16.0721 119.411 18.4046 115.746C21.1145 111.489 23.0298 106.459 26.2507 102.596C31.1267 96.9014 35.9009 90.956 41.3018 85.7376C43.8255 83.2993 47.5116 80.7039 50.2043 78.361C51.2268 77.4713 53.0184 76.7601 54.1783 75.9246C55.9709 74.6334 57.6691 73.1919 59.5694 72.0702C63.2496 69.9935 66.9728 68.656 70.921 67.1995C73.8215 66.1294 76.7906 64.8434 79.799 64.0615C80.7049 63.826 82.4419 63.9214 83.3065 63.7107C85.4708 63.1827 87.0214 62.4507 89.3032 62.2279C89.0822 61.082 88.7162 60.0148 88.2536 58.8664C85.3646 51.6962 81.4423 43.6189 75.4526 38.5771C75.1313 38.3068 75.037 38.5508 74.7205 38.0381C75.0618 35.8922 80.9751 38.1806 82.2471 38.5555C85.79 39.5995 90.201 40.4219 92.7284 43.3743C93.1771 40.6119 94.0579 37.6603 94.22 34.9108C94.2748 33.9812 93.9564 32.3367 93.8084 31.3592C93.5005 29.3251 92.436 27.1074 92.7293 25.0293C92.8393 24.3655 94.0041 23.8506 94.5924 23.5377ZM83.5201 69.3624C81.0936 70.7514 77.9802 71.5149 75.8495 72.7425C68.9409 76.7227 62.2113 80.6102 55.074 84.1539C53.3297 85.0204 46.1796 90.9935 44.8818 92.3713C34.5408 103.354 26.304 116.055 19.4533 129.444C18.295 131.708 16.4854 134.789 15.6537 137.089C12.608 145.511 10.7199 154.3 9.39729 163.142C8.6251 168.577 8.47979 174.485 7.28632 179.842C8.10058 180.469 9.01419 181.213 9.95492 181.621C11.6482 182.138 12.7297 181.823 14.3924 182.002C18.4056 182.434 22.3465 183.399 26.3408 182.223C28.4018 181.616 29.7971 181.373 30.4393 179.089C31.0324 176.979 31.1309 174.827 31.8446 172.768C32.4064 171.091 32.2499 169.197 32.4836 167.47C32.78 165.281 32.8232 162.863 33.3206 160.725C33.8376 158.395 34.2869 156.027 34.6818 153.671C35.0234 151.632 35.9473 149.349 36.2675 147.388C36.7896 144.191 37.5102 142.03 38.5715 138.976C39.7261 135.655 40.7967 132.616 42.3181 129.415C44.37 125.098 46.9028 121.023 49.8682 117.273C50.8664 116.006 52.0189 114.802 52.9925 113.548C59.4445 105.229 67.3123 97.3508 76.9314 92.7976C79.1914 91.7278 81.7079 91.1105 83.9837 90.1251C83.8698 88.7587 84.0759 87.2126 84.1895 85.8366C84.2944 84.5659 84.2404 83.228 84.4031 81.9694C84.742 79.3491 85.4029 71.3328 83.7063 69.3967L83.5201 69.3624ZM82.7508 114.532C83.0442 115.796 83.9284 116.303 85.0891 116.921C90.8702 119.999 97.8696 120.212 104.276 120.507C105.169 120.549 106.904 120.172 107.791 119.958C109.473 119.549 111.109 118.97 112.675 118.232C113.295 117.935 113.769 117.548 113.5 116.764C112.989 116.335 112.076 116.478 111.439 116.534C106.259 116.983 101.325 118.095 96.1094 117.478C94.6526 117.307 92.9647 117.644 91.4935 117.224C89.0204 116.967 84.9373 114.696 82.7508 114.532ZM123.627 69.9926C123.826 75.4303 123.669 80.85 123.574 86.2884C123.531 88.6944 123.071 91.159 123.006 93.616C124.491 93.5727 125.47 93.5195 126.927 93.2083C127.149 93.0896 127.246 93.0824 127.301 92.7555C127.984 88.6739 127.645 84.1419 127.833 79.9829C127.925 77.942 127.979 76.129 128.027 74.1459C128.06 72.8201 127.773 71.5494 127.857 70.166C126.594 70.4292 124.907 70.2143 123.627 69.9926ZM112.997 66.5909C111.341 66.1291 108.795 65.692 107.08 65.8814C103.712 66.0719 96.5837 65.5758 93.876 66.932L93.926 67.0976C94.9588 67.409 98.5355 67.3288 99.8374 67.3671C101.641 67.3443 103.486 67.3741 105.281 67.3299C107.817 67.2673 110.849 68.1121 112.997 66.5909Z" fill="#FCF8F3"/>
<path id="Subtract_2" d="M96.682 150.318C98.7421 150.072 100.535 150.321 102.615 150.565C106.348 150.897 110.395 155.321 106.063 158.101C102.864 160.153 97.9207 160.9 94.2359 160.099C93.8346 161.006 92.1263 163.542 91.4899 164.694C93.4751 165.925 96.1849 167.047 95.6305 169.785C95.3271 171.285 94.6204 172.628 94.4192 174.135C94.0955 176.556 94.0257 179.047 93.3823 181.415C93.1866 182.131 92.559 182.68 91.8799 182.985C87.8725 183.244 90.4848 178.614 90.6559 176.785C90.9091 174.07 90.7214 171.178 92.0122 168.654C90.9081 168.04 88.7018 166.662 88.394 165.389C88.0348 163.903 89.6463 162.697 90.4628 161.579C90.9853 160.863 91.2169 160.538 91.6781 159.775C88.7058 159.218 82.1098 161.147 81.5643 156.412C81.5042 155.892 81.7195 155.061 82.1131 154.71C85.7351 151.482 92.104 150.65 96.682 150.318ZM104.673 154.211C104.266 152.663 98.5547 152.41 97.0525 152.485C92.8672 152.754 86.8588 153.219 83.637 156.15C86.2481 157.047 89.0267 156.839 91.777 156.752C93.8865 156.648 103.422 155.777 104.511 154.511C104.589 154.421 104.628 154.319 104.673 154.211Z" fill="#FCF8F3"/>
<path id="Vector" d="M22.2114 20.5259C23.6497 20.3319 25.2039 20.6608 26.6437 20.8403C35.8411 21.9869 44.5279 26.096 52.5738 30.5132C53.7988 31.1857 55.0745 31.8249 56.2531 32.5317C59.0463 34.2104 61.7025 36.1071 64.1969 38.2043C65.1415 38.9842 67.3942 40.4985 66.7867 41.8934C65.6995 42.9977 63.7066 41.5452 62.7459 40.9025C56.5314 36.5876 49.4336 33.4628 42.4286 30.6549C40.6619 29.8391 38.382 29.4926 36.6312 28.7701C31.701 26.7148 26.5869 26.0703 21.3432 25.1298C20.6697 25.0089 14.8855 24.6082 16.8496 22.1171C17.8157 20.8919 20.5397 20.701 22.2114 20.5259Z" fill="#FCF8F3"/>
<path id="Vector_2" d="M18.272 8.45645C21.0069 8.43138 23.7404 8.58625 26.4548 8.9199C33.6979 9.87106 41.7654 12.7819 48.4827 15.6337C49.9626 16.262 56.2089 20.3436 56.936 21.3964C57.1325 21.677 57.1946 22.0302 57.1055 22.361C56.952 22.9133 56.1539 23.3066 55.7005 23.1003C52.109 21.4664 48.9499 19.314 45.1717 18.0195C32.3312 13.9322 20.3379 11.8492 6.85896 13.6459C6.15918 13.743 3.22683 14.0904 2.82617 13.6933C0.356248 11.2451 6.58331 9.97647 8.45521 9.55188C11.3446 8.89643 15.0821 8.50169 18.272 8.45645Z" fill="#FCF8F3"/>
<path id="Vector_3" d="M37.7178 0.00626645C38.5237 -0.092166 45.1166 0.995786 46.1983 1.38931C47.8225 1.98004 51.6613 3.23694 53.1689 4.07803C59.7016 7.76144 65.6679 12.9118 70.4819 18.6563C71.2847 19.6142 74.4626 22.9659 74.125 23.9958C73.3526 24.4709 72.846 23.8817 72.3581 23.3484C71.3738 22.1271 69.9977 20.8913 68.9117 19.7968C63.2342 14.0749 56.2143 10.031 48.5283 7.67369C46.7351 6.97858 45.6135 6.80081 43.7294 6.11379C41.4489 5.28228 35.299 5.13186 34.4588 2.54719C33.997 1.12668 36.3498 0.182711 37.7178 0.00626645Z" fill="#FCF8F3"/>
</g>
</svg>
