<svg width="94" height="151" viewBox="0 0 94 151" fill="none" xmlns="http://www.w3.org/2000/svg">
<g id="@S-Audit-Icon">
<path id="Subtract" d="M59.7842 7.19543C60.6211 6.9086 61.5799 6.91512 62.3574 7.36535C64.0418 8.24856 64.1616 10.2153 64.3965 11.881C64.5273 12.8078 65.0484 14.4043 64.959 15.2755C64.7641 17.1702 64.651 18.1543 65.0625 20.0802C65.4417 21.8548 65.1846 23.693 64.584 25.421C65.2086 27.1575 66.1246 27.1378 67.7529 27.7501C69.562 26.9056 72.1921 27.3107 74.0156 27.9708C75.0882 28.3592 76.1473 28.9 77.2363 29.2189C78.2797 29.524 79.3793 29.5798 80.4062 29.9581C82.7435 30.8194 88.3876 33.8913 89.4355 36.1466C89.6893 36.6925 89.7891 37.3025 89.5869 37.88C89.3556 38.5415 88.719 39.0052 88.1025 39.2814C86.6194 39.9465 85.0512 39.9711 83.4756 40.1886C82.6091 40.3082 81.7442 40.5023 80.8711 40.5626C79.7434 40.6405 78.6027 40.6147 77.4795 40.7501C75.9076 40.9397 74.2817 41.4187 72.7031 41.4327C71.5417 41.4431 70.448 41.0761 69.3018 40.9786C69.4689 42.238 69.8643 43.1457 70.1699 44.3595C70.3608 45.1181 70.9072 49.1387 71.293 49.5109L71.5625 49.4474C71.7341 49.6059 71.9293 50.1813 72.042 50.4298C72.6152 51.6733 72.9881 52.9614 73.2568 54.2999C73.4128 55.0742 73.3994 56.0812 73.5957 56.8146C74.0794 58.6198 74.4516 60.0787 74.3262 61.965C74.3012 62.343 74.8939 63.6523 74.8887 64.1163C74.9946 64.8895 74.9689 65.811 75.0801 66.5753C75.1637 67.1497 75.4234 67.9419 75.5615 68.5323C75.7227 69.2224 75.865 69.9015 76.0195 70.5948C76.1673 71.2553 76.7984 72.3392 76.9014 72.9542C77.1506 74.4526 77.3206 76.0718 77.5117 77.5831C77.6147 78.3952 77.6075 79.146 77.7627 79.9767C78.1829 82.1645 79.0804 84.2109 79.5469 86.3868C79.8992 88.0284 79.8318 89.7523 80.1064 91.382C80.3953 93.0913 80.6705 94.7642 80.8848 96.4884C81.0102 97.4912 81.39 98.5629 81.4863 99.5821C81.7505 102.448 82.0307 105.316 82.2539 108.186C82.3211 109.047 82.5469 110.019 82.6514 110.887C82.773 111.896 82.8633 112.9 82.9648 113.911C83.0962 115.229 83.2685 116.542 83.4805 117.85C83.6775 119.026 84.2594 121.362 84.0879 122.478C83.7475 124.588 83.3911 126.84 82.332 128.724C81.9096 129.475 81.0287 130.367 80.6973 130.984C79.5001 133.22 78.3998 134.063 76.1025 135.102C75.6479 135.308 74.7681 136.266 74.2793 136.542C73.6262 136.975 72.7876 137.196 72.083 137.552C71.5292 137.836 70.9904 138.358 70.4394 138.623C69.1718 139.232 67.6973 139.518 66.4053 140.04C64.9844 140.614 63.6741 141.19 62.1826 141.581C61.5485 141.748 60.851 142.122 60.2041 142.292C59.244 142.592 58.2494 142.837 57.3037 143.181C56.5094 143.486 55.6886 143.532 54.8545 143.639C53.6418 143.794 52.4409 144.029 51.2119 143.996C48.6732 143.929 46.1069 143.774 43.5996 143.359C43.0267 143.264 42.3935 143.27 41.8281 143.143C41.0058 142.957 40.2058 142.611 39.3789 142.433C36.4318 141.931 33.6736 141.012 30.9062 139.901C29.9891 139.534 29.0866 138.842 28.1699 138.446C26.2563 137.6 24.0279 136.319 22.4394 134.957C21.7489 134.189 21.1783 133.374 20.4678 132.617C19.7423 131.844 18.6053 131.306 17.9795 130.501C17.2346 129.468 16.9569 128.258 16.3848 127.119C15.8504 126.055 14.8731 125.077 14.8857 123.81C14.8931 123.087 14.9449 122.273 14.8564 121.579C14.7104 120.431 14.5339 119.367 14.5977 118.209C14.7054 116.247 14.862 114.297 14.9619 112.336C15.0074 111.537 15.2077 110.483 15.2881 109.648L15.9502 102.466C16.1213 100.618 16.1907 98.7992 16.2939 96.9523C16.4355 94.418 16.8946 91.8748 17.0478 89.3361C17.1024 88.5188 17.0695 87.6858 17.0801 86.8663L16.9932 86.8107C15.9413 86.1555 14.4122 85.8683 13.2812 85.1886C12.4501 84.7121 11.925 83.9857 11.2695 83.2755C10.8639 82.8362 9.75533 82.4125 9.46288 82.0187C8.71126 81.0047 7.86334 79.4646 7.24316 78.3448C6.93482 77.7887 6.81602 77.1336 6.61718 76.548C6.39596 75.5864 6.45379 74.5891 6.08691 73.6554C5.88911 73.0535 5.70909 72.431 5.46874 71.8448C5.09719 70.9693 4.67243 70.2401 4.49218 69.2941C4.1182 67.3307 4.3984 65.4556 4.52245 63.5021C4.62643 61.8647 4.79499 60.5213 5.25097 58.9366C5.41829 58.3551 5.49431 57.6553 5.82226 57.1202C6.07004 56.734 6.62478 56.2858 6.90234 55.8605C7.22116 55.3717 7.56103 54.3122 7.85546 53.8761C8.49984 52.9224 9.64584 51.6242 10.4238 50.7648C11.6493 49.5498 13.3285 48.9244 14.6719 47.8487C15.4884 47.1949 15.9864 46.2917 16.8779 45.7306C17.7469 45.1837 18.7893 45.0362 19.6934 44.6075C21.1447 43.9194 22.5043 42.942 24.0928 42.5646C25.1229 42.2995 26.1756 43.1515 26.5244 42.8507C26.5362 42.6374 26.5413 42.4237 26.54 42.2101C26.695 42.075 27.771 42.1274 28.0322 42.1505C29.9908 42.3215 31.9231 42.8021 33.8408 43.214C34.689 43.3737 35.6082 43.6748 36.4658 43.7228C38.9328 43.8606 41.3838 43.2885 43.7851 42.8243C45.8413 42.427 47.7784 42.2656 49.7519 41.4933C50.3154 41.3142 52.0189 40.9529 51.9473 40.1251C51.8861 39.4206 51.535 38.9948 50.7695 39.1544C47.1263 39.9142 43.3908 39.9286 39.6875 40.1583C39.1026 40.1946 38.4549 40.1309 37.8633 40.1359C36.4856 40.0662 35.066 40.2193 33.6963 40.1847C32.3938 40.1518 31.0776 39.9824 29.7656 39.9513C27.9316 39.9077 26.108 40.0319 24.2803 40.0636C23.288 40.0807 22.0625 39.5478 21.083 39.3663C20.2765 39.1822 19.2604 39.0036 18.4795 38.7101C16.8002 38.0788 15.2026 36.7013 13.709 35.6954C13.3061 35.3928 12.7549 34.8628 12.71 34.337C12.6252 33.3401 13.7381 32.0908 14.2881 31.3556C15.7476 29.4045 18.2119 29.6533 20.3535 29.4835C20.8511 29.4441 21.526 29.1597 22.0371 29.089C23.9793 28.8121 25.7037 28.1949 27.5098 27.4571C28.0903 27.22 28.7529 27.0456 29.3203 26.7618C30.0466 26.3868 30.5813 26.0061 30.7393 25.172C30.8775 24.4523 31.0194 23.5286 31.1328 22.8243C31.2066 22.3665 31.7021 20.8349 31.6797 20.5968C31.4702 18.3742 31.9657 17.9926 33.2637 16.3195C33.5083 16.004 33.7333 14.6171 33.9414 14.1935C35.0659 11.6761 36.9646 8.6975 39.9434 8.29113C41.1776 8.12275 42.1527 8.63354 42.7314 9.72082C42.6071 9.92282 42.2388 9.85953 42.1934 10.0236C41.5855 12.2274 42.5124 14.6299 43.6416 16.5187C44.5063 17.9649 46.1271 21.3866 48.125 21.2032C48.2369 20.6638 48.1735 20.4495 48.082 19.9112C46.9923 18.0442 46.0252 16.1077 45.1875 14.1153C46.2877 14.7429 47.0734 15.4608 48.3408 15.1222C50.2495 14.6123 51.1745 12.6181 52.9355 11.9327C53.4012 11.7515 54.2459 11.6556 54.7607 11.5753C54.9201 11.4318 55.0713 11.2464 55.168 11.0577C55.4309 10.5445 55.6409 10.0217 55.9141 9.51281C56.6517 8.13852 58.4066 7.66762 59.7842 7.19543ZM38.2744 134.195C38.574 134.46 39.5431 135.282 39.9111 135.3C40.4318 135.452 40.739 135.556 41.2803 135.442L41.2812 135.359C40.9411 135.173 40.7972 135.182 40.4121 135.15C39.8605 134.976 39.687 135.145 39.1387 134.651C38.9663 134.496 38.4949 134.283 38.2744 134.195ZM42.8379 129.75C42.9781 130.243 43.4414 131.499 43.8018 131.84L43.8906 131.809C43.7326 131.481 43.0162 129.899 42.8379 129.75ZM40.6426 118.523C40.401 118.629 40.0879 118.779 40.0264 119.057C39.5915 121.024 42.022 123.03 43.5781 123.505C46.2818 124.33 51.8318 123.586 53.7744 121.59C54.2468 121.137 55.3074 120.094 54.668 119.401C54.1136 119.167 53.3217 119.784 52.8076 120.036C50.3233 121.258 47.8282 121.339 45.1348 121.237C43.0245 121.158 41.9962 118.639 40.6426 118.523ZM42.6914 115.508C42.7423 115.913 42.7456 116.283 43.0976 116.542C43.03 116.235 42.9509 115.693 42.6914 115.508ZM52.1318 108.762C51.6442 109.235 51.161 109.754 50.6543 110.2C50.0987 110.69 49.4011 111.063 48.8125 111.515C47.6764 112.42 46.6565 113.217 45.3926 113.96C45.5323 114.438 45.5744 114.641 45.6348 115.135L46.293 115.452C47.2409 115.766 47.9073 115.692 48.8018 115.207C50.6753 114.192 51.0977 114.216 51.8428 112.106C51.9532 111.793 52.4333 110.926 52.5293 110.653C52.659 110.284 52.1433 109.357 52.1826 108.828L52.1318 108.762ZM53.8037 100.012C50.1828 100.243 44.8645 103.793 42.4551 106.5C41.7589 107.283 41.0807 108.696 41.9336 109.595C42.6174 110.316 43.9974 108.987 44.6582 108.599C46.9071 107.279 49.265 106.025 51.4795 104.657C52.7985 104.038 54.1738 103.448 55.4678 102.838C55.7987 103.736 56.1832 104.636 56.2578 105.594C56.4087 107.538 56.0151 109.448 55.8867 111.373C55.8685 111.648 55.9299 111.818 56.1035 112.018C57.0922 112.472 57.6759 111.315 57.9863 110.519C58.5714 109.016 59.0298 107.082 59.0557 105.465C59.0339 104.898 58.3746 102.297 58.168 101.731C56.8147 100.549 55.6152 99.9657 53.8037 100.012ZM54.7119 97.9718C53.7748 95.777 51.0294 95.3663 48.8643 95.5353C44.6845 96.1779 41.5704 98.9774 38.9766 102.122C38.3557 102.875 36.5502 105.735 38.6748 105.68C38.6702 105.678 41.6431 103.52 41.8887 103.319C43.2872 102.25 44.8043 101.398 46.2656 100.427C47.7117 99.4657 49.1932 98.8325 50.8369 98.298C51.5103 98.0784 52.1808 97.7684 52.9121 97.8263C53.7118 97.871 53.9559 98.9605 54.71 98.4308C54.7828 98.2583 54.7891 98.1524 54.7119 97.9718ZM9.67285 74.4503C9.90957 75.3457 10.6406 77.25 11.1924 78.0763C11.937 79.1915 13.2315 80.6296 14.0029 81.8155C13.9908 81.8623 13.9779 81.9104 13.9658 81.9571L13.8271 82.0948C15.5294 82.7604 17.1247 83.5828 18.8887 84.0675C19.0992 84.1248 19.403 84.2629 19.6055 84.3478L19.6709 84.2902C20.6082 83.4669 20.5066 84.6466 20.8867 84.753C21.7778 85.003 22.9437 84.7304 23.8721 84.7423C24.6704 84.7566 25.3344 85.4224 26.1494 85.6398C26.743 85.7983 28.7159 85.6037 29.0723 85.8234C30.7032 86.8272 32.4147 90.7477 33.25 92.3751C34.0197 93.8759 34.5146 95.6423 35.3818 96.8497C35.1163 97.4979 32.5255 99.8026 34.1758 100.306C35.5734 100.732 37.4864 99.1195 38.6143 98.4903C40.5343 97.4198 42.0413 96.0028 43.7685 94.7052C45.0618 93.7337 46.6994 92.6147 48.1074 91.8136V91.8126C49.4256 91.47 50.984 92.3046 51.75 93.3429C51.8976 93.5431 52.1135 93.9519 52.2559 94.0206C52.8598 93.4765 51.6612 92.1187 51.2695 91.7364C50.6688 91.1498 50.0534 90.7939 49.2695 90.5206H49.2705C47.245 89.8953 45.2558 90.5025 43.4326 91.4093C43.4538 90.4878 43.5612 90.0102 44.001 89.1886C43.5329 88.6854 42.8363 88.114 42.7539 87.4962C42.195 87.3182 39.6615 89.1886 38.4189 86.7667C38.3619 86.6537 38.3088 86.5387 38.2598 86.422C38.4426 85.4359 38.4939 85.2744 39.3643 84.6671C39.9295 84.2727 40.5703 83.9778 41.1543 83.628C42.1688 83.0191 42.6813 82.4366 43.8408 82.1046C43.9304 81.5648 44.8784 80.216 45.2178 79.6798C46.051 78.3629 46.6966 77.014 47.4443 75.6534C46.7355 76.0007 46.0651 76.1889 45.3447 76.4903C44.2714 76.9396 43.3702 77.5303 42.2178 77.796C41.3643 77.9931 40.4985 77.9336 39.6787 78.0802C39.0685 78.1897 38.2319 78.762 37.584 78.8946C36.5321 79.109 35.4563 79.0677 34.3809 79.1778C32.7305 79.3469 30.846 79.7562 29.2041 79.7823C27.8904 79.8039 26.2479 79.4685 24.8672 79.3829C23.4782 79.2966 21.6917 79.1688 20.3623 78.8019C19.8292 78.6552 19.3084 78.3435 18.6855 78.2325C17.7894 78.074 16.6313 78.0928 15.7949 77.8136C13.5879 77.0773 11.6728 75.5828 9.67285 74.4503ZM17.3486 62.7452C17.0204 62.0503 16.1835 62.7616 15.9121 62.9474L15.8603 62.7198L15.7588 62.671C15.125 62.8361 13.6168 63.854 12.956 64.2335C12.3231 64.5971 11.9384 64.8023 11.2471 65.1183C11.131 65.0643 11.0271 65.0269 10.9346 65.004C10.2844 64.8428 10.1861 65.404 10.2461 66.0655C9.7106 66.9486 9.56964 67.167 8.68456 67.6886C8.77253 68.37 8.81581 69.0083 8.86328 69.6935C10.2819 70.5038 11.677 71.5476 13.1445 72.2677C14.3098 72.785 15.593 73.032 16.6924 73.7042C18.1878 74.6189 20.0946 74.5854 21.793 74.9562C19.3837 72.9121 17.896 68.5067 17.6602 65.4601C17.5151 64.6827 17.6796 63.4464 17.3486 62.7452ZM40.4971 59.2169C40.4666 60.1839 41.0125 61.5565 41.1816 62.5734C41.5279 64.6562 41.2568 67.7105 40.6894 69.7062C40.4318 70.6114 38.9429 72.7544 38.2393 73.4034C37.4335 74.1467 36.8637 74.4437 35.8828 74.8653C37.3674 74.6586 38.8604 74.5156 40.3574 74.4376C40.5797 73.9919 40.7374 73.6634 40.9199 73.2003C41.5956 73.2281 41.7049 73.2247 42.3301 72.9523C42.9196 72.6366 43.7943 72.1416 44.3945 71.9005C45.8124 71.3308 49.062 70.2283 49.5215 68.6593C49.5565 68.5434 49.587 68.4258 49.6143 68.3077C48.3784 66.4231 46.4646 65.8129 46.3535 63.462C45.8107 63.3505 45.4768 63.2927 44.9639 63.0812C44.2757 62.7973 43.6986 62.1641 43.1172 61.8341C41.8891 61.137 41.8142 60.4031 41.0908 59.3419C40.9992 59.2075 40.6724 59.1624 40.5 59.1359L40.4971 59.2169ZM55.5312 61.1144C54.9471 61.3536 54.5201 61.5204 53.8955 61.6671C54.0816 63.1507 54.0949 64.1947 54.1113 65.6808C54.5613 65.7903 54.9143 65.8833 55.3789 65.9308C55.8254 65.971 56.1925 66.0034 56.6396 66.005C56.0788 65.128 55.5496 64.2834 55.6006 63.2208C55.6171 62.8781 55.7848 61.2183 55.5312 61.1144ZM63.041 60.9825C63.301 62.9327 62.7544 63.9984 61.7568 65.6163C62.296 65.2841 63.056 64.8418 63.5478 64.4767C64.3328 63.8703 65.2203 63.2146 65.9756 62.5841C65.6568 62.1127 65.4227 61.6776 65.1494 61.1808C64.4341 61.1303 63.7508 61.0907 63.041 60.9825ZM34.1269 46.9474C32.5467 46.377 31.3365 45.5553 29.5742 45.7296C28.5253 45.8811 27.2721 46.1119 26.2441 46.3751C26.1136 46.0703 26.3814 46.072 26.1846 45.9767C25.496 46.1835 24.9231 46.4801 24.2461 46.715C23.5326 46.9624 22.4764 47.0957 21.8203 47.378C21.0779 47.6976 20.2092 48.3914 19.5039 48.8448C18.8682 49.2534 18.1774 49.5775 17.5596 49.9786C17.0498 50.3096 16.3086 50.9125 15.8428 51.3165C14.7707 52.2465 11.5642 55.147 10.3262 55.632C9.92079 57.0441 10.3256 57.3843 10.084 58.6984C9.91519 59.6155 9.27301 60.631 8.94433 61.5021C8.65856 62.2594 8.60757 63.0961 8.53906 63.9005C9.52513 63.1305 10.1311 62.4087 11.0391 61.6046C11.9415 60.8055 13.233 60.1667 14.2549 59.5333C15.0366 59.0487 15.7565 58.5482 16.5713 58.1075C17.3932 57.663 18.5987 57.5263 19.3213 57.1153C21.333 55.9703 21.3264 55.3597 23.7314 55.0919L23.6787 55.0978C24.499 54.4326 25.3996 53.9533 26.3779 53.5597C27.0281 53.3112 27.898 53.0002 28.6006 53.0431C29.9696 53.1268 31.5544 53.2365 32.8965 53.4708C34.3196 53.7193 35.7251 54.1654 37.1406 54.4562C38.3852 54.7208 38.4539 54.4583 39.7549 55.0909C41.5092 55.944 42.8502 56.507 44.2959 57.8575C44.8288 58.3554 45.925 59.4859 46.4355 59.8634C47.6284 60.7452 48.1234 60.7443 49.2598 61.8859C48.3434 58.8692 47.1968 55.9405 45.5859 53.2355C44.8091 51.9313 43.2602 50.4506 41.835 49.8409C40.2303 49.1547 38.3625 48.55 36.7471 47.7794C36.0043 47.4251 34.9157 47.2532 34.1269 46.9474ZM24.8613 59.5314C24.7134 59.728 24.5243 59.9267 24.4941 60.1573L24.5537 60.2306C24.7056 60.0464 24.9019 59.8565 24.9453 59.6349L24.8613 59.5314ZM42.8643 45.3693C42.7099 45.5602 42.539 45.7873 42.3652 45.9562L42.4316 46.0333C43.029 46.7201 44.0797 47.3392 44.793 47.9952C46.8538 49.8908 48.725 52.2031 50.082 54.6515C50.5672 55.5162 51.5319 57.7431 52.1035 58.3107L52.25 58.3155C52.5935 57.2658 51.5961 54.2228 51.0596 53.1857C49.4929 50.1578 46.3896 46.1832 42.8643 45.3693ZM54.5713 42.1739C54.827 42.2624 55.3574 42.4338 55.5781 42.5695C56.2414 42.9775 56.0719 43.0547 56.8398 42.8517C57.3093 42.8823 57.5269 42.8932 57.9912 42.8507L58.0117 42.7989C57.8355 42.7535 57.6974 42.7271 57.5586 42.7071L57.0986 42.6564C56.8601 42.6374 56.3807 42.6029 56.1592 42.5421C55.6826 42.4112 55.1217 42.1148 54.624 42.0939L54.5713 42.1739ZM54.6025 42.0919C54.6097 42.0921 54.6169 42.0936 54.624 42.0939L54.6299 42.0861L54.6025 42.0919ZM67.3545 30.2628C67.0001 30.0034 66.3542 30.0401 65.9326 30.0919C64.2005 30.3833 62.6303 30.9996 60.8613 30.9894C60.622 30.988 59.7987 31.0068 59.6328 31.2521C58.9804 33.0172 60.8354 32.5332 61.3848 32.4747C62.6796 32.3607 66.5225 32.0487 67.5225 31.4943C67.7686 31.1537 67.692 30.5101 67.3545 30.2628ZM48.083 19.9112C48.1745 20.4497 48.238 20.6645 48.126 21.2042C48.9712 20.9607 48.6443 20.2849 48.083 19.9112Z" fill="#380102"/>
</g>
</svg>
