<svg width="111" height="100" viewBox="0 0 111 100" fill="none" xmlns="http://www.w3.org/2000/svg">
<g id="@S-Copywriting-Icon">
<path id="Subtract" d="M57.1062 0.0420265C59.2226 -0.127938 62.2777 0.275368 64.4822 0.232456C65.7341 0.208102 67.9552 1.05482 69.2888 1.16312C69.9428 1.42913 70.5725 1.72122 71.2849 1.78714C73.8371 2.02323 75.7942 3.32514 76.2312 5.79886C76.9167 9.43449 76.9352 13.2029 77.3943 16.8662C77.836 20.3904 78.4078 23.9029 78.6355 27.458C78.6605 27.8459 78.6432 29.9837 78.7742 30.2276C79.5349 31.6335 79.956 32.4216 79.8982 34.0996C79.8952 34.9569 80.013 37.488 79.6833 38.2315C78.7933 40.2351 79.2788 41.8701 78.8054 43.8828C80.0639 43.7151 81.679 43.4144 82.8904 43.0459C85.2641 42.3242 87.4668 42.1646 89.9353 42.0371C91.108 41.9766 92.3824 41.8379 93.573 41.7344L98.3484 41.3116C99.745 41.1764 100.947 40.9486 102.396 41.0821C103.077 41.1115 103.61 41.4963 104.234 41.7432C106.035 42.4565 106.6 44.908 107.167 46.5801C107.43 47.3553 107.589 49.4464 107.664 50.3272C107.784 51.7339 107.736 53.1753 108.108 54.5938C108.461 56.7777 108.419 58.953 108.567 61.1387C108.684 62.8641 109.126 64.7362 109.192 66.4961C109.214 67.0736 109.215 67.6516 109.244 68.2237L109.511 73.7178L109.919 84.5664C109.971 86.3245 109.866 87.8116 110.026 89.6084C110.234 91.9412 110.141 93.7854 110.866 96.086C110.23 97.4145 109.206 98.2246 107.667 97.7979C105.45 98.7519 105.576 98.2682 103.371 98.1543C101.913 98.0786 99.8761 98.4288 98.3494 98.4336C97.3151 98.529 96.2477 98.3295 95.2253 98.3926C93.4733 98.5005 91.5811 98.8551 89.8523 99.1084C88.4286 99.317 87.1905 99.5744 85.7585 99.6924C83.2959 99.8963 80.9059 100.091 78.4343 99.9541C74.1111 99.9708 69.8819 100.004 65.5759 99.4912C62.6858 99.2606 59.9294 99.3125 57.1609 98.3047C55.1047 97.5567 54.9479 98.0277 53.5886 96.1192C51.3201 92.8191 51.4742 90.7094 51.2273 86.9034C51.0083 83.528 50.7108 79.9313 50.3279 76.5625C50.2745 76.0929 49.9461 75.4588 49.8992 74.9766C49.7441 73.3824 49.4402 71.8084 49.3728 70.2071C49.3533 69.7285 49.1555 69.4935 49.1609 69.0889C49.1754 68.0137 49.4014 66.9152 49.5925 65.8584C49.9089 65.6541 50.2894 65.5415 50.6482 65.417C50.9648 64.6751 51.1012 63.7061 51.3679 63.0928C52.1109 61.3864 53.2264 59.3147 54.2917 57.8145C53.0857 58.2246 51.2913 58.3376 50.0193 58.8418C49.788 58.933 47.0752 59.0799 46.9656 59.0323L47.0525 58.752L46.9929 58.7071C45.0096 58.9091 42.8269 58.9387 40.823 59.0537C39.7241 59.1169 38.518 58.9277 37.3992 58.9795C33.5078 59.1595 29.6471 59.4414 25.7507 59.209C25.1518 59.1989 24.4801 59.3895 23.8904 59.3741C22.1853 59.33 20.4823 59.3243 18.779 59.251C17.4089 59.1926 15.9752 59.3539 14.5915 59.3057C13.9582 59.2836 12.6606 60.1091 11.9451 60.1407C10.807 60.2115 9.44377 60.0424 8.52318 59.3155C7.16601 58.3118 7.13067 57.8286 6.61791 56.377C6.12988 54.9949 5.71608 53.6982 5.30053 52.2842C4.85019 50.7519 4.05215 49.1921 3.6433 47.6289C2.92725 44.7826 2.46187 41.8952 1.90111 39.0205C1.59757 37.4645 1.28956 36.0596 1.03979 34.4766C0.59507 32.3729 0.387988 30.2902 0.259513 28.1465C0.208481 27.2955 -0.185488 26.5521 0.107169 25.6787C0.573912 24.2862 1.37565 23.0181 1.94408 21.6807C2.46283 20.46 2.97155 19.2441 3.58569 18.0586C3.94892 17.0945 4.26912 16.5332 4.69408 15.6309C5.25198 14.4466 5.66592 13.413 6.33959 12.2598C6.86347 11.3627 7.20074 10.2122 7.82201 9.32035C8.52345 8.13848 9.11557 6.11841 10.3855 5.36625C11.5562 4.86474 12.8901 4.66195 14.1462 4.31839C16.708 3.61771 19.6043 2.80253 22.2312 2.47269C25.4625 2.06697 28.6296 2.14516 31.8503 1.72855C33.1503 1.56043 34.4353 1.26345 35.7517 1.16507C37.034 0.942779 38.6898 1.25585 39.9021 1.10941C41.2077 0.951598 41.7228 0.935313 43.0339 0.971714C44.6946 1.01784 46.4684 0.851095 48.1482 0.857456C49.4903 0.857397 50.9224 0.368118 52.2117 0.278355C53.7896 0.168493 55.5343 0.255208 57.1062 0.0420265ZM105.836 84.6719C104.953 84.9574 103.756 85.4148 102.868 85.5948C100.926 85.9881 98.9702 86.3006 97.0417 86.7852C96.8235 86.84 96.5061 86.8135 96.279 86.8135C95.366 86.7255 94.5172 87.1195 93.6238 87.2256C91.957 87.4229 90.3085 87.7214 88.6287 87.8174C88.228 87.8395 87.7905 88.0005 87.3982 88.0303C86.8694 88.0702 86.2757 87.9762 85.7488 88C84.5059 88.0561 83.3101 88.0099 82.072 87.9121C81.4156 87.8609 80.699 87.9601 80.0378 87.9434C78.559 87.8957 77.0587 87.8461 75.5798 87.836C74.2039 87.8407 72.8308 87.8367 71.4548 87.8272C70.932 87.8237 70.1614 88.0441 69.6804 88.0245C68.5847 87.9792 67.1093 88.1392 66.0632 88.0664C64.7744 87.977 62.783 87.6274 61.6413 87.0821C61.3141 88.1078 61.1256 89.0687 60.8699 90.1094C60.7625 90.5463 60.4209 91.1644 60.2761 91.5928C59.9399 92.5851 59.5993 93.3113 59.1111 94.2393L59.7087 94.5938C61.3005 95.3162 63.6348 95.6642 65.3708 95.7071C70.1061 95.8239 74.8547 95.2047 79.5769 94.9639L91.3826 94.3428C91.876 94.3172 92.3642 94.3042 92.866 94.2745C94.4409 94.1797 96.0568 94.288 97.5984 93.8858C97.9316 93.7988 98.5749 94.1072 98.9499 94.0537C100.663 93.9 102.405 93.3276 104.106 93.2745C104.525 93.2619 105.457 93.4323 105.911 93.4991C106.091 90.9772 106.189 88.5661 105.968 86.0401C105.931 85.62 105.904 85.1654 105.9 84.7442L105.836 84.6719ZM102.468 43.917C101.794 43.8647 101.251 43.8418 100.576 43.9102C99.7897 43.9862 99.0017 44.0761 98.2136 44.1338C97.4942 44.1865 96.7713 44.1641 96.0525 44.2188C93.5595 44.5995 91.0403 44.5976 88.5378 44.8604C86.5164 45.0778 84.5531 45.5773 82.5388 45.8448C82.3153 45.8969 82.0733 45.9287 81.8523 45.9873C81.2872 46.1373 80.6705 46.1645 80.1072 46.2891C78.0243 46.75 75.818 46.6308 73.7185 46.9082C70.0318 47.3953 66.2227 47.7204 62.6941 48.9493C62.1518 49.1383 61.7377 49.4471 61.3259 49.833C61.4461 50.5975 60.5162 52.1499 60.115 52.8389C60.2312 53.0528 60.4262 53.3969 60.449 53.6309C60.5378 54.557 60.5274 55.4981 60.5662 56.4307C60.7289 60.3006 61.3882 64.0636 61.8562 67.8907L62.2449 71.1436C62.4964 73.381 62.8434 75.7755 63.2624 77.9873C63.6612 80.0929 64.0606 82.0003 64.2908 84.1524C64.8398 84.2263 65.3371 84.2988 65.8933 84.3018C66.6114 84.3053 67.3672 84.1826 68.074 84.1748C68.3505 84.1737 68.7737 84.1845 69.0408 84.1446C70.3302 83.9521 71.5287 83.8467 72.8318 83.8223C73.7616 83.8044 74.7494 83.6746 75.6882 83.6709C76.0279 83.6483 76.4675 83.7734 76.8025 83.7491C79.6354 83.541 82.4968 83.6668 85.3328 83.46C85.9026 83.4129 86.4803 83.4537 87.0496 83.4073C87.4584 83.3739 87.9347 83.2243 88.3376 83.2022C89.5644 83.1354 90.7211 82.8754 91.9216 82.6358C92.3556 82.55 92.7604 82.6186 93.1902 82.5674C93.8028 82.4053 94.4126 82.2215 95.0271 82.0684C95.6101 81.923 96.3197 81.9389 96.8884 81.7989C98.6082 81.3757 100.251 81.0797 102.014 80.92C103.031 80.8276 103.615 80.5827 104.683 80.7364C104.994 80.5952 105.302 80.4472 105.605 80.2911L105.715 80.3379C105.744 80.4779 105.762 80.5747 105.782 80.7188C106.031 80.8832 107.498 80.7309 107.888 80.71C107.612 79.4557 107.499 78.6189 107.337 77.3418C107.222 76.4415 106.996 75.5612 106.904 74.6114C106.7 72.4949 106.516 70.3651 106.322 68.2481L104.948 54.4922C104.772 52.8509 104.714 51.1819 104.435 49.5596C104.182 48.0839 104.033 46.6063 103.544 45.1817C103.384 44.7209 102.852 44.2139 102.468 43.917ZM82.5945 55.8223C83.1099 55.8729 83.4867 55.8712 83.9538 56.1094C85.1229 56.7179 85.7065 58.1014 86.0994 59.291C86.2901 59.8692 86.853 60.7491 86.5574 61.3243C85.9172 61.7226 85.1593 60.3799 84.8689 59.9297C84.283 59.0234 83.9159 58.1832 83.1365 57.4043C81.6509 58.4169 81.4109 58.3956 80.5173 60.1524C79.1921 62.7576 77.1847 70.1674 81.8406 70.5537C84.0899 70.7403 86.7176 69.4786 88.3845 68.0118C88.7176 67.7056 89.1231 67.4234 89.5818 67.6846C89.8911 67.861 89.9309 68.2256 90.0173 68.5391C89.9608 68.6361 89.9009 68.731 89.8367 68.8233C87.4532 72.2123 81.6663 74.8709 77.8806 72.1817C74.9715 70.1151 75.5622 64.7428 76.7742 61.836C78.0135 58.8643 79.1023 56.3415 82.5945 55.8223ZM75.5935 37.708C74.2146 37.5508 73.5192 37.4755 72.1189 37.5332C70.8873 37.6273 69.4239 37.8725 68.2185 37.8643C64.4913 37.8388 61.0919 39.5007 57.3826 39.6768C55.1662 39.7794 52.9814 39.8949 50.7761 40.17C50.1257 40.2555 49.472 40.5529 48.8249 40.6338C47.2676 40.8285 45.7238 41.0041 44.1638 41.1817C40.7822 41.5666 37.3883 41.9721 33.9929 42.2559C32.8979 42.3474 31.6326 42.2283 30.5222 42.1866L24.2371 41.9014C22.5228 41.825 20.8219 41.6658 19.116 41.6133C17.5719 41.5658 16.2965 41.2906 14.8035 40.9356C13.9591 44.045 12.8634 47.0301 11.5974 49.9883C11.5793 50.0312 11.0829 51.8408 11.0808 51.878C11.1567 52.8319 8.57062 55.6208 10.4128 55.7305C11.2541 55.7805 12.2879 55.6379 13.0535 55.5371C14.5485 55.3429 15.671 55.4908 17.1511 55.4444C17.8404 55.3871 18.5251 55.3224 19.2146 55.2598C19.7674 55.2092 20.4153 55.3064 20.9451 55.251C22.2135 55.1187 23.5757 55.1952 24.8249 55.1123C26.4379 55.0057 28.0235 54.8817 29.6404 54.8233C30.0501 54.7988 30.7452 54.995 31.1394 54.9737C31.9662 54.9284 32.8094 54.8356 33.6365 54.7647C34.2997 54.7081 35.0311 54.8423 35.6599 54.8125C36.6267 54.7666 37.5653 54.5842 38.5544 54.5889C39.2834 54.5925 39.9283 54.6904 40.6404 54.7285C41.4038 54.7697 42.2881 54.7984 43.0515 54.7823C44.4195 54.7524 45.7461 54.5212 47.1326 54.5391C47.867 54.5487 48.8041 54.7774 49.4802 54.7471C50.7193 54.6923 51.9976 54.6098 53.24 54.5401C53.7114 54.5133 54.311 54.3006 54.7956 54.3077C55.1938 54.313 55.7805 54.5091 56.1501 54.6563C56.5984 53.736 57.3145 52.8479 57.7986 51.9571C58.9206 49.8931 59.3029 48.5406 61.5076 47.3897C63.4449 46.3785 65.326 45.8501 67.4958 45.4991C68.316 45.3479 69.1502 45.0533 69.9949 44.9883C71.4471 44.8149 73.085 44.7751 74.5027 44.5176C74.5176 43.8858 74.513 42.7977 74.6501 42.2119C74.9917 40.7572 75.2227 39.1376 75.5935 37.708ZM59.1521 3.48539C58.0085 3.41261 55.5477 3.27177 54.4841 3.37894C53.2813 3.55569 52.3169 3.47012 51.156 3.56839C46.9134 3.92751 42.7263 4.02895 38.4714 3.9473C35.9056 3.89819 33.0457 4.4125 30.491 4.69828C28.7141 4.89699 27.1081 4.85472 25.3337 4.86527C22.7529 4.9764 20.1554 5.56246 17.6062 5.95902C17.0067 6.05244 16.2455 6.4663 15.6228 6.58792C14.2745 6.8482 13.3516 6.98648 12.0271 7.41605C11.9333 8.03793 11.8031 8.75275 11.822 9.37796C11.8713 11 12.2205 12.6289 12.3669 14.2373C12.6007 16.7998 12.7539 19.3788 12.989 21.9395C13.1333 23.5098 13.44 25.0824 13.5671 26.6592C13.6364 27.3458 13.7179 28.011 13.8806 28.6807C14.2708 30.2873 14.6795 32.1634 14.9343 33.7823C15.6101 38.0749 14.6029 38.4114 19.5105 38.3184C23.4907 38.2429 27.7982 38.9671 31.8367 38.5498C32.3375 38.4987 32.8971 38.575 33.4011 38.5528C33.4634 38.5502 33.7077 38.4643 33.8201 38.4444C35.0358 38.2729 36.2614 38.235 37.4822 38.0801C37.9339 38.0228 38.5143 38.0888 38.9578 38.002C39.8878 37.8196 40.58 37.4736 41.571 37.5977C41.6851 37.612 42.4436 37.2673 42.6433 37.2666C43.106 37.1949 44.0014 37.3385 44.4119 37.253C46.2157 36.8764 48.0328 36.6143 49.823 36.1768C50.4746 36.0175 51.249 36.041 51.9197 35.9297C53.0158 35.7478 54.0724 35.4122 55.1941 35.4317C55.8317 35.4428 56.6026 35.493 57.2273 35.3487C58.5035 35.0535 59.8144 34.814 61.0906 34.5323C61.7139 34.3945 62.4158 33.9764 63.0642 33.8623C63.451 33.777 63.9454 33.8334 64.4031 33.7588C65.1516 33.6367 65.9218 33.4045 66.6501 33.2901C67.1359 33.2139 67.8896 33.292 68.4343 33.2364C69.041 33.1742 69.6119 33.0107 70.1882 32.9336C70.5875 32.8803 71.3695 32.9493 71.8083 32.9366C72.4249 32.9184 73.0486 32.8898 73.6658 32.876C74.4406 32.8587 75.5094 33.1492 76.2576 33.003C76.4853 32.3425 75.5832 29.4851 75.4744 28.6827C75.3474 27.7473 75.107 26.7818 74.946 25.8535C74.3004 22.0891 74.1874 18.2712 73.571 14.503C73.5044 14.0949 73.5635 13.3829 73.4831 13.0215C73.2078 11.7838 73.2881 10.3367 73.1648 9.14457C73.0879 8.40196 72.713 6.37432 72.4441 5.74808C70.3676 4.94591 66.6307 3.98791 64.4441 3.75003C62.9198 3.58421 60.7473 3.58681 59.1521 3.48539ZM25.488 15.2119C26.7347 15.3164 27.9066 15.1931 28.7888 16.2471C29.1962 16.7338 29.5233 17.3937 29.5447 18.0645C29.547 18.1471 29.4621 18.2968 29.3826 18.3457C28.7531 18.7282 27.7489 17.8664 27.1462 17.6319C26.8122 17.4925 26.3632 17.3476 26.0066 17.2998C23.9647 17.0268 22.3238 20.3052 22.1824 21.959C22.025 23.8003 22.228 25.4876 23.3972 26.9532C23.7664 27.4159 24.2858 27.7445 24.8953 27.7803C27.489 27.8402 30.5038 25.5281 32.3816 23.9834C33.4893 23.2554 33.7831 24.3048 33.1413 25.1709C31.1355 27.8765 28.1214 30.5899 24.531 30.4737C24.0522 30.4575 22.9541 29.8465 22.5007 29.6094C21.0994 28.7272 20.2884 26.8465 19.9636 25.2744C19.4823 22.9439 19.8511 20.0034 21.1208 17.9571C21.9374 16.7056 22.9218 15.563 24.4412 15.2325C24.777 15.1956 25.153 15.1839 25.488 15.2119ZM48.5818 13.3907C49.9659 13.2741 51.6427 14.1676 52.3415 15.3702C52.7092 16.0142 52.8038 16.7798 52.6042 17.4942C52.2994 18.5641 51.4425 18.9944 50.5466 19.4873C52.6271 21.1063 53.1588 20.9366 54.7038 23.3936C54.941 23.7701 55.289 24.2356 55.3953 24.666C55.4416 24.8534 55.4457 25.0698 55.3181 25.2295C55.2107 25.3631 54.9967 25.4544 54.8318 25.4864C54.2503 25.5974 52.222 23.5149 51.6609 23.0635C51.1828 22.6792 50.6639 22.3512 50.1482 22.0205C49.1133 21.3009 48.097 20.7373 46.9988 20.1202C47.0798 20.8795 47.0935 22.2044 47.7263 22.794C47.8623 22.6893 47.844 22.6751 47.9929 22.6534C48.1436 23.0698 48.1135 23.6704 48.2195 24.1299C48.262 24.4487 48.764 25.1726 48.4685 25.4737C47.6394 26.3158 46.9376 25.3966 46.5554 24.8457C45.6556 23.5488 45.1222 22.1975 44.9685 20.6446C44.789 18.8298 44.6056 16.5401 45.7654 15.0157C46.5234 14.1088 47.4059 13.5219 48.5818 13.3907ZM42.0603 13.3907C42.6012 13.3518 43.5464 13.2525 44.0183 13.4805C44.2948 13.6143 44.4065 13.9167 44.5076 14.1905C44.3973 14.9066 40.1241 15.94 39.3474 16.0118C39.566 16.7116 39.7867 17.4193 39.9363 18.1377C40.1642 19.233 40.9061 24.0549 40.2869 24.9092C40.1918 25.0401 40.0575 25.1474 39.8943 25.1719C39.6667 25.2058 39.415 25.1188 39.238 24.9766C38.4262 24.3233 38.3852 22.8481 38.2937 21.9073C38.1571 20.0838 38.0225 18.0237 37.9665 16.2061C36.2672 16.5079 33.9163 16.9984 32.1638 16.9737C31.9095 16.9696 31.829 16.521 31.9841 16.2569C32.8581 15.5588 36.3157 14.7393 37.5281 14.3916C37.9882 14.2597 39.0544 14.1271 39.6072 13.9844C40.4032 13.7788 41.2618 13.471 42.0603 13.3907ZM58.2341 13.0684C59.5631 13.1203 59.8787 14.3231 59.7156 15.4366C59.5534 16.6914 59.4136 17.8839 59.323 19.1504C59.2563 20.0802 59.2684 20.8088 60.4333 20.9463C62.044 21.1361 63.8116 20.5894 65.3757 21.0528C65.6017 21.1198 65.8532 21.4162 65.9128 21.6348C66.311 22.7112 64.8915 22.9215 64.0564 23.1993C61.5145 24.2523 58.2995 24.3104 56.9665 21.4912C55.9609 19.363 56.8129 15.5872 57.4734 13.4825C57.7111 13.3303 57.9816 13.1988 58.2341 13.0684ZM48.7859 15.7559C47.6122 16.3641 47.4885 16.6811 47.0925 17.9287L47.0271 18.1368C47.517 18.0599 48.0017 17.9949 48.4802 17.8633C48.9302 17.7208 50.6793 17.3062 50.3308 16.5957C50.1487 16.2257 49.4768 15.9068 49.0769 15.8116C48.9808 15.7892 48.8834 15.7708 48.7859 15.7559Z" fill="#380102"/>
<path id="Vector" d="M96.0227 14.3853C96.4275 14.3753 96.6803 14.5173 97.0255 14.6976C97.5036 15.9856 97.6574 17.0286 96.5629 18.0689C95.5702 19.0125 94.4775 19.7665 93.4056 20.6122C93.9946 20.927 94.7875 21.5096 95.2513 21.9658C96.235 22.9323 96.8252 23.6758 97.3987 24.926C97.9501 26.1283 98.588 27.1438 98.7746 28.5216C98.8915 29.3848 98.9195 30.2338 98.9177 31.1081C98.7633 32.8837 98.5445 35.365 97.5114 36.8342C97.2502 37.2053 96.2135 37.2912 96.2391 36.4258C96.2767 35.1836 96.1587 33.8932 95.9923 32.6533C95.7252 30.6563 95.7634 29.6802 94.4328 28.116C94.0542 27.6831 93.1486 26.6131 92.7462 26.3259C91.6457 25.541 90.327 24.8671 89.2157 24.07C89.366 25.2235 88.7924 28.1167 88.4222 29.3192C88.3191 29.6541 87.7569 29.8495 87.5608 29.643C86.6737 28.7106 87.026 26.7106 86.6451 25.4958C86.3774 24.6432 85.8676 23.878 85.6882 23.1142C84.9042 22.8014 84.7242 22.5239 84.2294 21.8582C84.2043 20.9515 84.2652 19.8062 84.7176 18.9945C85.4789 17.6271 89.8816 15.9558 91.4215 15.4933C91.8037 15.3785 93.1385 14.9318 93.455 14.9316C93.5117 14.9316 93.6947 15.0487 93.7472 15.0767C94.589 15.1041 95.2835 14.7094 96.0227 14.3853Z" fill="#380102"/>
<path id="Vector_2" d="M24.1113 64.8113C24.1539 64.8071 24.1964 64.8035 24.239 64.8005C25.1259 64.7397 25.8713 65.7286 25.3557 66.1416C25.1794 66.1535 25.0074 66.1357 24.8867 66.2459C24.7455 67.0625 24.8069 67.925 24.8781 68.7272C25.1849 72.1854 27.1524 76.2081 31.2195 75.851C31.4946 75.8308 31.8691 75.8874 32.1384 75.8516C33.8678 75.6251 35.3524 75.1 37.1225 74.9331C37.0556 74.6512 36.9532 74.1756 36.8471 73.9378C36.1523 72.3827 36.1752 70.8712 36.2906 69.2088C36.3211 68.7689 36.5178 68.4244 36.8838 68.1491C38.4819 66.9469 39.2518 69.362 40.0157 70.3067C41.1173 71.6687 42.2009 72.7826 42.9531 74.3973C43.7169 76.0364 44.4396 77.3787 42.4308 78.5159C40.6093 79.4272 39.0399 80.6008 37.6283 82.045C36.9249 82.8342 35.8804 83.4207 35.1237 84.0668C33.5127 85.4424 32.6825 84.0221 33.511 82.5302C34.1515 81.3775 35.1841 80.1294 36.0358 79.069C32.0353 80.8035 25.2283 79.3355 23.7144 74.7412C23.583 74.3425 23.4004 73.8841 23.2439 73.4836C22.4033 71.3325 22.1538 66.3842 24.1113 64.8113Z" fill="#380102"/>
</g>
</svg>
