<svg width="90" height="96" viewBox="0 0 90 96" fill="none" xmlns="http://www.w3.org/2000/svg">
<g id="@S-Design-Icon">
<path id="Subtract" d="M74.0526 10.5223C75.9751 10.5041 77.9727 11.3922 79.6603 12.2339C82.1878 13.4943 89.0673 17.8759 89.8992 20.458C90.1285 21.1709 89.9349 22.1258 89.6332 22.7917C89.394 23.3197 88.9497 23.7475 88.6636 24.2501C88.3498 24.8012 88.1899 25.4337 87.8647 25.9823C87.0959 27.2818 86.0754 28.5001 85.4024 29.8441C84.8735 30.8999 84.4035 31.9843 83.8675 33.0375C83.4338 33.8888 82.9389 34.7081 82.5201 35.5666C82.0366 36.5571 81.6276 37.5817 81.1235 38.5628C79.5723 41.585 77.9372 44.567 76.3618 47.576C76.0743 48.1249 75.8403 48.6995 75.5649 49.2541C75.2327 49.9232 74.8299 50.557 74.4814 51.2179C74.1634 51.8232 73.8978 52.458 73.5727 53.059C73.266 53.626 72.8499 54.1262 72.5461 54.698L64.6557 69.785C63.1906 72.5914 61.5887 75.4601 60.0853 78.2544L56.568 84.7218C55.7536 86.2069 54.2256 89.2078 53.1027 90.4434C52.5311 91.0723 49.6296 91.7598 48.5549 92.097C47.8835 92.3057 47.0491 92.4322 46.3546 92.6515C45.5769 92.8979 44.7667 93.3505 44.0179 93.5976C42.7803 94.0065 41.4867 94.3349 40.2395 94.7282C39.4329 94.9823 38.7336 95.3242 37.944 95.5869C37.3974 95.4847 36.8131 95.4063 36.7487 94.7174C36.5863 92.9766 36.4847 91.1975 36.4857 89.4482C36.4862 88.46 36.6396 87.4427 36.5926 86.4481C36.4593 83.5041 35.884 79.9554 36.518 77.0532C36.7271 76.2424 37.2837 75.4585 37.6172 74.7145C38.7421 71.9033 40.9024 69.4796 42.2347 66.8486C43.783 63.7902 45.3212 60.7749 47.0651 57.8109C48.0261 56.1774 48.8629 54.4496 49.7816 52.794L59.1864 36.125C59.7333 35.154 60.3672 34.2748 60.9175 33.2721C62.2336 30.8566 63.5098 28.4194 64.745 25.9617C65.2757 24.8793 65.7961 23.5169 66.3761 22.4973C67.9691 19.6965 69.7344 16.9558 71.1888 14.0779C71.8691 12.7319 72.317 10.8294 74.0526 10.5223ZM38.3631 78.6921C38.7328 79.8165 38.7061 81.0637 38.8204 82.2399C39.0592 84.6969 38.9056 87.166 38.9539 89.6259C39.4927 90.1213 39.7374 90.3285 40.3406 90.7182C40.9345 91.1022 42.0269 91.6536 42.5134 92.1235C44.2456 91.8246 46.9538 90.6768 48.7698 90.0528C49.3322 89.8484 49.9653 89.6281 50.4735 89.3108C50.4054 89.0951 50.2922 88.7059 50.2076 88.5149C49.5465 88.1607 48.8429 87.7272 48.1378 87.6356C47.0113 87.488 44.4831 89.0155 44.0993 87.0517C43.5535 84.2547 43.0682 84.365 40.6419 83.2831C40.0128 81.6675 40.2605 80.1607 38.9127 79.1151C38.7563 78.9944 38.5372 78.7716 38.3631 78.6921ZM74.4481 35.7933C74.3025 36.3841 73.8664 37.0418 73.6414 37.6334C71.1744 44.1186 66.9177 49.4794 63.265 55.2848C62.8225 55.9882 62.308 56.7521 61.9078 57.4832L50.4951 78.8119C49.4013 80.8167 48.2825 83.7012 46.9424 85.5109C48.6951 85.2063 49.8954 85.1046 51.4755 86.2185C51.6684 86.3555 51.8593 86.4951 52.0477 86.6385C52.3281 86.9565 52.3982 87.175 52.5668 87.5689C53.1499 85.6847 54.3295 83.8725 55.1685 82.1084C56.4449 79.4448 57.7494 76.6522 59.2688 74.1178C60.5452 71.9895 61.3965 69.8077 62.526 67.6445C64.8796 63.1353 67.3558 58.7379 69.545 54.1386C70.4501 52.2369 71.7966 50.2366 72.7934 48.3434L76.9408 40.5845C77.5186 39.4885 78.1648 37.8622 78.8477 36.865C77.8017 36.8487 75.2772 36.3108 74.4481 35.7933ZM69.7658 32.2779C69.4949 32.9204 68.8606 33.7417 68.4959 34.384C67.8208 35.5734 67.1736 36.7774 66.5429 37.9906L60.1638 50.0913L57.361 55.5233C56.6697 56.8948 56.026 58.2796 55.2922 59.6334C53.0723 63.7296 50.652 67.7052 48.4832 71.8312C47.9038 72.9337 47.1085 73.9793 46.5155 75.0796C45.4461 76.8941 44.4405 78.7588 43.3456 80.5548C43.1073 80.9461 42.5747 81.8172 42.2877 82.1084C43.688 82.4165 45.8348 83.1227 45.9336 84.8327L45.9561 84.9368L46.071 84.9181C47.4759 82.8345 48.4146 80.2828 49.5471 78.0474C50.1365 76.8846 50.8921 75.7867 51.4755 74.6233C54.5556 68.4802 57.7836 62.4185 61.0883 56.3948C61.7893 55.1178 62.7352 53.8694 63.477 52.6076C65.7772 49.0665 68.2313 45.7629 70.1093 41.9506C70.7504 40.649 71.3052 39.1766 71.812 37.811C72.1744 36.8347 72.6252 35.8406 72.973 34.8924C72.3781 34.5385 71.7266 33.8816 71.181 33.4222C70.7078 33.0239 70.2431 32.6658 69.7658 32.2779ZM66.0571 28.7204C65.6491 29.3737 65.2037 30.044 64.7823 30.6949C63.4595 32.7384 62.4516 34.8854 61.3346 37.0357C60.5761 38.4656 59.8061 39.8896 59.0244 41.3068L50.0859 57.5705C49.0066 59.5695 47.8379 61.5349 46.8001 63.5609C46.6644 63.8257 46.5066 64.0874 46.3654 64.35C44.475 67.546 42.7759 70.8722 41.0776 74.1748C40.517 75.2673 39.8133 76.2939 39.2709 77.4006C40.5485 78.4804 41.4992 79.0752 42.0207 80.7923L42.1189 80.7717C43.573 77.5657 45.4661 73.9786 47.0779 70.8223C49.1827 66.6147 51.3484 62.4372 53.5747 58.2928C56.2824 53.2987 59.409 48.4763 61.9274 43.3628C62.0955 43.0214 62.3408 42.6744 62.526 42.3373C63.3251 40.8833 64.1811 39.4646 65.0168 38.0319C66.3188 35.7997 67.4499 33.5125 68.5881 31.1955C67.8578 30.5687 67.1354 29.9262 66.5027 29.1983C66.3596 29.0338 66.2236 28.8621 66.0571 28.7204ZM67.5969 25.9999C67.4824 26.8942 67.9827 27.4044 68.4684 28.0736C71.2576 31.9164 75.4778 33.6272 79.885 34.8747C79.9305 34.8873 80.011 34.8601 80.0528 34.8472L80.1264 34.7393C80.2429 34.5538 80.4869 34.2365 80.4699 34.0435C79.8368 33.8686 78.7954 33.5289 78.2372 33.4085C74.5611 32.6159 71.7546 31.0351 69.3791 28.0707C68.9416 27.5498 68.1193 26.3345 67.5969 25.9999ZM69.0229 23.6132C69.101 23.9959 69.5085 24.5567 69.7217 24.8861C71.9997 28.4066 75.5444 31.1184 79.6387 32.1327C80.164 32.263 80.7838 32.5289 81.3326 32.4193C81.4466 32.2943 81.4757 32.2612 81.5642 32.118L81.7673 31.8589L81.7428 31.7303C81.3992 31.5382 80.9184 31.6381 80.5386 31.5438C76.4451 30.5274 72.7018 27.3663 69.8443 24.3836C69.5845 24.1122 69.3629 23.7488 69.0229 23.6132ZM75.24 12.6657C73.8481 14.6759 72.5858 16.7735 71.4617 18.9447C71.1058 19.639 70.7339 20.5179 70.3547 21.2892C70.8536 22.025 71.6506 23.4416 72.2635 24.0126C74.8554 26.4255 78.0886 28.5466 81.3826 29.8568C81.6159 29.9497 82.3725 30.2208 82.5681 30.1984C83.0011 29.2936 83.5482 28.5022 83.9833 27.5662C84.8663 25.6654 85.5469 23.485 86.8039 21.7897C86.8197 21.7672 86.7591 21.5051 86.7509 21.4669C86.9623 20.9862 87.1534 20.6613 87.4153 20.2097C84.9291 17.8497 81.654 15.4059 78.6062 13.809C78.3301 13.6643 77.8978 13.4001 77.6082 13.4174C76.8748 13.4197 75.9343 12.9246 75.24 12.6657ZM75.3882 15.0367C76.6085 15.4153 77.4694 16.5163 78.5513 17.1634C80.4269 18.2858 82.292 19.4774 84.2414 20.4698C84.658 20.6817 85.0511 20.781 85.4436 21.0557C85.5655 21.2714 85.5408 21.1748 85.4898 21.458C85.341 21.4901 85.1905 21.5177 85.0403 21.5395C82.6223 21.871 80.0736 20.046 78.2981 18.5982C77.2886 17.7752 75.5646 16.3903 75.3882 15.0367Z" fill="#380102"/>
<path id="Vector" d="M0.699287 0.0122327C0.912717 -0.0164223 1.12994 0.00545821 1.33337 0.0762C2.39559 0.457167 3.88869 2.31605 4.75853 3.15209C5.20101 3.57725 5.90451 4.25252 6.30786 4.71508C9.08028 7.895 11.7984 11.1263 14.509 14.3594C16.6689 17.0303 18.719 19.7141 21.1109 22.1991L26.6877 27.9394C27.3571 28.6167 28.1128 29.2475 28.7554 29.9572C29.5276 30.81 30.1715 31.7403 30.933 32.6195C31.4994 33.2735 32.3471 34.036 32.7662 34.7946C33.0001 35.1722 32.4897 35.4666 32.4494 35.6902C32.2618 36.7309 31.4953 37.7253 30.4686 38.1621C29.0612 38.761 26.9669 37.8539 25.5192 37.6438C25.193 37.5965 24.7343 37.8358 24.3941 37.8409C23.1833 37.8711 20.6858 37.5747 19.627 37.123C20.7044 38.9378 21.2445 40.7973 22.1925 42.6331C23.3096 44.7966 24.4684 46.9615 25.6088 49.1144C26.0896 49.9116 26.284 50.5947 26.7734 51.4077C27.3047 52.2905 29.1292 53.6243 27.5706 54.6782C26.9472 55.0992 26.0477 54.9362 25.3327 54.7229C23.3957 55.3139 21.6916 55.0511 19.7116 54.8652C18.1967 54.7306 16.6838 54.5743 15.1735 54.3962C15.7552 54.7685 16.4304 55.1258 16.8012 55.6918C18.1377 57.7335 19.0873 60.2498 20.2003 62.4012C22.3922 66.5429 24.4677 70.744 26.4249 75.0014C27.9085 78.1826 29.3738 81.4329 30.8863 84.5981C31.3355 85.5378 32.366 86.9618 32.9527 88.0625C33.3085 88.6699 34.406 90.6586 32.9054 90.7996C32.4713 90.8403 32.1791 90.5923 31.8611 90.3279C30.6159 89.293 29.7008 87.9816 28.6792 86.7442C27.7115 85.5631 26.7495 84.3642 25.7593 83.2001C25.0817 82.4029 24.4533 81.5449 23.7753 80.7464C22.5782 79.3574 21.3173 78.0112 20.0821 76.6561C19.5662 76.0895 19.1357 75.4597 18.6323 74.8834C15.2249 71.2373 12.2004 67.2493 9.07228 63.3646C6.76277 60.4966 4.32046 57.7721 2.41506 54.6067C1.8606 53.6856 -0.0184005 52.5648 1.16683 51.4177C1.74441 50.8751 2.69026 50.7954 3.43464 50.7634C4.33172 50.7254 5.23513 50.6568 6.13198 50.7216C6.985 50.7872 7.83691 50.9747 8.68962 51.0382C9.50995 51.0992 10.3293 51.1223 11.1488 51.1654C10.878 50.7508 10.6134 50.2114 10.3816 49.7671C7.20016 43.6679 3.52883 37.563 0.945358 31.2166C0.629287 30.5048 2.92044 29.6329 3.16456 29.681C5.15604 30.0732 7.00735 30.1196 8.96663 30.2357C10.4039 30.3208 12.1627 30.8252 13.6844 30.9974C13.2439 28.5799 12.2886 27.1488 11.067 25.0504C8.0585 19.8829 5.69319 14.3658 3.27807 8.90463C2.40071 6.92076 0.969999 5.15697 0.479985 3.05397C0.320566 2.36804 -0.0181562 1.46674 0.000654515 0.793163C0.164414 0.575764 0.505383 0.224377 0.699287 0.0122327Z" fill="#380102"/>
</g>
</svg>
