<svg width="128" height="100" viewBox="0 0 128 100" fill="none" xmlns="http://www.w3.org/2000/svg">
<g id="@S-Events-Icon">
<path id="Subtract" d="M58.2096 32.7145C59.343 32.9485 60.543 32.8681 61.6881 32.9821C66.6836 33.4795 71.647 33.21 76.6491 33.3991C77.6754 33.4379 78.6349 33.3194 79.6501 33.195C80.37 33.5632 80.9281 34.2048 81.5144 34.5007C83.8963 35.7029 85.0298 36.7886 86.0046 39.4274C87.1099 38.4155 88.1988 38.8487 89.4919 38.695C92.0253 38.3939 95.4695 38.2526 97.5242 40.1013C97.755 41.3483 97.706 42.4691 97.2986 43.6696C98.9485 42.632 103.851 44.0099 105.542 44.7741C110.1 46.8348 108.368 51.2151 108.517 54.9959C108.631 57.8417 108.813 60.6872 109.309 63.4783C109.437 64.1928 109.37 65.0249 109.392 65.7537C109.248 72.3687 109.09 78.9781 109.042 85.5956C109.025 87.8789 108.774 89.9302 109.201 92.2109C108.734 93.0966 108.54 92.9852 107.607 92.8027C107.011 93.5049 106.552 94.3164 106.011 94.9541C104.542 96.6856 101.671 97.2453 99.5076 97.5517C98.6025 97.6795 97.1568 97.7702 96.2771 97.7207C95.3089 97.6652 94.3847 97.4403 93.3709 97.5127C91.1885 97.6692 88.8914 97.9072 86.6999 97.8662C84.8644 97.8323 82.8258 97.5227 80.9597 97.3955C78.9564 97.2592 77.1835 97.2946 75.2116 97.2627C73.2064 97.2301 71.0315 96.9728 69.0231 96.8926C68.0443 96.8535 66.9048 96.9977 65.9156 96.9736C65.0159 96.9495 64.0947 96.8262 63.1988 96.7949C60.9949 96.7173 58.8326 96.7597 56.6402 96.9912C56.0369 97.0544 55.0925 96.8411 54.4488 96.8476C53.7504 96.8555 53.0717 96.9078 52.3746 96.9521C51.8514 96.9749 50.9889 96.8573 50.524 96.9004C49.061 97.0355 47.4045 98.0411 45.9995 98.4746C44.5532 98.9212 43.0599 99.3077 41.606 99.6982C40.5345 99.9857 39.3384 99.8173 38.2417 99.8447C37.5632 99.8331 36.9609 99.9961 36.2788 100C33.8014 100.015 31.2171 99.1753 28.7758 98.7861C28.2821 98.7079 26.8967 97.7925 26.3901 97.5517C25.0606 96.9206 23.3268 96.2992 22.2426 95.3467C21.6511 95.6955 20.935 95.8659 20.2807 96.0615C18.0526 96.7285 16.0301 97.147 13.6947 97.207C10.287 97.295 6.31535 96.0333 3.81378 93.6484C3.31303 93.1713 2.87781 92.622 2.43877 92.0888C0.532894 89.7724 0.0924336 88.0366 0.0246972 85.0663C-0.0105876 83.5185 -0.0351449 81.8807 0.149698 80.3427C0.248102 79.5232 0.440638 78.7028 0.5872 77.8905C0.752443 76.9754 0.909144 76.0608 1.16826 75.1659C1.54633 73.86 2.09975 72.6501 2.67119 71.4217C4.66578 67.1357 7.2985 62.6939 10.5804 59.2684C11.5891 58.2154 16.6111 53.3631 17.8832 53.4402C18.0512 53.4506 18.1582 53.511 18.2513 53.6531C18.391 53.8662 18.3416 54.1691 18.2015 54.364C17.6277 55.164 16.4796 55.9864 15.7367 56.6931C14.6917 57.6874 13.7163 58.7571 12.7523 59.8289C11.3716 61.365 10.2145 63.0057 9.13021 64.7576C8.5896 65.6312 8.0032 66.4888 7.53059 67.4022C7.11658 68.2015 6.80708 69.0406 6.48664 69.8797C5.57624 72.2659 4.90588 74.5557 4.38605 77.0585C3.76969 80.027 3.03966 85.4296 3.79034 88.3798C3.94911 89.0037 4.2393 89.5764 4.59406 90.1103C5.38016 91.2943 6.4853 92.5531 7.64583 93.3759C8.2691 93.8179 8.95008 94.1798 9.58724 94.6015C10.0989 94.9405 10.7017 95.499 11.3148 95.5996C12.3756 95.7737 13.6634 95.4616 14.6947 95.2158C17.9865 94.4308 21.1496 93.2424 23.8744 91.1933C24.36 90.8458 24.9786 90.4256 25.4291 90.0507C25.9383 89.6401 26.3659 89.0633 26.8471 88.6337C29.3861 86.3681 31.2566 83.5894 33.2797 80.8817C34.0535 79.8459 34.9541 78.7217 35.6518 77.6298C35.6176 76.8415 35.3486 74.5575 35.4116 74.1044C35.3579 74.2126 35.3014 74.32 35.2426 74.4257C34.9147 75.0162 34.5257 75.6066 34.2133 76.1991C33.4641 77.6217 32.3001 78.6632 31.2553 79.8603C30.4812 80.7469 29.7899 81.7231 28.8784 82.4833C28.5951 82.7193 28.3204 82.9885 28.0405 83.2304C25.9367 85.3272 23.4566 87.0737 20.8607 88.5146C20.1915 88.8866 17.6762 90.9307 16.975 90.3584C16.1141 89.6548 18.2304 88.1465 18.7308 87.7402C19.494 87.1182 20.2526 86.4901 21.0062 85.8564C22.0837 84.9397 23.0898 83.9768 24.2221 83.0829C25.194 82.3149 26.1426 81.031 27.1752 80.2343C27.7356 79.802 28.2564 78.9967 28.7768 78.4979C29.549 77.7399 30.1757 77.0981 30.8979 76.2977C31.7161 75.3908 32.0038 74.7271 32.6635 73.826C34.2092 71.7157 35.5329 69.9238 35.9028 67.2332C36.1541 65.4058 35.7311 63.8269 35.7729 62.0164C35.3659 62.7616 35.0294 63.6059 34.6196 64.3406C32.4809 68.1736 29.6127 71.8213 26.5063 74.9149C25.1946 76.2214 18.3426 82.5629 17.0873 82.6689C16.3543 81.9889 18.319 80.2999 18.7435 79.831C19.6031 78.8817 20.499 77.9706 21.3734 77.037C21.9063 76.4679 22.3596 75.7839 22.89 75.2089C25.003 72.9896 26.9714 70.6464 28.9399 68.3045C30.6286 66.2959 32.1161 64.2845 33.4633 62.0242C33.9276 61.2451 34.5017 60.4782 34.9184 59.6736L34.9594 59.5936C34.2985 58.2785 32.7184 57.8165 31.6879 56.742C31.1935 57.7252 30.7418 58.8519 30.1704 59.8006C29.3773 61.1168 28.5101 62.5125 27.642 63.7772C27.1952 64.399 26.6399 64.9715 26.1694 65.5692C23.4939 68.9686 20.273 71.8277 17.0619 74.6991C16.5915 75.1198 15.5393 76.0816 14.8802 76.0438C13.8782 75.4909 16.2547 73.4209 16.7592 72.8934C20.7158 68.7579 24.4994 64.5023 27.7651 59.7898C28.517 58.705 29.1153 57.3947 29.8578 56.2517C28.7003 56.4102 27.5141 56.169 26.3217 56.6658C24.2809 57.5167 22.6612 59.2901 21.0131 60.7107C20.4606 61.1801 19.6387 61.5067 19.0902 61.9539C17.6445 63.1399 16.4162 64.0549 14.8705 65.1483C14.4744 65.4285 11.4605 67.7305 11.1683 66.1151C11.1712 65.3844 12.4429 64.7592 12.8753 64.3758C14.6761 62.7771 17.2627 61.3645 18.9555 59.7176C18.851 59.1003 18.7019 58.1802 18.725 57.5486C18.7981 55.5574 19.4777 52.7734 20.432 51.0359C21.4087 49.2583 22.6986 48.5476 24.5551 48.0144C25.4691 46.115 26.5802 45.9056 28.52 46.0007C28.5971 45.229 28.8415 43.801 29.3237 43.1687C31.1142 40.8209 34.8876 40.5061 37.6011 40.8864C38.4092 40.9996 39.2567 40.8748 39.9409 41.4148C40.8068 42.0514 41.0365 42.6053 41.2075 43.6306C41.7172 43.5289 43.4308 43.2384 43.6841 42.8874L43.5982 42.5485C43.7745 42.3917 44.3894 42.7041 44.7749 42.6921C45.9429 42.5558 47.7698 42.7469 48.8726 42.4196C50.2236 42.0186 52.6093 40.3607 53.8638 39.5778C54.0873 39.438 54.8872 37.953 55.0757 37.6559L58.2096 32.7145ZM74.6549 54.5545C72.6922 53.7266 70.1281 53.0902 67.9908 53.3523C66.5481 53.458 64.9074 53.7444 63.5143 54.2136C61.849 54.775 60.5678 56.2795 59.2203 57.1433C56.9098 58.624 55.4315 59.7166 53.6353 61.8699C47.9076 68.7371 47.1131 80.7394 54.8414 86.4902C55.1625 86.7281 56.0895 87.6452 56.3717 87.7314C57.0513 87.9368 58.8047 89.2704 59.2857 89.4013C60.7441 89.7963 61.9703 90.1432 63.3717 90.7382C64.6372 91.1952 66.5346 91.1461 67.8883 91.1572C70.8102 91.2628 73.3808 91.0108 76.1344 90.0009C76.561 89.8451 77.6108 89.6223 77.9421 89.4052C79.2736 88.5316 80.7803 87.8481 81.9763 86.7958C83.4328 85.5148 84.1864 84.0384 84.9284 82.3153C85.764 80.3724 85.9392 79.006 86.1394 76.9266C86.2764 75.5018 86.6367 74.0224 86.6081 72.5546C86.7117 69.5367 86.1724 66.2608 84.989 63.4705C84.493 62.3008 82.9856 60.4086 82.0866 59.4217C80.4813 57.755 78.4071 56.5629 76.4694 55.325C75.9894 55.0188 75.1854 54.7786 74.6549 54.5545ZM68.109 57.0135C71.2745 56.6865 75.3194 58.184 78.0397 59.7518C79.0005 60.3067 80.1666 61.5795 80.9216 62.4178C84.1899 66.0465 83.8735 71.3691 82.9255 75.829C82.6002 77.0564 82.3827 78.5209 81.6384 79.5907C80.541 81.1658 78.867 82.8701 77.5427 84.2646C76.6886 85.0591 75.5669 85.3378 74.529 85.6689C71.8316 86.53 69.704 86.8924 66.8776 86.6552C65.3874 86.6094 62.2464 85.8693 60.7252 85.4189C59.2804 84.9902 56.6879 83.3267 55.484 82.373C53.2409 80.5942 51.6946 77.1654 51.4292 74.3309C51.116 70.3949 52.0528 67.898 54.5787 64.9813C58.5303 60.4185 61.8564 57.5475 68.109 57.0135ZM77.3405 80.662C77.098 81.031 76.7142 81.5789 76.529 81.9589C76.8159 81.7098 77.2529 81.3502 77.5065 81.0888C77.3928 80.967 77.3802 80.828 77.3405 80.662ZM47.5357 51.2312C45.7092 52.6603 45.5137 54.2653 44.7544 56.2107C42.5822 61.7759 43.4482 67.2376 44.5972 72.8973C45.0474 75.1146 45.3261 78.5647 45.4028 80.8524C45.4291 81.1431 45.4502 81.4531 45.4888 81.7411C45.8323 81.7861 46.1392 81.8309 46.4868 81.8446C46.8456 75.7937 46.6307 69.9039 45.8853 63.8758C45.4606 60.4393 46.2684 56.0428 47.2261 52.7048C47.3043 52.4321 47.6477 51.4577 47.5357 51.2312ZM79.5837 68.1727C77.9818 63.8537 72.9937 59.238 68.0963 61.0525C70.1555 61.2167 70.6235 60.8838 72.8024 61.91C75.2955 63.0888 77.7792 66.1039 78.7263 68.6288C79.951 71.8976 78.8442 77.5563 77.3415 80.661C77.3811 80.8269 77.3941 80.9671 77.5075 81.0888C78.0798 80.551 78.4374 79.9897 78.7614 79.2772C80.3222 75.8343 80.9261 71.7909 79.5837 68.1727ZM33.4477 49.1999C32.7338 48.9234 31.8558 48.5917 31.0942 48.6716C30.8434 48.7008 30.7009 49.1954 30.6274 49.3865C32.7007 51.085 34.8109 51.3369 37.4643 51.1687C38.3108 51.1151 39.8623 50.6739 40.4556 50.0457C40.8183 49.8074 41.4769 49.369 41.4536 48.905L41.3394 48.8103C41.2575 48.7972 41.1775 48.7922 41.1001 48.7947C41.0616 48.7959 41.0234 48.7997 40.9858 48.8044C40.6466 48.8469 40.3453 49.0226 40.0522 49.2234C39.922 49.3126 39.7934 49.4075 39.6636 49.4968C37.6789 50.2271 35.3705 49.9449 33.4477 49.1999ZM84.7605 43.3796C84.3779 43.8568 84.3436 44.109 84.197 44.6902C84.8764 46.2026 86.3207 47.1449 87.8074 47.7761C88.8657 48.2252 92.4379 48.5926 93.4939 48.404L93.5916 48.2976C93.5746 48.1917 93.5551 48.0855 93.5349 47.9802C94.8188 47.4789 95.5603 47.2044 96.6648 46.3249C97.1506 45.8463 97.3415 45.5201 96.951 44.8904L96.8592 44.8532C96.708 45.0133 96.7293 45.0398 96.6453 45.198C96.025 46.3908 93.5969 47.1093 92.324 47.0671C90.5413 47.0079 88.1144 46.4702 86.6374 45.4021C86.1801 45.0708 85.1575 43.44 84.7605 43.3796Z" fill="#380102"/>
<path id="Vector" d="M108.049 0.0231595C109.774 -0.0412569 111.245 0.0341781 112.965 0.181658C114.85 0.329463 117.636 -0.103588 119.277 1.03843C120.688 2.02007 122.872 3.14286 124.178 4.22164C125.521 5.33067 127.288 8.03413 127.335 9.83453C127.358 10.7127 127.352 11.8862 127.129 12.7698C126.346 14.7951 125.014 17.5633 123.698 19.251C122.678 20.4917 121.092 21.0886 119.781 21.8353C117.687 23.0279 115.505 23.5675 113.185 24.1289C112.402 24.2896 111.453 24.7656 110.675 24.8815C106.527 25.4995 102.493 26.9168 98.2596 26.8324C97.3604 26.8144 96.2662 26.7 95.3845 26.7702L95.2984 26.7776C95.1054 28.2004 94.9274 29.0378 95.1602 30.4636C95.5593 31.0237 95.9701 31.2296 96.557 31.5193C98.1011 31.433 99.6101 31.023 100.985 30.3159C101.279 30.1665 101.967 29.3482 102.538 29.8775C103.419 30.6929 101.017 33.38 102.119 34.0767C103.611 35.0209 106.184 32.4483 107.883 32.8555C108.889 33.191 108.038 34.3364 107.825 34.9092C107.537 35.6881 107.403 36.7262 107.379 37.5474C108.23 38.4158 108.516 37.9961 109.51 37.501C110.369 37.0727 110.962 36.7256 111.909 36.538C113.658 37.4564 112.102 38.8187 112.58 40.5788C113.059 42.343 114.812 42.4642 115.153 43.9697C115.22 44.2664 114.818 46.4203 114.75 46.9388C114.953 47.0302 115.167 47.1465 115.367 47.2502C115.567 48.1005 115.806 49.0073 115.704 49.8756C115.501 51.6147 115.098 53.4116 113.263 54.0955C112.211 54.488 111.883 54.5089 110.872 54.0805C110.681 52.961 110.738 49.9888 110.735 48.7514L112.106 48.7416C112.154 47.9666 112.211 47.3447 112.886 46.8415C112.968 46.1672 112.942 45.5564 113.053 44.8741C110.887 43.9322 110.075 42.3318 109.941 40.0224C109.181 40.1632 108.454 40.2978 107.678 40.2112C105.209 39.9354 104.884 37.4116 105.744 35.5294C103.019 37.0557 99.6883 36.6573 99.9387 32.808C98.0516 33.5675 95.303 33.8706 93.944 32.0067C92.9437 30.6344 93.3409 28.8275 93.5613 27.28C93.3969 27.071 93.3291 26.9523 93.1074 26.815L91.5522 26.6777C91.1857 26.6465 89.4694 26.4928 89.0559 26.5651C86.7945 26.9599 84.0603 27.0822 81.877 27.6617C81.4988 27.8609 81.1506 28.494 80.8878 28.7733C79.8392 29.8893 77.6371 31.4886 76.0173 31.3016C75.5765 31.2534 75.1774 31.0179 74.9225 30.6551C74.7816 30.4573 74.7633 30.38 74.8025 30.1754C75.0829 30.0222 75.4128 30.1085 75.6352 30.0376C76.8664 29.6452 77.7167 28.8302 78.4255 27.864C75.8106 28.0661 73.2596 27.9244 70.7386 27.1474C69.602 27.4587 67.5375 27.6214 66.3885 27.3127C63.9947 26.6691 61.822 26.7886 59.3899 26.8069C59.3122 26.7582 59.2359 26.7073 59.1613 26.6541C56.5303 24.8012 57.2977 19.0278 57.7987 16.3043C57.8787 15.8691 58.0022 15.5164 57.5987 15.2338C56.6764 15.1023 56.5314 16.2719 56.1484 16.9048C55.9532 17.2274 55.6344 18.0242 55.5875 18.4062C55.2715 20.9782 55.5875 23.5999 56.3386 26.0728C56.7817 27.5021 57.9362 28.0806 59.1306 28.7107C59.7839 29.0554 60.3228 29.356 61.0338 29.595C61.4927 29.7492 62.1282 29.7945 62.5183 29.9774L62.5294 30.0928C62.4212 30.2159 62.4068 30.2203 62.2634 30.3082C60.4745 31.4026 58.4754 30.3869 57.058 29.1767C56.3576 28.5787 55.6257 27.6049 55.174 26.7785C53.1615 26.5498 49.3769 25.186 47.8378 23.8331C46.648 22.7873 45.3839 20.5565 45.2945 18.8963C45.2616 18.2109 45.3178 17.5241 45.4615 16.8531C45.7359 15.5772 47.2248 11.4955 48.1385 10.6298C52.644 6.36165 58.7575 4.22176 64.7922 3.25421C65.7344 3.06912 66.7778 3.06983 67.7109 2.89132C73.5302 1.76964 79.5328 1.56622 85.4433 1.33796C87.2046 1.26989 89.1838 0.925445 90.9607 0.818388C91.9454 0.759058 92.9522 0.813434 93.9388 0.757167L108.049 0.0231595Z" fill="#380102"/>
<path id="Vector_2" d="M68.6734 22.3107L68.8762 22.3704C69.0157 22.6006 68.9988 22.4867 68.9909 22.7116C68.7842 22.9696 67.6072 23.029 67.1514 23.1092L66.9447 23.0415C67.3092 22.7582 68.1439 22.8689 68.6734 22.3107Z" fill="#393A39"/>
<path id="Vector_3" d="M64.4982 23.8672C64.6606 23.8339 64.5974 23.8131 64.7069 23.8806C64.4872 24.2337 63.8716 24.2076 63.5195 24.172L63.3558 24.1479C63.5155 24.0407 64.24 23.9259 64.4982 23.8672Z" fill="#7B7879"/>
<path id="Vector_4" d="M34.9445 26.4951C35.5399 26.2973 36.4351 26.884 36.7889 27.3627C36.8567 29.2431 36.0727 31.78 35.7597 33.6574C35.5846 34.708 35.4426 36.0261 35.0678 37.0034C35.0036 37.1707 34.1818 37.2241 33.9997 37.2396C32.5635 37.4961 32.9945 36.5071 32.7954 35.5362C32.3775 33.4976 32.3725 31.5894 32.4014 29.5277C32.4176 28.3697 32.1092 27.8974 32.4908 26.6843C33.1842 26.6575 34.2896 26.6145 34.9445 26.4951Z" fill="#380102"/>
<path id="Vector_5" d="M28.1232 31.5583C28.3854 31.5473 28.7398 31.5017 28.9119 31.7251C29.6499 32.6828 29.5767 34.1866 30.1859 35.2819C30.5815 35.9935 31.3362 36.7402 31.5458 37.4175C31.6537 37.766 31.5946 38.8682 31.6266 39.3647C30.2506 39.399 30.0613 39.6923 28.6635 39.214C27.6559 38.8137 26.4781 38.8506 25.4032 38.7069C23.7201 36.8328 26.5273 35.5803 27.2458 33.9759C27.6048 33.1742 27.5199 32.754 27.6826 31.9233C27.7277 31.6928 27.9391 31.6402 28.1232 31.5583Z" fill="#380102"/>
<path id="Vector_6" d="M39.7149 30.0622C41.198 30.056 40.8334 31.8356 41.1386 32.8126C41.307 33.3518 41.521 33.8968 41.7206 34.4266C40.257 35.4327 40.0622 35.5774 38.7876 36.8024C37.2878 37.9905 37.1069 37.0102 37.4242 35.6521C37.6001 34.8988 37.8074 34.1322 37.9886 33.3835C38.2174 32.4384 38.3591 31.4397 38.7636 30.5576C38.9044 30.2505 39.4373 30.1302 39.7149 30.0622Z" fill="#380102"/>
<path id="Vector_7" d="M65.3702 29.4861C67.153 29.2965 69.0734 29.8064 70.8178 30.1299C71.0317 30.1986 72.3756 30.2271 72.4904 30.3969C73.4418 31.806 71.7392 31.9027 71.2469 31.9387C69.8083 32.0597 65.7725 32.2038 64.3699 31.7241C64.1723 31.6254 63.9323 31.3734 63.8978 31.1526C63.6917 29.8436 64.4475 29.6788 65.3702 29.4861Z" fill="#380102"/>
</g>
</svg>
