<svg width="286" height="50" viewBox="0 0 286 50" fill="none" xmlns="http://www.w3.org/2000/svg">
<g id="@S-Nectarine-Logo" clip-path="url(#clip0_37_21335)">
<g id="Layer_1">
<g id="Group">
<path id="Vector" d="M29.9486 18.1013C23.5444 15.1169 19.1398 17.3064 16.6621 19.541C15.7058 20.3958 14.2135 20.0809 13.7498 18.8661C12.6052 15.9117 9.69287 16.8415 8.95393 16.9765C7.80929 17.2015 3.62195 18.8811 2.20202 18.2663C0.782087 17.6514 0.0866115 18.0113 -0.000322952 20.9357C-0.0437902 22.4054 0.463328 22.9753 0.999424 23.1853C1.66592 23.4552 2.05713 24.1751 2.05713 24.9249V42.0365C2.05713 43.6112 1.86877 45.1709 1.46307 46.6856L1.21676 47.5854C1.12983 47.9303 1.37614 48.2603 1.70939 48.2603H12.4603C13.5035 48.2603 14.3294 47.3604 14.2859 46.2806L13.6194 31.3586C13.6194 31.3586 12.8805 26.9495 17.8357 23.3352C21.9796 20.3058 21.6609 26.5896 21.6609 26.5896L22.0955 41.9765C22.139 43.4312 22.0086 44.8859 21.6898 46.2956L21.4 47.6154C21.3276 47.9453 21.5739 48.2603 21.9072 48.2603H33.7447C34.788 48.2603 35.6283 47.3454 35.5704 46.2657L34.672 29.9339C34.672 29.9339 34.4547 20.2009 29.9486 18.1013Z" fill="#F8E4CC"/>
<path id="Vector_2" d="M94.1499 32.6334C90.8754 34.583 86.4852 36.1577 81.1677 36.0377C79.8637 36.0077 79.3276 34.2531 80.3853 33.4432C83.0803 31.3587 85.6014 30.0989 91.0638 28.4942C91.5709 28.3443 92.0345 28.0443 92.3678 27.6244C92.73 27.1595 92.9328 26.5896 92.9328 25.9897C92.9473 23.7702 92.9908 20.2909 93.0053 18.2513C93.0053 17.3815 92.2808 16.7066 91.455 16.8116C87.0648 17.3964 76.5167 18.0713 71.4455 27.9993C65.2297 40.1619 74.7635 49.895 83.5294 49.9999C92.2808 50.1049 95.9755 45.1109 96.1929 44.2111C96.3523 43.5662 96.2798 37.4024 96.2364 33.8482C96.2219 32.7534 95.0772 32.0785 94.1499 32.6334Z" fill="#F8E4CC"/>
<path id="Vector_3" d="M120.39 33.0084C119.709 33.0084 118.883 33.0084 116.956 33.0084C114.507 33.0234 114.102 30.219 114.073 28.5393C114.073 27.8494 114.594 27.2945 115.246 27.2945H119.028C119.68 27.2945 120.201 26.7546 120.201 26.0798V17.8914C120.201 17.2166 119.68 16.6767 119.028 16.6767H115.145C114.493 16.6767 113.971 16.1368 113.971 15.4619V1.75465C113.971 0.779844 113.218 0 112.276 0C111.609 0 111.015 0.404919 110.74 1.03479C109.204 4.57409 104.365 8.08338 102.742 9.17816C102.409 9.40312 102.22 9.77804 102.22 10.198V15.3869C102.22 16.0618 101.699 16.6017 101.047 16.6017H97.468C96.816 16.6017 96.2944 17.1416 96.2944 17.8164V26.0798C96.2944 26.7546 96.816 27.2945 97.468 27.2945H101.453C102.134 27.2945 102.655 27.8944 102.626 28.5993C101.554 49.6101 112.044 48.2453 112.044 48.2453H120.39C121.042 48.2453 121.563 47.7055 121.563 47.0306V34.2232C121.563 33.5483 121.042 33.0084 120.39 33.0084Z" fill="#F8E4CC"/>
<path id="Vector_4" d="M195.675 18.1013C189.141 15.0569 184.692 17.3964 182.229 19.676C181.36 20.4858 179.926 20.2009 179.534 19.0611C178.448 15.8668 175.419 16.8266 174.68 16.9765C173.536 17.2015 169.349 18.8812 167.929 18.2663C166.509 17.6514 165.813 18.0113 165.726 20.9507C165.683 22.4204 166.19 22.9903 166.726 23.2003C167.392 23.4702 167.784 24.1901 167.784 24.9399V44.1811C167.784 44.3311 167.784 44.496 167.74 44.646L167.364 46.0707C167.074 47.1805 167.871 48.2753 168.986 48.2753H178.346C179.303 48.2753 180.07 47.4504 180.027 46.4606L179.346 31.3736C179.346 31.3736 178.607 26.9645 183.562 23.3503C187.706 20.3209 187.387 26.6046 187.387 26.6046L187.272 27.9243C187.185 28.9441 187.938 29.814 188.923 29.829L198.558 29.9489C199.573 29.9489 200.37 29.0641 200.254 28.0293C199.935 25.0749 198.906 19.646 195.675 18.1463V18.1013Z" fill="#F8E4CC"/>
<path id="Vector_5" d="M210.961 16.9765C209.817 17.2015 205.629 18.8811 204.209 18.2663C202.789 17.6514 202.094 18.0113 202.007 20.9507C201.949 22.9453 202.92 23.2903 203.543 23.3053C203.832 23.3053 204.064 23.5452 204.064 23.8451V44.361C204.064 44.361 204.064 44.451 204.064 44.511L203.238 47.6154C203.152 47.9603 203.398 48.2903 203.731 48.2903H215.844C216.134 48.2903 216.38 48.0353 216.366 47.7354L215.177 22.5704C215.467 15.3269 211.903 16.8266 210.961 17.0065V16.9765Z" fill="#F8E4CC"/>
<path id="Vector_6" d="M209.005 14.4721C212.106 14.4721 214.627 11.8627 214.627 8.65331C214.627 5.44395 212.106 2.83447 209.005 2.83447C205.904 2.83447 203.383 5.44395 203.383 8.65331C203.383 11.8627 205.904 14.4721 209.005 14.4721Z" fill="#F8E4CC"/>
<path id="Vector_7" d="M139.022 49.445C139.022 49.445 139.153 49.415 139.211 49.415C139.153 49.415 139.095 49.43 139.037 49.445H139.022Z" fill="#F8E4CC"/>
<path id="Vector_8" d="M142.298 31.8987C142.298 31.8987 142.298 31.9287 142.283 31.9437C142.283 31.9437 142.283 31.9137 142.298 31.8987Z" fill="#F8E4CC"/>
<path id="Vector_9" d="M249.024 18.1013C242.619 15.1169 238.215 17.3064 235.737 19.541C234.781 20.3958 233.288 20.0809 232.825 18.8661C231.68 15.9117 228.768 16.8415 228.029 16.9765C226.884 17.2015 222.697 18.8811 221.277 18.2663C219.857 17.6514 219.162 18.0113 219.075 20.9507C219.031 22.3454 219.495 22.9303 219.987 23.1703C220.683 23.5002 221.132 24.2351 221.132 25.0299V42.0515C221.132 43.6262 220.944 45.1859 220.538 46.7006L220.306 47.6004C220.219 47.9453 220.466 48.2752 220.799 48.2752H231.535C232.578 48.2752 233.419 47.3754 233.375 46.2806L232.709 31.3586C232.709 31.3586 231.97 26.9495 236.925 23.3352C241.069 20.3058 240.75 26.5896 240.75 26.5896L241.185 41.9615C241.228 43.4162 241.084 44.8709 240.779 46.2956L240.489 47.6154C240.417 47.9453 240.663 48.2603 240.997 48.2603H252.82C253.877 48.2603 254.718 47.3454 254.645 46.2507L253.747 29.9339C253.747 29.9339 253.53 20.2009 249.024 18.1013Z" fill="#F8E4CC"/>
<path id="Vector_10" d="M64.4475 33.0083C61.173 34.8079 54.5949 37.9873 49.2774 37.8973C48.2197 37.8823 47.6836 36.8025 48.0893 36.0077H47.93L65.2154 30.0239C66.0703 29.7239 66.5484 28.7641 66.2587 27.8793C64.7808 23.3052 60.0718 12.4174 46.7708 17.8763C38.8598 21.1307 36.7444 31.7485 38.2368 37.9573C39.193 44.7509 47.2635 48.8901 53.856 48.9651C62.6074 49.0551 66.3021 44.481 66.5195 43.6562C66.6788 43.0713 66.6064 37.4174 66.5629 34.1481C66.5484 33.1433 65.4038 32.5284 64.4765 33.0233L64.4475 33.0083ZM47.7561 31.3886C47.7996 29.544 49.7556 26.8445 52.1028 26.4396C54.9572 25.9447 56.1743 27.5944 56.5655 28.3292C56.6524 28.5092 56.5655 28.7191 56.3916 28.7941L48.1618 31.8085C47.901 31.8985 47.7561 31.6586 47.7561 31.3886Z" fill="#F8E4CC"/>
<path id="Vector_11" d="M285.942 34.1331C285.928 33.1283 284.783 32.5134 283.856 33.0083C280.581 34.8079 274.003 37.9873 268.686 37.8973C267.628 37.8823 267.092 36.8025 267.498 36.0077H267.338L284.624 30.0239C285.493 29.7239 285.957 28.7641 285.667 27.8793C284.189 23.3052 279.48 12.4174 266.179 17.8763C258.268 21.1307 256.153 31.7485 257.645 37.9573C258.601 44.7509 266.672 48.8901 273.25 48.9651C282.001 49.0551 285.696 44.481 285.913 43.6562C286.073 43.0713 286 37.4174 285.957 34.1481L285.942 34.1331ZM267.164 31.3886C267.208 29.544 269.164 26.8445 271.511 26.4396C274.365 25.9447 275.582 27.5944 275.974 28.3292C276.061 28.5092 275.974 28.7191 275.8 28.7941L267.57 31.8085C267.309 31.8985 267.164 31.6586 267.164 31.3886Z" fill="#F8E4CC"/>
<g id="Group_2">
<path id="Vector_12" d="M145.094 25.18C144.963 25.075 144.659 24.82 144.529 24.4001C144.311 23.7402 144.673 23.1854 144.731 23.0954C144.934 22.6155 144.949 22.2255 144.76 22.1056C144.586 22.0006 144.297 22.1356 144.268 22.1506C143.427 22.5405 143.978 23.9502 143.022 24.835C142.732 25.105 142.384 25.2399 142.181 25.2999C141.747 25.6299 141.37 25.8548 141.124 25.9898C140.051 26.6047 139.573 26.8596 138.646 27.3695C138.414 27.5045 138.255 27.6845 138.139 27.9094C137.907 28.3593 138.139 28.8992 137.559 29.1542C137.11 29.6041 136.646 30.144 136.589 30.7738C136.574 31.0138 136.632 31.2537 136.704 31.4787C135.342 31.6887 135.864 34.3581 136.299 35.123C136.342 35.213 136.386 35.3179 136.371 35.4229C136.313 36.5927 136.487 37.7624 137.748 38.3623C137.82 39.6221 138.443 40.3869 139.921 40.2969C140.457 40.4469 141.095 41.1668 141.645 41.1218C141.674 41.1218 141.689 41.1068 141.703 41.1068C141.732 41.1068 141.747 41.1068 141.776 41.1218C141.877 41.3917 142.254 41.5117 142.616 41.4817C142.732 41.4817 142.848 41.4517 142.949 41.4217C145.688 40.6419 147.484 40.5219 148.441 37.8824C149.6 36.2178 149.397 31.9886 149.006 30.099C148.296 27.5345 147.426 26.6947 145.079 25.165L145.094 25.18ZM139.052 29.829C139.052 29.829 138.921 29.979 138.849 30.054C138.805 30.114 138.762 30.189 138.718 30.2489C138.689 30.3239 138.66 30.3839 138.631 30.4589C138.588 30.5939 138.559 30.7288 138.53 30.8638C138.472 31.1938 138.429 31.5087 138.414 31.8386C138.414 31.8386 138.414 31.8236 138.414 31.8086C138.414 31.8386 138.414 31.8536 138.414 31.8836C138.414 31.8836 138.414 31.8986 138.414 31.9136C138.414 31.9136 138.414 31.9136 138.414 31.9286C138.414 31.9286 138.414 31.9286 138.414 31.9436C138.414 31.9586 138.414 31.9736 138.414 31.9886C138.414 32.1236 138.414 32.2435 138.4 32.3785C138.371 32.8734 138.356 33.3833 138.313 33.8782C138.313 33.9982 138.255 34.1032 138.182 34.1782C138.182 34.2381 138.182 34.2831 138.168 34.3431C138.168 34.4781 138.168 34.6131 138.168 34.763C138.168 34.913 138.197 35.048 138.211 35.198C138.24 35.3629 138.269 35.5129 138.298 35.6779C138.356 35.9628 138.385 36.2477 138.443 36.5327C138.443 36.5327 138.443 36.5177 138.443 36.5027C138.458 36.5777 138.472 36.6677 138.487 36.7426C138.487 36.7726 138.501 36.8026 138.516 36.8326C138.545 36.9376 138.487 37.0426 138.385 37.1026C138.342 37.1176 138.313 37.1326 138.269 37.1326C138.153 37.1326 138.037 37.0876 137.994 36.9976C137.893 36.8176 137.82 36.6227 137.733 36.4277C137.733 36.4277 137.733 36.4577 137.748 36.4577C137.69 36.3377 137.632 36.2178 137.574 36.0828C137.53 35.9628 137.487 35.8578 137.443 35.7378C137.356 35.4829 137.313 35.2279 137.255 34.973C137.212 34.733 137.168 34.4781 137.125 34.2232C137.067 33.9382 137.009 33.6533 136.951 33.3683C136.922 33.2333 136.994 33.1284 137.096 33.0384C137.139 33.0084 137.154 32.9634 137.212 32.9484C137.212 32.9184 137.212 32.8884 137.212 32.8434C137.212 32.7834 137.212 32.7235 137.212 32.6635C137.241 32.2735 137.27 31.8836 137.313 31.4937C137.356 31.2237 137.4 30.9388 137.472 30.6689C137.545 30.4289 137.617 30.159 137.762 29.934C137.835 29.829 137.907 29.724 137.994 29.6341C138.066 29.5441 138.168 29.4691 138.255 29.3941C138.429 29.2591 138.603 29.1242 138.791 29.0192C138.936 28.9292 139.095 28.8392 139.24 28.7342C139.24 28.7342 139.255 28.7342 139.269 28.7342C139.269 28.7342 139.298 28.7342 139.298 28.7192C139.356 28.6743 139.414 28.6443 139.457 28.5993C139.559 28.5393 139.646 28.4643 139.747 28.3893C139.747 28.3893 139.762 28.3743 139.776 28.3593C139.791 28.3443 139.82 28.3293 139.834 28.2993C139.834 28.2993 139.878 28.2543 139.892 28.2393C139.936 28.1944 139.979 28.1344 140.022 28.0894C140.022 28.0894 140.022 28.0894 140.022 28.0744C140.037 28.0444 140.066 27.9994 140.08 27.9694C140.08 27.9694 140.08 27.9544 140.095 27.9394C140.095 27.9394 140.095 27.9394 140.095 27.9544C140.095 27.9544 140.095 27.9544 140.095 27.9394C140.095 27.9394 140.095 27.9394 140.095 27.9544C140.095 27.9394 140.095 27.9244 140.109 27.9094C140.109 27.9094 140.109 27.8944 140.109 27.8794C140.109 27.8794 140.109 27.8794 140.109 27.8944C140.124 27.8494 140.138 27.8044 140.153 27.7594C140.153 27.7294 140.153 27.6995 140.153 27.6695C140.153 27.6545 140.153 27.6245 140.153 27.6095C140.153 27.6095 140.153 27.5945 140.153 27.5795C140.153 27.5645 140.153 27.5495 140.138 27.5345C140.138 27.5345 140.138 27.5345 140.138 27.5195C140.037 27.3845 140.109 27.2046 140.269 27.1296C140.327 27.0996 140.385 27.1146 140.457 27.1296C140.472 27.1296 140.501 27.1296 140.515 27.1296C140.573 27.1596 140.631 27.1896 140.674 27.2495C140.718 27.3245 140.732 27.4145 140.747 27.5045C140.747 27.5345 140.747 27.5495 140.747 27.5795C140.747 27.6695 140.747 27.7594 140.747 27.8344C140.718 28.1044 140.588 28.3593 140.414 28.5693C140.153 28.8992 139.805 29.1542 139.486 29.4391C139.341 29.5741 139.182 29.6941 139.052 29.844V29.829ZM141.442 30.6689C141.442 30.6689 141.442 30.7738 141.442 30.8338C141.428 30.9238 141.413 31.0138 141.384 31.1188C141.355 31.2987 141.312 31.4637 141.283 31.6587C141.283 31.6287 141.283 31.5987 141.297 31.5837C141.254 31.7786 141.211 31.9886 141.167 32.1836C141.167 32.1536 141.167 32.1236 141.182 32.1086C141.182 32.1536 141.167 32.1986 141.153 32.2285C141.109 32.4535 141.066 32.6785 141.037 32.9034C141.008 33.1584 140.979 33.3983 140.964 33.6533C140.964 33.6533 140.964 33.6533 140.964 33.6683C140.964 33.6833 140.964 33.6983 140.964 33.7282C140.964 33.7133 140.964 33.6983 140.964 33.6833C140.935 34.0432 140.964 34.4181 140.979 34.778C140.979 35.078 141.022 35.3629 140.979 35.6629C140.95 35.9628 140.892 36.2627 140.718 36.5177C140.674 36.6077 140.602 36.6827 140.544 36.7576C140.53 36.7726 140.515 36.8026 140.501 36.8176C140.501 36.8476 140.472 36.8626 140.457 36.8926C140.443 36.9376 140.414 36.9826 140.399 37.0426C140.399 37.0876 140.385 37.1176 140.37 37.1626C140.37 37.2375 140.356 37.3125 140.341 37.3875C140.341 37.3875 140.341 37.3875 140.341 37.4025C140.341 37.4775 140.341 37.5375 140.341 37.6125C140.341 37.6125 140.341 37.5975 140.341 37.5825C140.341 37.6425 140.341 37.7025 140.341 37.7774C140.341 37.8074 140.341 37.8224 140.341 37.8524C140.341 37.8974 140.356 37.9424 140.37 37.9874C140.385 38.1074 140.414 38.2423 140.428 38.3623C140.443 38.4373 140.457 38.5273 140.472 38.6023C140.501 38.7073 140.53 38.7972 140.559 38.9022C140.588 39.0222 140.66 39.1572 140.616 39.2771C140.588 39.3671 140.486 39.4421 140.385 39.4421C140.356 39.4421 140.312 39.4421 140.283 39.4271C140.211 39.3971 140.153 39.3521 140.124 39.2771C140.124 39.2471 140.124 39.2171 140.124 39.1872C140.124 39.1872 140.124 39.1722 140.124 39.1572C140.124 39.1272 140.109 39.0972 140.095 39.0672C140.037 38.9022 139.95 38.7222 139.892 38.5573C139.82 38.3623 139.762 38.1674 139.704 37.9574C139.617 37.6125 139.559 37.2825 139.573 36.9226C139.573 36.7426 139.602 36.5777 139.675 36.4127C139.718 36.3077 139.762 36.2028 139.791 36.0978C139.805 36.0378 139.82 35.9628 139.834 35.9028C139.834 35.7978 139.849 35.6929 139.849 35.5879C139.849 35.183 139.747 34.793 139.704 34.3881C139.675 34.1632 139.66 33.9232 139.646 33.6983C139.646 33.5033 139.646 33.3083 139.66 33.1134C139.675 32.7085 139.733 32.3185 139.82 31.9286C139.907 31.4787 140.008 31.0438 140.109 30.6089C140.182 30.2939 140.559 30.099 140.906 30.159C140.935 30.159 140.95 30.174 140.979 30.189C141.124 30.2339 141.24 30.3089 141.326 30.4289C141.355 30.4589 141.355 30.5039 141.37 30.5489C141.37 30.5789 141.399 30.6239 141.413 30.6539C141.413 30.6689 141.413 30.6989 141.413 30.7139L141.442 30.6689ZM145.108 35.3329C145.166 35.183 145.224 35.033 145.296 34.883C145.354 34.763 145.427 34.6281 145.499 34.5081C145.499 34.5081 145.499 34.5081 145.499 34.4931C145.514 34.4631 145.528 34.4331 145.543 34.4031C145.543 34.4181 145.528 34.4481 145.514 34.4631C145.731 34.0132 145.833 33.5183 146.006 33.0534C146.079 32.8584 146.166 32.6635 146.238 32.4685C146.253 32.4235 146.267 32.3935 146.296 32.3485C146.398 32.1386 146.528 31.9286 146.658 31.7336C146.658 31.7336 146.658 31.7486 146.658 31.7636C146.658 31.7636 146.658 31.7486 146.673 31.7336C146.673 31.7336 146.673 31.7486 146.658 31.7636C146.658 31.7636 146.673 31.7336 146.673 31.7186C146.716 31.6437 146.745 31.5537 146.789 31.4787C146.818 31.3887 146.847 31.2837 146.876 31.1938C146.876 31.1488 146.89 31.0888 146.905 31.0438C146.905 30.9688 146.905 30.8938 146.905 30.8038C146.905 30.7288 146.876 30.6539 146.861 30.5789C146.818 30.4439 146.774 30.3089 146.731 30.189C146.629 29.964 146.528 29.739 146.427 29.5291C146.325 29.3491 146.209 29.1842 146.093 29.0342C145.977 28.8692 145.876 28.7043 145.789 28.5243C145.688 28.2993 145.63 28.0594 145.572 27.8194C145.543 27.6695 145.499 27.5045 145.47 27.3545C145.47 27.3545 145.47 27.3395 145.47 27.3245C145.441 27.2945 145.441 27.2645 145.427 27.2345C145.427 27.2046 145.398 27.1896 145.398 27.1746C145.398 27.0096 145.543 26.8896 145.717 26.8896C145.847 26.8896 145.963 26.9646 146.021 27.0696C146.064 27.1596 146.079 27.2645 146.108 27.3545C146.151 27.5195 146.209 27.6695 146.267 27.8344C146.267 27.8344 146.267 27.8344 146.253 27.8194C146.282 27.8944 146.311 27.9844 146.34 28.0594C146.34 28.0594 146.34 28.0744 146.34 28.0894C146.34 28.0894 146.34 28.0894 146.34 28.0744C146.369 28.1344 146.398 28.1944 146.427 28.2543C146.47 28.3293 146.514 28.3893 146.557 28.4643C146.731 28.6593 146.905 28.8692 147.064 29.0792C147.209 29.2741 147.339 29.4841 147.455 29.6941C147.586 29.964 147.716 30.219 147.774 30.5039C147.847 30.8038 147.861 31.1188 147.803 31.4337C147.774 31.5537 147.745 31.6737 147.702 31.7936C147.702 31.7936 147.702 31.8086 147.702 31.8236C147.702 31.8236 147.702 31.8536 147.687 31.8686C147.658 31.9586 147.615 32.0336 147.571 32.1236C147.513 32.2285 147.455 32.3185 147.397 32.4085C147.339 32.5135 147.296 32.6035 147.238 32.7085C147.122 32.9934 147.035 33.2933 146.948 33.5933C146.948 33.6083 146.948 33.6233 146.948 33.6383C146.861 33.9532 146.774 34.2681 146.673 34.5681C146.586 34.808 146.456 35.048 146.325 35.2729C146.267 35.4079 146.209 35.5429 146.151 35.6779C146.035 36.0228 145.934 36.3827 145.847 36.7276C145.789 36.9226 145.601 37.0426 145.383 37.0576C145.325 37.0576 145.282 37.0576 145.224 37.0576C145.152 37.0426 145.094 37.0126 145.036 36.9676C144.905 36.8626 144.818 36.7127 144.847 36.5627C144.92 36.1728 145.007 35.7528 145.152 35.3779L145.108 35.3329ZM141.892 32.3335C141.834 32.2435 141.834 32.1536 141.877 32.0486C141.877 32.0336 141.906 32.0186 141.92 32.0036C141.949 31.9736 141.978 31.9436 142.007 31.9136C142.036 31.8986 142.065 31.8686 142.109 31.8686C142.123 31.7936 142.123 31.7037 142.138 31.6287C142.196 31.2687 142.254 30.9088 142.283 30.5339C142.283 30.2489 142.312 29.949 142.355 29.6641C142.355 29.6341 142.355 29.6041 142.355 29.5741C142.413 29.2591 142.471 28.9442 142.5 28.6293C142.529 28.3143 142.558 27.9994 142.601 27.6845C142.63 27.4895 142.659 27.3095 142.717 27.1146C142.775 26.9346 142.848 26.7546 142.935 26.5747C142.978 26.4997 143.036 26.4397 143.109 26.4097C143.123 26.4097 143.138 26.3947 143.152 26.3797C143.225 26.3497 143.297 26.3197 143.384 26.3197C143.471 26.3197 143.572 26.3197 143.659 26.3647C143.92 26.4847 144.036 26.7846 143.906 27.0246C143.848 27.1146 143.804 27.2046 143.761 27.2795C143.761 27.3095 143.746 27.3245 143.732 27.3545C143.703 27.4445 143.659 27.5195 143.63 27.6095C143.543 27.9244 143.485 28.2393 143.413 28.5693C143.398 28.6443 143.384 28.7193 143.355 28.7942C143.282 29.0942 143.21 29.4091 143.138 29.7091C143.109 29.799 143.094 29.889 143.065 29.979C142.978 30.4289 142.92 30.8788 142.833 31.3287C142.804 31.4637 142.775 31.5987 142.746 31.7336C142.717 31.8536 142.703 31.9736 142.659 32.0936C142.601 32.2435 142.558 32.3785 142.384 32.4385C142.355 32.4385 142.312 32.4535 142.268 32.4685C142.239 32.4685 142.21 32.4685 142.196 32.4685C142.196 32.4685 142.181 32.4685 142.167 32.4685C142.036 32.4685 141.921 32.4085 141.863 32.3185L141.892 32.3335ZM142.529 37.6125C142.529 37.6125 142.457 37.6125 142.413 37.6125C142.297 37.5975 142.196 37.5375 142.109 37.4625C142.065 37.4175 142.022 37.3725 141.993 37.3275C141.993 37.3125 141.964 37.2975 141.964 37.2675C141.935 37.1926 141.92 37.1176 141.935 37.0276C142.007 36.6077 142.094 36.2028 142.21 35.7828C142.21 35.7678 142.21 35.7528 142.225 35.7228C142.254 35.6479 142.283 35.5729 142.312 35.4979C142.355 35.4079 142.384 35.3029 142.428 35.213C142.5 35.048 142.558 34.883 142.63 34.733C142.775 34.3731 142.935 34.0132 143.152 33.6683C143.254 33.5033 143.369 33.3533 143.485 33.2034C143.601 33.0534 143.732 32.9184 143.862 32.7834C143.891 32.7534 143.92 32.7085 143.934 32.6785C143.934 32.6785 143.992 32.6035 144.021 32.5585C144.079 32.4535 144.137 32.3485 144.195 32.2435C144.282 32.0486 144.355 31.8536 144.413 31.6587C144.442 31.5537 144.471 31.4337 144.485 31.3287C144.485 31.1938 144.514 31.0588 144.514 30.9088C144.514 30.9088 144.514 30.9088 144.514 30.8938C144.514 30.6089 144.485 30.3239 144.456 30.039C144.456 29.889 144.442 29.724 144.427 29.5741C144.427 29.4541 144.514 29.3641 144.644 29.3491C144.702 29.3491 144.76 29.3491 144.818 29.3941C144.862 29.4241 144.891 29.4841 144.905 29.5291C144.905 29.5591 144.905 29.5741 144.905 29.6041C144.905 29.859 144.963 30.114 144.978 30.3689C145.007 30.6089 145.036 30.8488 145.021 31.0888C145.021 31.4487 144.963 31.8086 144.847 32.1536C144.789 32.3185 144.731 32.4835 144.673 32.6485C144.63 32.7684 144.572 32.9034 144.5 33.0084C144.355 33.2483 144.181 33.4733 144.021 33.7133C144.021 33.7133 144.021 33.7282 144.021 33.7432C143.862 34.0132 143.717 34.2831 143.63 34.5681C143.63 34.5981 143.63 34.6131 143.616 34.6431C143.616 34.6431 143.616 34.6731 143.601 34.6881C143.558 34.853 143.514 35.033 143.471 35.213C143.456 35.3029 143.427 35.3929 143.398 35.4829C143.398 35.4829 143.398 35.5129 143.398 35.5279C143.297 36.0828 143.196 36.6377 143.094 37.1776C143.051 37.4175 142.833 37.5975 142.573 37.6125H142.529ZM148.093 35.3479C148.093 35.3479 148.02 35.4979 147.991 35.5729C147.991 35.6029 147.977 35.6479 147.962 35.6779C147.933 35.8278 147.919 35.9928 147.919 36.1428C147.919 36.2927 147.919 36.4277 147.919 36.5777C147.919 36.7276 147.919 36.8926 147.919 37.0426C147.919 37.0726 147.919 37.1026 147.904 37.1476C147.904 37.2375 147.876 37.3125 147.861 37.4025C147.861 37.4475 147.832 37.4775 147.818 37.5225C147.789 37.6125 147.76 37.7025 147.702 37.7774C147.6 37.9424 147.47 38.0774 147.31 38.1974C147.267 38.2273 147.223 38.2573 147.195 38.2873C147.195 38.2873 147.166 38.3023 147.151 38.3173C147.079 38.3773 147.006 38.4373 146.934 38.4973C146.89 38.5423 146.861 38.5873 146.818 38.6173C146.818 38.6173 146.818 38.6173 146.818 38.6323C146.818 38.6323 146.818 38.6473 146.803 38.6623C146.803 38.6623 146.803 38.6773 146.789 38.6923C146.76 38.7222 146.731 38.7672 146.702 38.7972C146.543 38.9922 146.369 39.1872 146.166 39.3371C145.891 39.5621 145.572 39.7271 145.238 39.862C144.905 39.997 144.543 40.087 144.195 40.192C144.108 40.222 144.007 40.2369 143.906 40.2669C143.79 40.2969 143.659 40.3119 143.543 40.3269C143.543 40.3269 143.543 40.3269 143.529 40.3269C143.5 40.3269 143.485 40.3269 143.456 40.3269C143.355 40.3269 143.268 40.3269 143.167 40.2969C143.138 40.2969 143.109 40.2969 143.065 40.2669C143.051 40.2669 143.036 40.2669 143.022 40.2519C142.964 40.2369 142.906 40.207 142.862 40.162C142.862 40.162 142.848 40.147 142.833 40.132C142.761 40.057 142.717 39.967 142.717 39.862C142.717 39.862 142.717 39.847 142.717 39.832C142.717 39.772 142.746 39.7271 142.775 39.6671C142.891 39.5021 143.094 39.4571 143.282 39.5021C143.34 39.5171 143.398 39.5471 143.442 39.5921C143.442 39.5921 143.471 39.5921 143.485 39.5921C143.543 39.5921 143.601 39.5621 143.645 39.5471C143.659 39.5471 143.688 39.5471 143.703 39.5321C143.761 39.5171 143.804 39.5021 143.862 39.4871C144.05 39.4271 144.224 39.3521 144.413 39.2921H144.442C144.456 39.2921 144.485 39.2921 144.5 39.2771C144.485 39.2771 144.471 39.2771 144.456 39.2921C144.471 39.2921 144.485 39.2921 144.5 39.2771C144.5 39.2771 144.485 39.2771 144.471 39.2771C144.63 39.2022 144.789 39.1422 144.949 39.0522C145.065 38.9772 145.166 38.9172 145.282 38.8422C145.354 38.7822 145.427 38.7223 145.499 38.6773C145.528 38.6473 145.557 38.6023 145.586 38.5723C145.63 38.5273 145.688 38.4673 145.731 38.4223C145.804 38.3323 145.891 38.2423 145.963 38.1524C146.151 37.9274 146.383 37.7474 146.615 37.5675C146.615 37.5675 146.586 37.5825 146.586 37.5975C146.629 37.5675 146.658 37.5375 146.702 37.5075C146.716 37.4925 146.745 37.4625 146.76 37.4475C146.76 37.4475 146.774 37.4175 146.789 37.4025C146.789 37.3875 146.803 37.3575 146.818 37.3425C146.832 37.3275 146.818 37.2975 146.832 37.2825C146.847 37.1926 146.861 37.1176 146.876 37.0276C146.905 36.5627 146.919 36.0978 147.035 35.6479C147.093 35.4229 147.195 35.213 147.31 35.003C147.426 34.808 147.557 34.6281 147.644 34.4331C147.687 34.3431 147.789 34.2681 147.89 34.2381C148.006 34.2082 148.122 34.2082 148.223 34.2531C148.412 34.3431 148.513 34.5531 148.426 34.7181C148.325 34.943 148.194 35.153 148.078 35.3779L148.093 35.3479ZM148.441 35.9778C148.441 35.9778 148.441 35.9478 148.441 35.9328C148.441 35.9478 148.441 35.9628 148.426 35.9928L148.441 35.9778Z" fill="#F8E4CC"/>
<path id="Vector_13" d="M162.147 25.5548C162.017 25.1199 161.901 24.67 161.756 24.2501C161.032 22.5554 160.206 20.9208 158.829 19.706C158.308 19.2111 157.859 18.6712 157.381 18.1463C156.526 17.3965 155.787 17.0215 154.99 16.3317C154.642 16.0317 154.164 15.8968 153.729 15.9568C153.28 15.7168 152.831 15.4918 152.425 15.1919C151.962 14.9819 151.541 14.562 151.034 14.502C150.991 14.502 150.947 14.532 150.904 14.532C150.542 14.3671 149.991 14.1721 149.296 14.1421C148.064 14.0971 147.528 14.832 146.007 15.1319C145.485 15.2369 145.05 15.2369 144.196 15.2219C142.022 15.2219 141.37 14.802 139.53 14.817C139.052 14.817 138.327 14.862 137.429 15.0269C136.502 15.4019 135.14 15.9567 133.517 16.6766C130.88 17.8614 130.46 18.1613 130.141 18.4463C128.953 19.466 128.286 20.6958 127.388 22.3155C127.055 22.9304 126.722 23.6052 126.403 24.3551C125.287 27.0695 125.055 29.2591 124.824 31.6436C124.476 35.1079 124.65 38.9172 125.447 40.9268C125.867 42.0065 126.403 43.0413 126.997 44.0461C127.113 44.2561 127.243 44.481 127.388 44.676C127.808 45.3509 128.229 46.0107 128.678 46.6556C129.547 47.8254 130.851 48.5602 132.242 48.8752C132.793 49.445 134.126 49.595 134.72 49.76C135.575 49.79 136.936 49.775 138.574 49.505C138.748 49.475 138.892 49.445 139.037 49.4151C139.081 49.3851 139.124 49.3701 139.168 49.3401C139.182 49.3551 139.197 49.3701 139.211 49.3851C141.457 48.9352 142.21 48.3503 143.993 48.4702C145.847 48.5902 146.065 49.2951 147.992 49.64C148.948 49.805 150.194 49.85 151.686 49.52C156.439 49.2351 161.162 46.2357 162.959 41.6016C164.046 38.7972 164.002 35.4379 163.756 32.4684C163.567 30.0839 163.075 27.7294 162.147 25.5398V25.5548ZM156.439 43.9112C156.424 43.9112 156.41 43.9412 156.395 43.9561C156.395 43.9561 156.424 43.9262 156.424 43.9112H156.439ZM146.021 46.1757C145.615 45.7258 145.34 45.3059 145.021 45.0509C144.862 44.541 144.746 44.0161 144.427 43.5662C144.34 43.4612 144.08 43.5212 143.964 43.5662C143.862 43.5962 143.761 43.6262 143.674 43.6862C143.63 43.7162 143.572 43.7462 143.572 43.8062C143.572 44.3011 143.558 44.781 143.543 45.2759C143.399 45.3959 143.225 45.5308 143.007 45.7108C141.834 46.7006 141.892 46.7756 141.457 47.0905C141.341 47.1805 141.225 47.2555 141.095 47.3155C138.617 48.6202 134.908 48.0353 134.908 48.0353C133.763 48.0053 132.909 47.7204 132.662 47.6304C131.01 47.0305 130.04 45.9358 129.417 45.2309C128.939 44.691 128.46 44.0161 128.04 43.1763C127.243 41.6166 126.374 39.622 126.577 35.0029C126.693 32.3185 126.417 29.574 127.04 26.9196C127.374 25.0899 128.388 23.5602 129.359 22.0155C130.373 19.901 131.619 18.8062 132.561 18.1913C132.836 18.0113 133.213 17.8314 133.372 17.7564C135.082 16.8866 136.458 16.4966 136.85 16.3917C137.69 16.1667 138.501 15.9268 139.631 15.9118C141.022 15.8818 144.109 15.6268 144.949 17.2315C145.282 17.8764 145.181 18.7012 145.152 18.9412C144.992 20.1559 144.224 20.8608 144.471 21.1757C144.558 21.2957 144.804 21.3707 145.471 21.1757C145.76 20.4708 145.963 19.886 146.079 19.481C146.557 17.9963 146.688 17.1115 147.542 16.2717C147.571 16.2417 147.6 16.2117 147.629 16.1817C148.586 15.3119 150.484 15.3269 151.469 16.1967C151.817 16.5116 152.121 17.2315 152.425 18.7462C153.526 24.1001 154.019 23.5602 154.193 26.1847C154.309 27.8044 154.164 28.7642 154.599 30.6088C154.802 31.4786 154.932 31.6586 155.004 32.3485C155.193 33.9681 154.773 35.0779 154.439 36.3827C153.816 38.8572 154.352 39.1271 153.831 41.2117C153.483 42.5464 152.802 44.556 151.281 46.8056C150.107 47.7054 149.122 47.7954 148.658 47.8104C147.021 47.8104 147.021 47.3155 146.007 46.2057L146.021 46.1757Z" fill="#F9CE6A"/>
<path id="Vector_14" d="M143.905 42.3965C143.456 42.3965 143.282 42.9964 143.833 42.9964C144.282 42.9964 144.456 42.3965 143.905 42.3965Z" fill="#F8E4CC"/>
</g>
</g>
</g>
<g id="Layer_1_2">
<g id="Group_3">
<path id="Vector_15" d="M29.9486 18.1013C23.5444 15.1169 19.1398 17.3064 16.6621 19.541C15.7058 20.3958 14.2135 20.0809 13.7498 18.8661C12.6052 15.9117 9.69287 16.8415 8.95393 16.9765C7.80929 17.2015 3.62195 18.8811 2.20202 18.2663C0.782087 17.6514 0.0866115 18.0113 -0.000322952 20.9357C-0.0437902 22.4054 0.463328 22.9753 0.999424 23.1853C1.66592 23.4552 2.05713 24.1751 2.05713 24.9249V42.0365C2.05713 43.6112 1.86877 45.1709 1.46307 46.6856L1.21676 47.5854C1.12983 47.9303 1.37614 48.2603 1.70939 48.2603H12.4603C13.5035 48.2603 14.3294 47.3604 14.2859 46.2806L13.6194 31.3586C13.6194 31.3586 12.8805 26.9495 17.8357 23.3352C21.9796 20.3058 21.6609 26.5896 21.6609 26.5896L22.0955 41.9765C22.139 43.4312 22.0086 44.8859 21.6898 46.2956L21.4 47.6154C21.3276 47.9453 21.5739 48.2603 21.9072 48.2603H33.7447C34.788 48.2603 35.6283 47.3454 35.5704 46.2657L34.672 29.9339C34.672 29.9339 34.4547 20.2009 29.9486 18.1013Z" fill="#D7432A"/>
<path id="Vector_16" d="M94.1499 32.6334C90.8754 34.583 86.4852 36.1577 81.1677 36.0377C79.8637 36.0077 79.3276 34.2531 80.3853 33.4432C83.0803 31.3587 85.6014 30.0989 91.0638 28.4942C91.5709 28.3443 92.0345 28.0443 92.3678 27.6244C92.73 27.1595 92.9328 26.5896 92.9328 25.9897C92.9473 23.7702 92.9908 20.2909 93.0053 18.2513C93.0053 17.3815 92.2808 16.7066 91.455 16.8116C87.0648 17.3964 76.5167 18.0713 71.4455 27.9993C65.2297 40.1619 74.7635 49.895 83.5294 49.9999C92.2808 50.1049 95.9755 45.1109 96.1929 44.2111C96.3523 43.5662 96.2798 37.4024 96.2364 33.8482C96.2219 32.7534 95.0772 32.0785 94.1499 32.6334Z" fill="#D7432A"/>
<path id="Vector_17" d="M120.39 33.0084C119.709 33.0084 118.883 33.0084 116.956 33.0084C114.507 33.0234 114.102 30.219 114.073 28.5393C114.073 27.8494 114.594 27.2945 115.246 27.2945H119.028C119.68 27.2945 120.201 26.7546 120.201 26.0798V17.8914C120.201 17.2166 119.68 16.6767 119.028 16.6767H115.145C114.493 16.6767 113.971 16.1368 113.971 15.4619V1.75465C113.971 0.779844 113.218 0 112.276 0C111.609 0 111.015 0.404919 110.74 1.03479C109.204 4.57409 104.365 8.08338 102.742 9.17816C102.409 9.40312 102.22 9.77804 102.22 10.198V15.3869C102.22 16.0618 101.699 16.6017 101.047 16.6017H97.468C96.816 16.6017 96.2944 17.1416 96.2944 17.8164V26.0798C96.2944 26.7546 96.816 27.2945 97.468 27.2945H101.453C102.134 27.2945 102.655 27.8944 102.626 28.5993C101.554 49.6101 112.044 48.2453 112.044 48.2453H120.39C121.042 48.2453 121.563 47.7055 121.563 47.0306V34.2232C121.563 33.5483 121.042 33.0084 120.39 33.0084Z" fill="#D7432A"/>
<path id="Vector_18" d="M195.675 18.1013C189.141 15.0569 184.692 17.3964 182.229 19.676C181.36 20.4858 179.926 20.2009 179.534 19.0611C178.448 15.8668 175.419 16.8266 174.68 16.9765C173.536 17.2015 169.349 18.8812 167.929 18.2663C166.509 17.6514 165.813 18.0113 165.726 20.9507C165.683 22.4204 166.19 22.9903 166.726 23.2003C167.392 23.4702 167.784 24.1901 167.784 24.9399V44.1811C167.784 44.3311 167.784 44.496 167.74 44.646L167.364 46.0707C167.074 47.1805 167.871 48.2753 168.986 48.2753H178.346C179.303 48.2753 180.07 47.4504 180.027 46.4606L179.346 31.3736C179.346 31.3736 178.607 26.9645 183.562 23.3503C187.706 20.3209 187.387 26.6046 187.387 26.6046L187.272 27.9243C187.185 28.9441 187.938 29.814 188.923 29.829L198.558 29.9489C199.573 29.9489 200.37 29.0641 200.254 28.0293C199.935 25.0749 198.906 19.646 195.675 18.1463V18.1013Z" fill="#D7432A"/>
<path id="Vector_19" d="M210.961 16.9765C209.817 17.2015 205.629 18.8811 204.209 18.2663C202.789 17.6514 202.094 18.0113 202.007 20.9507C201.949 22.9453 202.92 23.2903 203.543 23.3053C203.832 23.3053 204.064 23.5452 204.064 23.8451V44.361C204.064 44.361 204.064 44.451 204.064 44.511L203.238 47.6154C203.152 47.9603 203.398 48.2903 203.731 48.2903H215.844C216.134 48.2903 216.38 48.0353 216.366 47.7354L215.177 22.5704C215.467 15.3269 211.903 16.8266 210.961 17.0065V16.9765Z" fill="#D7432A"/>
<path id="Vector_20" d="M209.005 14.4721C212.106 14.4721 214.627 11.8627 214.627 8.65331C214.627 5.44395 212.106 2.83447 209.005 2.83447C205.904 2.83447 203.383 5.44395 203.383 8.65331C203.383 11.8627 205.904 14.4721 209.005 14.4721Z" fill="#D7432A"/>
<path id="Vector_21" d="M139.022 49.445C139.022 49.445 139.153 49.415 139.211 49.415C139.153 49.415 139.095 49.43 139.037 49.445H139.022Z" fill="#D7432A"/>
<path id="Vector_22" d="M142.298 31.8987C142.298 31.8987 142.298 31.9287 142.283 31.9437C142.283 31.9437 142.283 31.9137 142.298 31.8987Z" fill="#D7432A"/>
<path id="Vector_23" d="M249.024 18.1013C242.619 15.1169 238.215 17.3064 235.737 19.541C234.781 20.3958 233.288 20.0809 232.825 18.8661C231.68 15.9117 228.768 16.8415 228.029 16.9765C226.884 17.2015 222.697 18.8811 221.277 18.2663C219.857 17.6514 219.162 18.0113 219.075 20.9507C219.031 22.3454 219.495 22.9303 219.987 23.1703C220.683 23.5002 221.132 24.2351 221.132 25.0299V42.0515C221.132 43.6262 220.944 45.1859 220.538 46.7006L220.306 47.6004C220.219 47.9453 220.466 48.2752 220.799 48.2752H231.535C232.578 48.2752 233.419 47.3754 233.375 46.2806L232.709 31.3586C232.709 31.3586 231.97 26.9495 236.925 23.3352C241.069 20.3058 240.75 26.5896 240.75 26.5896L241.185 41.9615C241.228 43.4162 241.084 44.8709 240.779 46.2956L240.489 47.6154C240.417 47.9453 240.663 48.2603 240.997 48.2603H252.82C253.877 48.2603 254.718 47.3454 254.645 46.2507L253.747 29.9339C253.747 29.9339 253.53 20.2009 249.024 18.1013Z" fill="#D7432A"/>
<path id="Vector_24" d="M64.4475 33.0083C61.173 34.8079 54.5949 37.9873 49.2774 37.8973C48.2197 37.8823 47.6836 36.8025 48.0893 36.0077H47.93L65.2154 30.0239C66.0703 29.7239 66.5484 28.7641 66.2587 27.8793C64.7808 23.3052 60.0718 12.4174 46.7708 17.8763C38.8598 21.1307 36.7444 31.7485 38.2368 37.9573C39.193 44.7509 47.2635 48.8901 53.856 48.9651C62.6074 49.0551 66.3021 44.481 66.5195 43.6562C66.6788 43.0713 66.6064 37.4174 66.5629 34.1481C66.5484 33.1433 65.4038 32.5284 64.4765 33.0233L64.4475 33.0083ZM47.7561 31.3886C47.7996 29.544 49.7556 26.8445 52.1028 26.4396C54.9572 25.9447 56.1743 27.5944 56.5655 28.3292C56.6524 28.5092 56.5655 28.7191 56.3916 28.7941L48.1618 31.8085C47.901 31.8985 47.7561 31.6586 47.7561 31.3886Z" fill="#D7432A"/>
<path id="Vector_25" d="M285.942 34.1331C285.928 33.1283 284.783 32.5134 283.856 33.0083C280.581 34.8079 274.003 37.9873 268.686 37.8973C267.628 37.8823 267.092 36.8025 267.498 36.0077H267.338L284.624 30.0239C285.493 29.7239 285.957 28.7641 285.667 27.8793C284.189 23.3052 279.48 12.4174 266.179 17.8763C258.268 21.1307 256.153 31.7485 257.645 37.9573C258.601 44.7509 266.672 48.8901 273.25 48.9651C282.001 49.0551 285.696 44.481 285.913 43.6562C286.073 43.0713 286 37.4174 285.957 34.1481L285.942 34.1331ZM267.164 31.3886C267.208 29.544 269.164 26.8445 271.511 26.4396C274.365 25.9447 275.582 27.5944 275.974 28.3292C276.061 28.5092 275.974 28.7191 275.8 28.7941L267.57 31.8085C267.309 31.8985 267.164 31.6586 267.164 31.3886Z" fill="#D7432A"/>
<g id="Group_4">
<path id="Vector_26" d="M145.094 25.18C144.963 25.075 144.659 24.82 144.529 24.4001C144.311 23.7402 144.673 23.1854 144.731 23.0954C144.934 22.6155 144.949 22.2255 144.76 22.1056C144.586 22.0006 144.297 22.1356 144.268 22.1506C143.427 22.5405 143.978 23.9502 143.022 24.835C142.732 25.105 142.384 25.2399 142.181 25.2999C141.747 25.6299 141.37 25.8548 141.124 25.9898C140.051 26.6047 139.573 26.8596 138.646 27.3695C138.414 27.5045 138.255 27.6845 138.139 27.9094C137.907 28.3593 138.139 28.8992 137.559 29.1542C137.11 29.6041 136.646 30.144 136.589 30.7738C136.574 31.0138 136.632 31.2537 136.704 31.4787C135.342 31.6887 135.864 34.3581 136.299 35.123C136.342 35.213 136.386 35.3179 136.371 35.4229C136.313 36.5927 136.487 37.7624 137.748 38.3623C137.82 39.6221 138.443 40.3869 139.921 40.2969C140.457 40.4469 141.095 41.1668 141.645 41.1218C141.674 41.1218 141.689 41.1068 141.703 41.1068C141.732 41.1068 141.747 41.1068 141.776 41.1218C141.877 41.3917 142.254 41.5117 142.616 41.4817C142.732 41.4817 142.848 41.4517 142.949 41.4217C145.688 40.6419 147.484 40.5219 148.441 37.8824C149.6 36.2178 149.397 31.9886 149.006 30.099C148.296 27.5345 147.426 26.6947 145.079 25.165L145.094 25.18ZM139.052 29.829C139.052 29.829 138.921 29.979 138.849 30.054C138.805 30.114 138.762 30.189 138.718 30.2489C138.689 30.3239 138.66 30.3839 138.631 30.4589C138.588 30.5939 138.559 30.7288 138.53 30.8638C138.472 31.1938 138.429 31.5087 138.414 31.8386C138.414 31.8386 138.414 31.8236 138.414 31.8086C138.414 31.8386 138.414 31.8536 138.414 31.8836C138.414 31.8836 138.414 31.8986 138.414 31.9136C138.414 31.9136 138.414 31.9136 138.414 31.9286C138.414 31.9286 138.414 31.9286 138.414 31.9436C138.414 31.9586 138.414 31.9736 138.414 31.9886C138.414 32.1236 138.414 32.2435 138.4 32.3785C138.371 32.8734 138.356 33.3833 138.313 33.8782C138.313 33.9982 138.255 34.1032 138.182 34.1782C138.182 34.2381 138.182 34.2831 138.168 34.3431C138.168 34.4781 138.168 34.6131 138.168 34.763C138.168 34.913 138.197 35.048 138.211 35.198C138.24 35.3629 138.269 35.5129 138.298 35.6779C138.356 35.9628 138.385 36.2477 138.443 36.5327C138.443 36.5327 138.443 36.5177 138.443 36.5027C138.458 36.5777 138.472 36.6677 138.487 36.7426C138.487 36.7726 138.501 36.8026 138.516 36.8326C138.545 36.9376 138.487 37.0426 138.385 37.1026C138.342 37.1176 138.313 37.1326 138.269 37.1326C138.153 37.1326 138.037 37.0876 137.994 36.9976C137.893 36.8176 137.82 36.6227 137.733 36.4277C137.733 36.4277 137.733 36.4577 137.748 36.4577C137.69 36.3377 137.632 36.2178 137.574 36.0828C137.53 35.9628 137.487 35.8578 137.443 35.7378C137.356 35.4829 137.313 35.2279 137.255 34.973C137.212 34.733 137.168 34.4781 137.125 34.2232C137.067 33.9382 137.009 33.6533 136.951 33.3683C136.922 33.2333 136.994 33.1284 137.096 33.0384C137.139 33.0084 137.154 32.9634 137.212 32.9484C137.212 32.9184 137.212 32.8884 137.212 32.8434C137.212 32.7834 137.212 32.7235 137.212 32.6635C137.241 32.2735 137.27 31.8836 137.313 31.4937C137.356 31.2237 137.4 30.9388 137.472 30.6689C137.545 30.4289 137.617 30.159 137.762 29.934C137.835 29.829 137.907 29.724 137.994 29.6341C138.066 29.5441 138.168 29.4691 138.255 29.3941C138.429 29.2591 138.603 29.1242 138.791 29.0192C138.936 28.9292 139.095 28.8392 139.24 28.7342C139.24 28.7342 139.255 28.7342 139.269 28.7342C139.269 28.7342 139.298 28.7342 139.298 28.7192C139.356 28.6743 139.414 28.6443 139.457 28.5993C139.559 28.5393 139.646 28.4643 139.747 28.3893C139.747 28.3893 139.762 28.3743 139.776 28.3593C139.791 28.3443 139.82 28.3293 139.834 28.2993C139.834 28.2993 139.878 28.2543 139.892 28.2393C139.936 28.1944 139.979 28.1344 140.022 28.0894C140.022 28.0894 140.022 28.0894 140.022 28.0744C140.037 28.0444 140.066 27.9994 140.08 27.9694C140.08 27.9694 140.08 27.9544 140.095 27.9394C140.095 27.9394 140.095 27.9394 140.095 27.9544C140.095 27.9544 140.095 27.9544 140.095 27.9394C140.095 27.9394 140.095 27.9394 140.095 27.9544C140.095 27.9394 140.095 27.9244 140.109 27.9094C140.109 27.9094 140.109 27.8944 140.109 27.8794C140.109 27.8794 140.109 27.8794 140.109 27.8944C140.124 27.8494 140.138 27.8044 140.153 27.7594C140.153 27.7294 140.153 27.6995 140.153 27.6695C140.153 27.6545 140.153 27.6245 140.153 27.6095C140.153 27.6095 140.153 27.5945 140.153 27.5795C140.153 27.5645 140.153 27.5495 140.138 27.5345C140.138 27.5345 140.138 27.5345 140.138 27.5195C140.037 27.3845 140.109 27.2046 140.269 27.1296C140.327 27.0996 140.385 27.1146 140.457 27.1296C140.472 27.1296 140.501 27.1296 140.515 27.1296C140.573 27.1596 140.631 27.1896 140.674 27.2495C140.718 27.3245 140.732 27.4145 140.747 27.5045C140.747 27.5345 140.747 27.5495 140.747 27.5795C140.747 27.6695 140.747 27.7594 140.747 27.8344C140.718 28.1044 140.588 28.3593 140.414 28.5693C140.153 28.8992 139.805 29.1542 139.486 29.4391C139.341 29.5741 139.182 29.6941 139.052 29.844V29.829ZM141.442 30.6689C141.442 30.6689 141.442 30.7738 141.442 30.8338C141.428 30.9238 141.413 31.0138 141.384 31.1188C141.355 31.2987 141.312 31.4637 141.283 31.6587C141.283 31.6287 141.283 31.5987 141.297 31.5837C141.254 31.7786 141.211 31.9886 141.167 32.1836C141.167 32.1536 141.167 32.1236 141.182 32.1086C141.182 32.1536 141.167 32.1986 141.153 32.2285C141.109 32.4535 141.066 32.6785 141.037 32.9034C141.008 33.1584 140.979 33.3983 140.964 33.6533C140.964 33.6533 140.964 33.6533 140.964 33.6683C140.964 33.6833 140.964 33.6983 140.964 33.7282C140.964 33.7133 140.964 33.6983 140.964 33.6833C140.935 34.0432 140.964 34.4181 140.979 34.778C140.979 35.078 141.022 35.3629 140.979 35.6629C140.95 35.9628 140.892 36.2627 140.718 36.5177C140.674 36.6077 140.602 36.6827 140.544 36.7576C140.53 36.7726 140.515 36.8026 140.501 36.8176C140.501 36.8476 140.472 36.8626 140.457 36.8926C140.443 36.9376 140.414 36.9826 140.399 37.0426C140.399 37.0876 140.385 37.1176 140.37 37.1626C140.37 37.2375 140.356 37.3125 140.341 37.3875C140.341 37.3875 140.341 37.3875 140.341 37.4025C140.341 37.4775 140.341 37.5375 140.341 37.6125C140.341 37.6125 140.341 37.5975 140.341 37.5825C140.341 37.6425 140.341 37.7025 140.341 37.7774C140.341 37.8074 140.341 37.8224 140.341 37.8524C140.341 37.8974 140.356 37.9424 140.37 37.9874C140.385 38.1074 140.414 38.2423 140.428 38.3623C140.443 38.4373 140.457 38.5273 140.472 38.6023C140.501 38.7073 140.53 38.7972 140.559 38.9022C140.588 39.0222 140.66 39.1572 140.616 39.2771C140.588 39.3671 140.486 39.4421 140.385 39.4421C140.356 39.4421 140.312 39.4421 140.283 39.4271C140.211 39.3971 140.153 39.3521 140.124 39.2771C140.124 39.2471 140.124 39.2171 140.124 39.1872C140.124 39.1872 140.124 39.1722 140.124 39.1572C140.124 39.1272 140.109 39.0972 140.095 39.0672C140.037 38.9022 139.95 38.7222 139.892 38.5573C139.82 38.3623 139.762 38.1674 139.704 37.9574C139.617 37.6125 139.559 37.2825 139.573 36.9226C139.573 36.7426 139.602 36.5777 139.675 36.4127C139.718 36.3077 139.762 36.2028 139.791 36.0978C139.805 36.0378 139.82 35.9628 139.834 35.9028C139.834 35.7978 139.849 35.6929 139.849 35.5879C139.849 35.183 139.747 34.793 139.704 34.3881C139.675 34.1632 139.66 33.9232 139.646 33.6983C139.646 33.5033 139.646 33.3083 139.66 33.1134C139.675 32.7085 139.733 32.3185 139.82 31.9286C139.907 31.4787 140.008 31.0438 140.109 30.6089C140.182 30.2939 140.559 30.099 140.906 30.159C140.935 30.159 140.95 30.174 140.979 30.189C141.124 30.2339 141.24 30.3089 141.326 30.4289C141.355 30.4589 141.355 30.5039 141.37 30.5489C141.37 30.5789 141.399 30.6239 141.413 30.6539C141.413 30.6689 141.413 30.6989 141.413 30.7139L141.442 30.6689ZM145.108 35.3329C145.166 35.183 145.224 35.033 145.296 34.883C145.354 34.763 145.427 34.6281 145.499 34.5081C145.499 34.5081 145.499 34.5081 145.499 34.4931C145.514 34.4631 145.528 34.4331 145.543 34.4031C145.543 34.4181 145.528 34.4481 145.514 34.4631C145.731 34.0132 145.833 33.5183 146.006 33.0534C146.079 32.8584 146.166 32.6635 146.238 32.4685C146.253 32.4235 146.267 32.3935 146.296 32.3485C146.398 32.1386 146.528 31.9286 146.658 31.7336C146.658 31.7336 146.658 31.7486 146.658 31.7636C146.658 31.7636 146.658 31.7486 146.673 31.7336C146.673 31.7336 146.673 31.7486 146.658 31.7636C146.658 31.7636 146.673 31.7336 146.673 31.7186C146.716 31.6437 146.745 31.5537 146.789 31.4787C146.818 31.3887 146.847 31.2837 146.876 31.1938C146.876 31.1488 146.89 31.0888 146.905 31.0438C146.905 30.9688 146.905 30.8938 146.905 30.8038C146.905 30.7288 146.876 30.6539 146.861 30.5789C146.818 30.4439 146.774 30.3089 146.731 30.189C146.629 29.964 146.528 29.739 146.427 29.5291C146.325 29.3491 146.209 29.1842 146.093 29.0342C145.977 28.8692 145.876 28.7043 145.789 28.5243C145.688 28.2993 145.63 28.0594 145.572 27.8194C145.543 27.6695 145.499 27.5045 145.47 27.3545C145.47 27.3545 145.47 27.3395 145.47 27.3245C145.441 27.2945 145.441 27.2645 145.427 27.2345C145.427 27.2046 145.398 27.1896 145.398 27.1746C145.398 27.0096 145.543 26.8896 145.717 26.8896C145.847 26.8896 145.963 26.9646 146.021 27.0696C146.064 27.1596 146.079 27.2645 146.108 27.3545C146.151 27.5195 146.209 27.6695 146.267 27.8344C146.267 27.8344 146.267 27.8344 146.253 27.8194C146.282 27.8944 146.311 27.9844 146.34 28.0594C146.34 28.0594 146.34 28.0744 146.34 28.0894C146.34 28.0894 146.34 28.0894 146.34 28.0744C146.369 28.1344 146.398 28.1944 146.427 28.2543C146.47 28.3293 146.514 28.3893 146.557 28.4643C146.731 28.6593 146.905 28.8692 147.064 29.0792C147.209 29.2741 147.339 29.4841 147.455 29.6941C147.586 29.964 147.716 30.219 147.774 30.5039C147.847 30.8038 147.861 31.1188 147.803 31.4337C147.774 31.5537 147.745 31.6737 147.702 31.7936C147.702 31.7936 147.702 31.8086 147.702 31.8236C147.702 31.8236 147.702 31.8536 147.687 31.8686C147.658 31.9586 147.615 32.0336 147.571 32.1236C147.513 32.2285 147.455 32.3185 147.397 32.4085C147.339 32.5135 147.296 32.6035 147.238 32.7085C147.122 32.9934 147.035 33.2933 146.948 33.5933C146.948 33.6083 146.948 33.6233 146.948 33.6383C146.861 33.9532 146.774 34.2681 146.673 34.5681C146.586 34.808 146.456 35.048 146.325 35.2729C146.267 35.4079 146.209 35.5429 146.151 35.6779C146.035 36.0228 145.934 36.3827 145.847 36.7276C145.789 36.9226 145.601 37.0426 145.383 37.0576C145.325 37.0576 145.282 37.0576 145.224 37.0576C145.152 37.0426 145.094 37.0126 145.036 36.9676C144.905 36.8626 144.818 36.7127 144.847 36.5627C144.92 36.1728 145.007 35.7528 145.152 35.3779L145.108 35.3329ZM141.892 32.3335C141.834 32.2435 141.834 32.1536 141.877 32.0486C141.877 32.0336 141.906 32.0186 141.92 32.0036C141.949 31.9736 141.978 31.9436 142.007 31.9136C142.036 31.8986 142.065 31.8686 142.109 31.8686C142.123 31.7936 142.123 31.7037 142.138 31.6287C142.196 31.2687 142.254 30.9088 142.283 30.5339C142.283 30.2489 142.312 29.949 142.355 29.6641C142.355 29.6341 142.355 29.6041 142.355 29.5741C142.413 29.2591 142.471 28.9442 142.5 28.6293C142.529 28.3143 142.558 27.9994 142.601 27.6845C142.63 27.4895 142.659 27.3095 142.717 27.1146C142.775 26.9346 142.848 26.7546 142.935 26.5747C142.978 26.4997 143.036 26.4397 143.109 26.4097C143.123 26.4097 143.138 26.3947 143.152 26.3797C143.225 26.3497 143.297 26.3197 143.384 26.3197C143.471 26.3197 143.572 26.3197 143.659 26.3647C143.92 26.4847 144.036 26.7846 143.906 27.0246C143.848 27.1146 143.804 27.2046 143.761 27.2795C143.761 27.3095 143.746 27.3245 143.732 27.3545C143.703 27.4445 143.659 27.5195 143.63 27.6095C143.543 27.9244 143.485 28.2393 143.413 28.5693C143.398 28.6443 143.384 28.7193 143.355 28.7942C143.282 29.0942 143.21 29.4091 143.138 29.7091C143.109 29.799 143.094 29.889 143.065 29.979C142.978 30.4289 142.92 30.8788 142.833 31.3287C142.804 31.4637 142.775 31.5987 142.746 31.7336C142.717 31.8536 142.703 31.9736 142.659 32.0936C142.601 32.2435 142.558 32.3785 142.384 32.4385C142.355 32.4385 142.312 32.4535 142.268 32.4685C142.239 32.4685 142.21 32.4685 142.196 32.4685C142.196 32.4685 142.181 32.4685 142.167 32.4685C142.036 32.4685 141.921 32.4085 141.863 32.3185L141.892 32.3335ZM142.529 37.6125C142.529 37.6125 142.457 37.6125 142.413 37.6125C142.297 37.5975 142.196 37.5375 142.109 37.4625C142.065 37.4175 142.022 37.3725 141.993 37.3275C141.993 37.3125 141.964 37.2975 141.964 37.2675C141.935 37.1926 141.92 37.1176 141.935 37.0276C142.007 36.6077 142.094 36.2028 142.21 35.7828C142.21 35.7678 142.21 35.7528 142.225 35.7228C142.254 35.6479 142.283 35.5729 142.312 35.4979C142.355 35.4079 142.384 35.3029 142.428 35.213C142.5 35.048 142.558 34.883 142.63 34.733C142.775 34.3731 142.935 34.0132 143.152 33.6683C143.254 33.5033 143.369 33.3533 143.485 33.2034C143.601 33.0534 143.732 32.9184 143.862 32.7834C143.891 32.7534 143.92 32.7085 143.934 32.6785C143.934 32.6785 143.992 32.6035 144.021 32.5585C144.079 32.4535 144.137 32.3485 144.195 32.2435C144.282 32.0486 144.355 31.8536 144.413 31.6587C144.442 31.5537 144.471 31.4337 144.485 31.3287C144.485 31.1938 144.514 31.0588 144.514 30.9088C144.514 30.9088 144.514 30.9088 144.514 30.8938C144.514 30.6089 144.485 30.3239 144.456 30.039C144.456 29.889 144.442 29.724 144.427 29.5741C144.427 29.4541 144.514 29.3641 144.644 29.3491C144.702 29.3491 144.76 29.3491 144.818 29.3941C144.862 29.4241 144.891 29.4841 144.905 29.5291C144.905 29.5591 144.905 29.5741 144.905 29.6041C144.905 29.859 144.963 30.114 144.978 30.3689C145.007 30.6089 145.036 30.8488 145.021 31.0888C145.021 31.4487 144.963 31.8086 144.847 32.1536C144.789 32.3185 144.731 32.4835 144.673 32.6485C144.63 32.7684 144.572 32.9034 144.5 33.0084C144.355 33.2483 144.181 33.4733 144.021 33.7133C144.021 33.7133 144.021 33.7282 144.021 33.7432C143.862 34.0132 143.717 34.2831 143.63 34.5681C143.63 34.5981 143.63 34.6131 143.616 34.6431C143.616 34.6431 143.616 34.6731 143.601 34.6881C143.558 34.853 143.514 35.033 143.471 35.213C143.456 35.3029 143.427 35.3929 143.398 35.4829C143.398 35.4829 143.398 35.5129 143.398 35.5279C143.297 36.0828 143.196 36.6377 143.094 37.1776C143.051 37.4175 142.833 37.5975 142.573 37.6125H142.529ZM148.093 35.3479C148.093 35.3479 148.02 35.4979 147.991 35.5729C147.991 35.6029 147.977 35.6479 147.962 35.6779C147.933 35.8278 147.919 35.9928 147.919 36.1428C147.919 36.2927 147.919 36.4277 147.919 36.5777C147.919 36.7276 147.919 36.8926 147.919 37.0426C147.919 37.0726 147.919 37.1026 147.904 37.1476C147.904 37.2375 147.876 37.3125 147.861 37.4025C147.861 37.4475 147.832 37.4775 147.818 37.5225C147.789 37.6125 147.76 37.7025 147.702 37.7774C147.6 37.9424 147.47 38.0774 147.31 38.1974C147.267 38.2273 147.223 38.2573 147.195 38.2873C147.195 38.2873 147.166 38.3023 147.151 38.3173C147.079 38.3773 147.006 38.4373 146.934 38.4973C146.89 38.5423 146.861 38.5873 146.818 38.6173C146.818 38.6173 146.818 38.6173 146.818 38.6323C146.818 38.6323 146.818 38.6473 146.803 38.6623C146.803 38.6623 146.803 38.6773 146.789 38.6923C146.76 38.7222 146.731 38.7672 146.702 38.7972C146.543 38.9922 146.369 39.1872 146.166 39.3371C145.891 39.5621 145.572 39.7271 145.238 39.862C144.905 39.997 144.543 40.087 144.195 40.192C144.108 40.222 144.007 40.2369 143.906 40.2669C143.79 40.2969 143.659 40.3119 143.543 40.3269C143.543 40.3269 143.543 40.3269 143.529 40.3269C143.5 40.3269 143.485 40.3269 143.456 40.3269C143.355 40.3269 143.268 40.3269 143.167 40.2969C143.138 40.2969 143.109 40.2969 143.065 40.2669C143.051 40.2669 143.036 40.2669 143.022 40.2519C142.964 40.2369 142.906 40.207 142.862 40.162C142.862 40.162 142.848 40.147 142.833 40.132C142.761 40.057 142.717 39.967 142.717 39.862C142.717 39.862 142.717 39.847 142.717 39.832C142.717 39.772 142.746 39.7271 142.775 39.6671C142.891 39.5021 143.094 39.4571 143.282 39.5021C143.34 39.5171 143.398 39.5471 143.442 39.5921C143.442 39.5921 143.471 39.5921 143.485 39.5921C143.543 39.5921 143.601 39.5621 143.645 39.5471C143.659 39.5471 143.688 39.5471 143.703 39.5321C143.761 39.5171 143.804 39.5021 143.862 39.4871C144.05 39.4271 144.224 39.3521 144.413 39.2921H144.442C144.456 39.2921 144.485 39.2921 144.5 39.2771C144.485 39.2771 144.471 39.2771 144.456 39.2921C144.471 39.2921 144.485 39.2921 144.5 39.2771C144.5 39.2771 144.485 39.2771 144.471 39.2771C144.63 39.2022 144.789 39.1422 144.949 39.0522C145.065 38.9772 145.166 38.9172 145.282 38.8422C145.354 38.7822 145.427 38.7223 145.499 38.6773C145.528 38.6473 145.557 38.6023 145.586 38.5723C145.63 38.5273 145.688 38.4673 145.731 38.4223C145.804 38.3323 145.891 38.2423 145.963 38.1524C146.151 37.9274 146.383 37.7474 146.615 37.5675C146.615 37.5675 146.586 37.5825 146.586 37.5975C146.629 37.5675 146.658 37.5375 146.702 37.5075C146.716 37.4925 146.745 37.4625 146.76 37.4475C146.76 37.4475 146.774 37.4175 146.789 37.4025C146.789 37.3875 146.803 37.3575 146.818 37.3425C146.832 37.3275 146.818 37.2975 146.832 37.2825C146.847 37.1926 146.861 37.1176 146.876 37.0276C146.905 36.5627 146.919 36.0978 147.035 35.6479C147.093 35.4229 147.195 35.213 147.31 35.003C147.426 34.808 147.557 34.6281 147.644 34.4331C147.687 34.3431 147.789 34.2681 147.89 34.2381C148.006 34.2082 148.122 34.2082 148.223 34.2531C148.412 34.3431 148.513 34.5531 148.426 34.7181C148.325 34.943 148.194 35.153 148.078 35.3779L148.093 35.3479ZM148.441 35.9778C148.441 35.9778 148.441 35.9478 148.441 35.9328C148.441 35.9478 148.441 35.9628 148.426 35.9928L148.441 35.9778Z" fill="#D7432A"/>
<path id="Vector_27" d="M162.147 25.5548C162.017 25.1199 161.901 24.67 161.756 24.2501C161.032 22.5554 160.206 20.9208 158.829 19.706C158.308 19.2111 157.859 18.6712 157.381 18.1463C156.526 17.3965 155.787 17.0215 154.99 16.3317C154.642 16.0317 154.164 15.8968 153.729 15.9568C153.28 15.7168 152.831 15.4918 152.425 15.1919C151.962 14.9819 151.541 14.562 151.034 14.502C150.991 14.502 150.947 14.532 150.904 14.532C150.542 14.3671 149.991 14.1721 149.296 14.1421C148.064 14.0971 147.528 14.832 146.007 15.1319C145.485 15.2369 145.05 15.2369 144.196 15.2219C142.022 15.2219 141.37 14.802 139.53 14.817C139.052 14.817 138.327 14.862 137.429 15.0269C136.502 15.4019 135.14 15.9567 133.517 16.6766C130.88 17.8614 130.46 18.1613 130.141 18.4463C128.953 19.466 128.286 20.6958 127.388 22.3155C127.055 22.9304 126.722 23.6052 126.403 24.3551C125.287 27.0695 125.055 29.2591 124.824 31.6436C124.476 35.1079 124.65 38.9172 125.447 40.9268C125.867 42.0065 126.403 43.0413 126.997 44.0461C127.113 44.2561 127.243 44.481 127.388 44.676C127.808 45.3509 128.229 46.0107 128.678 46.6556C129.547 47.8254 130.851 48.5602 132.242 48.8752C132.793 49.445 134.126 49.595 134.72 49.76C135.575 49.79 136.936 49.775 138.574 49.505C138.748 49.475 138.892 49.445 139.037 49.4151C139.081 49.3851 139.124 49.3701 139.168 49.3401C139.182 49.3551 139.197 49.3701 139.211 49.3851C141.457 48.9352 142.21 48.3503 143.993 48.4702C145.847 48.5902 146.065 49.2951 147.992 49.64C148.948 49.805 150.194 49.85 151.686 49.52C156.439 49.2351 161.162 46.2357 162.959 41.6016C164.046 38.7972 164.002 35.4379 163.756 32.4684C163.567 30.0839 163.075 27.7294 162.147 25.5398V25.5548ZM156.439 43.9112C156.424 43.9112 156.41 43.9412 156.395 43.9561C156.395 43.9561 156.424 43.9262 156.424 43.9112H156.439ZM146.021 46.1757C145.615 45.7258 145.34 45.3059 145.021 45.0509C144.862 44.541 144.746 44.0161 144.427 43.5662C144.34 43.4612 144.08 43.5212 143.964 43.5662C143.862 43.5962 143.761 43.6262 143.674 43.6862C143.63 43.7162 143.572 43.7462 143.572 43.8062C143.572 44.3011 143.558 44.781 143.543 45.2759C143.399 45.3959 143.225 45.5308 143.007 45.7108C141.834 46.7006 141.892 46.7756 141.457 47.0905C141.341 47.1805 141.225 47.2555 141.095 47.3155C138.617 48.6202 134.908 48.0353 134.908 48.0353C133.763 48.0053 132.909 47.7204 132.662 47.6304C131.01 47.0305 130.04 45.9358 129.417 45.2309C128.939 44.691 128.46 44.0161 128.04 43.1763C127.243 41.6166 126.374 39.622 126.577 35.0029C126.693 32.3185 126.417 29.574 127.04 26.9196C127.374 25.0899 128.388 23.5602 129.359 22.0155C130.373 19.901 131.619 18.8062 132.561 18.1913C132.836 18.0113 133.213 17.8314 133.372 17.7564C135.082 16.8866 136.458 16.4966 136.85 16.3917C137.69 16.1667 138.501 15.9268 139.631 15.9118C141.022 15.8818 144.109 15.6268 144.949 17.2315C145.282 17.8764 145.181 18.7012 145.152 18.9412C144.992 20.1559 144.224 20.8608 144.471 21.1757C144.558 21.2957 144.804 21.3707 145.471 21.1757C145.76 20.4708 145.963 19.886 146.079 19.481C146.557 17.9963 146.688 17.1115 147.542 16.2717C147.571 16.2417 147.6 16.2117 147.629 16.1817C148.586 15.3119 150.484 15.3269 151.469 16.1967C151.817 16.5116 152.121 17.2315 152.425 18.7462C153.526 24.1001 154.019 23.5602 154.193 26.1847C154.309 27.8044 154.164 28.7642 154.599 30.6088C154.802 31.4786 154.932 31.6586 155.004 32.3485C155.193 33.9681 154.773 35.0779 154.439 36.3827C153.816 38.8572 154.352 39.1271 153.831 41.2117C153.483 42.5464 152.802 44.556 151.281 46.8056C150.107 47.7054 149.122 47.7954 148.658 47.8104C147.021 47.8104 147.021 47.3155 146.007 46.2057L146.021 46.1757Z" fill="#D7432A"/>
<path id="Vector_28" d="M143.905 42.3965C143.456 42.3965 143.282 42.9964 143.833 42.9964C144.282 42.9964 144.456 42.3965 143.905 42.3965Z" fill="#D7432A"/>
</g>
</g>
</g>
</g>
<defs>
<clipPath id="clip0_37_21335">
<rect width="286" height="50" fill="white"/>
</clipPath>
</defs>
</svg>
