<svg width="93" height="93" viewBox="0 0 93 93" fill="none" xmlns="http://www.w3.org/2000/svg">
<g id="@S-Strategy-Icon">
<path id="Union" d="M39.0571 29.0865C41.1757 29.0076 42.3467 30.1413 42.4649 32.252C42.5952 34.5832 42.1866 36.9168 42.1397 39.2286C42.0173 45.2664 41.3139 51.2768 41.3425 57.3224C41.3467 58.1919 41.4042 59.0645 41.3768 59.9341C41.2689 62.3253 40.8261 64.8154 40.8315 67.2073C40.838 70.0098 41.3931 72.8344 41.1774 75.6677C41.1304 76.2262 41.2368 77.5485 40.8366 77.9984C39.8299 79.1273 38.2455 79.1598 36.9247 79.2003C34.6496 79.2699 33.052 78.5252 31.1016 77.4752C30.2899 77.0381 29.5255 76.8123 28.7632 76.2819C28.7583 76.3393 28.7523 76.3967 28.7458 76.454C28.3757 79.4527 27.6119 82.6078 26.5684 85.4444C26.2951 86.1388 26.2088 87.3342 25.9286 87.9764C25.0806 89.917 24.2901 93.2146 21.6396 92.9891C19.445 92.8024 17.772 92.6406 15.7085 91.7765C14.9832 91.4726 13.9515 91.3597 13.204 91.0575C12.3801 90.5967 10.8415 90.2842 10.0707 89.8817C8.57574 89.1013 5.51971 88.3781 4.55965 87.0783C3.81538 85.4456 4.80626 84.5664 5.53731 83.265L8.36068 78.1224C8.82855 77.279 9.12872 76.5357 9.49449 75.6553C9.68231 75.1673 10.043 74.6501 10.214 74.1679C10.7351 72.6994 11.4809 71.3921 12.0196 69.9289C9.14816 69.7691 6.30715 69.2536 3.56229 68.3952C2.91433 68.1995 2.08046 67.989 1.5456 67.5894C0.696474 66.955 0.189823 65.804 0.0609803 64.7778C0.0148518 64.2489 -0.126454 63.4655 0.282989 63.0397C2.15045 61.0964 4.1141 59.2152 6.07124 57.3606C6.61522 56.8452 7.25825 56.4004 7.81437 55.9005L18.2565 46.3677C18.9636 45.7292 19.5687 45.0097 20.3127 44.3827C21.5495 43.3708 22.8509 42.347 24.1444 41.4119C25.3132 40.567 26.1511 39.9819 27.1286 38.906C27.8269 38.1376 28.692 37.4008 29.4059 36.6244C29.9689 36.068 30.7757 35.6352 31.3344 35.092C32.6752 33.7882 34.057 32.5687 35.5275 31.4149C36.0611 30.9959 36.4585 30.3787 37.0664 29.9712C37.7724 29.4978 38.1993 29.1922 39.0571 29.0865ZM37.764 34.4603C37.0669 34.6552 36.2296 35.6487 35.7186 36.209C34.0022 38.0893 31.8613 39.4266 29.9965 41.1308C27.3895 43.5524 24.7981 45.989 22.1853 48.4045C21.0598 49.445 19.4756 50.4207 18.3963 51.4433C16.4117 53.3241 14.2058 54.9431 12.2015 56.7612C10.4535 58.3487 8.75429 59.9897 7.10739 61.6818C6.44677 62.3676 5.88709 63.1217 5.14897 63.7365C4.96432 63.8906 4.75284 64.0908 4.60054 64.2724C6.53419 64.6958 8.50909 64.9463 10.4712 65.3366C11.7734 65.618 14.6644 65.8465 15.4247 67.0018C15.8694 67.7911 16.2246 69.5989 15.9382 70.451C15.1811 72.6996 14.1582 74.8438 13.0244 76.9186C12.1785 78.4667 11.5389 80.2882 10.8294 81.9125C10.6422 82.4517 10.458 83.0015 10.2295 83.5238C9.98887 84.0741 9.65727 84.6255 9.46179 85.1896C10.1808 85.4971 10.9837 85.7511 11.6752 86.071C12.8017 86.5926 13.8562 87.0227 15.0486 87.3786C15.6751 87.5661 16.3303 87.9091 16.9587 88.1152C17.3 88.2476 17.7993 88.1997 18.1013 88.3165C18.9216 88.634 19.7706 88.8966 20.5954 89.1863C20.6943 88.3654 20.9312 87.5495 21.0274 86.7422C21.1537 85.6827 21.5277 84.7094 21.7391 83.692C22.0442 82.2254 22.5288 80.9824 23.0165 79.5821C23.3009 78.7648 23.4061 77.7805 23.6467 76.9464C23.7252 76.6337 24.0841 76.516 24.1977 76.2604C24.3296 75.9634 24.4408 75.5898 24.5801 75.2888C25.0923 74.1839 25.6446 72.5365 26.5991 71.7592C27.184 71.2836 28.1179 71.3535 28.8122 71.4397C29.785 71.5603 30.556 72.1364 31.4216 72.4617C31.8813 72.6347 32.6538 72.7618 33.1593 72.9294C33.7922 73.1402 34.4445 73.3466 35.0906 73.5157C35.5782 73.6438 36.0814 73.6447 36.5242 73.7354C36.8373 69.7091 37.0527 65.6532 37.3404 61.6251C37.4078 60.6804 37.3393 59.6925 37.4037 58.751C37.5498 56.6132 37.7054 54.4671 37.7369 52.3231C37.7802 49.3788 37.6377 46.4181 37.6944 43.473C37.7399 41.5229 38.143 39.3918 38.2802 37.4203C38.3466 36.4676 38.5788 35.6367 38.4935 34.6322C38.2109 34.5421 38.0652 34.4867 37.764 34.4603ZM84.4036 0.0293782C85.6254 -0.147863 87.878 0.523972 89.1642 0.633534C89.7339 0.716328 90.3732 0.724872 90.9331 0.829557C92.1376 1.05487 91.9166 3.0778 92.0937 4.01119C92.1804 4.46893 92.2423 5.45949 92.2153 5.89415C92.1764 6.51107 91.8777 7.23019 91.9043 7.88041C91.7363 9.34505 92.8184 12.9483 90.8262 13.4576C90.2744 13.5985 88.8785 13.4296 88.2291 13.415C87.5816 13.4004 86.9281 13.409 86.2723 13.4415C86.5165 15.7463 86.6117 18.1371 86.6254 20.4528C86.6304 21.3272 86.7639 22.2722 86.7346 23.138C86.5879 27.4633 87.1264 31.7716 86.972 36.0956C86.9424 36.8146 87.2318 37.766 87.2026 38.4557C87.1169 40.4661 87.3403 42.5174 87.3411 44.506C87.3418 47.005 87.2139 49.5029 87.2147 52.0094C87.2086 52.7299 87.2239 53.4506 87.2596 54.1706C87.3047 54.9796 87.3901 55.8017 87.3477 56.6091C89.4727 56.8748 89.052 56.8761 91.0033 56.2523C91.4083 56.4754 91.977 56.7545 92.26 57.1058C92.4553 57.3631 92.5497 57.9912 92.5332 58.3123C92.4584 59.7839 92.4178 61.2483 92.3898 62.7194C92.375 63.4911 92.169 64.306 92.1938 65.1005C92.2306 66.2531 92.2511 67.3992 92.3171 68.55C92.3529 69.3591 92.4781 70.1201 92.3944 70.9299C92.2542 71.149 92.0903 71.3391 91.8734 71.4868C90.9074 72.1432 86.0957 71.9608 84.6882 72.1555C84.0122 72.2491 83.3466 72.4219 82.6735 72.5359C82.0503 72.6414 81.4182 72.6932 80.7935 72.7943C80.2637 72.8796 79.5259 73.1195 79.0084 73.0239C78.5661 72.9419 78.1304 72.7013 77.886 72.3166C77.4531 71.6363 77.0195 68.0696 77.1796 67.2521C75.4047 68.2051 74.1597 67.8056 72.2986 67.548C71.7195 67.4676 70.9889 67.5564 70.3925 67.524C69.8914 67.4964 69.3638 67.4712 68.8601 67.4528C67.4813 67.5444 66.151 67.6239 64.7666 67.5628C64.2026 67.5199 63.4218 67.6905 62.8749 67.6437C61.5696 67.5309 60.1668 67.8018 58.9064 67.7717C56.7335 67.7203 54.5144 67.6981 52.3499 67.5558C50.7499 67.4504 49.2095 67.3953 47.603 67.4073C46.689 67.4004 45.6306 67.2367 44.7337 67.0898C44.654 66.2791 44.6837 65.1231 44.6865 64.2829C46.2462 64.6086 49.665 64.3458 51.3793 64.3463L71.6346 64.1631C73.5948 64.1648 75.1441 63.9392 77.1963 64.0494C77.1847 63.8068 77.1757 63.5638 77.1696 63.3209C77.1529 62.6492 77.1882 62.0373 77.2213 61.3719C77.2853 60.0957 77.3147 58.9517 78.2607 57.9763C78.5174 57.7068 78.8263 57.4937 79.1676 57.3473C80.0715 56.9668 82.6263 56.6636 83.6443 56.6421C83.8714 54.5308 83.8117 52.3897 83.8505 50.2797C83.8805 48.6367 83.7419 47.4069 83.6637 45.814C83.5452 43.4045 83.5957 40.9305 83.7499 38.5248C83.949 35.4268 83.9418 32.3102 83.9458 29.207C83.98 27.4219 83.8961 25.6048 83.9678 23.8416C84.0022 22.75 83.9266 21.7336 83.8848 20.6487C83.7958 18.332 83.586 16.085 83.5127 13.7613C82.4962 13.8339 81.4362 13.9749 80.4199 13.9662C79.9303 13.962 79.3972 13.8476 79.0509 13.4746C78.3818 12.7542 78.6206 9.42439 78.66 8.38851C77.8739 8.37385 76.959 8.13514 76.1639 8.03547C74.1637 7.8525 71.9714 7.47215 69.9673 7.45722C67.8878 7.44174 65.9225 7.31499 63.8507 7.18856C62.5319 7.10817 61.1198 7.2337 59.7758 7.10393C59.1405 7.04257 58.268 7.21636 57.6128 7.16739C56.911 7.19275 56.1202 7.091 55.4262 7.16975C51.6577 7.59748 47.9484 7.74733 44.1544 7.69335C42.9711 7.67647 41.7586 7.97059 40.5865 8.04468C39.1953 8.13263 37.7661 8.09718 36.3737 8.22343C34.7074 8.42365 33.0968 8.78721 31.3965 8.9538C31.3701 9.86643 31.4498 10.7872 31.4251 11.6802C31.4071 12.3285 31.3012 13.3213 30.7709 13.7506C29.906 14.4506 28.7405 14.2016 27.7251 14.1741C27.1373 14.1581 26.5797 14.1637 26.0054 14.1348L26.6741 19.0677C26.7639 19.7308 26.9057 20.4119 26.9624 21.0768C27.049 22.0921 27.0958 23.1244 27.15 24.1423C27.3068 26.6717 27.3439 29.2071 27.2608 31.74C27.215 33.0167 27.3423 33.6406 27.1162 34.9648C26.7181 35.3917 25.8629 36.0569 25.3792 36.4793C25.0463 36.7699 24.1214 37.7473 23.8856 37.9213C23.7296 37.7444 23.3865 36.0346 23.3922 35.7093C23.427 33.6999 23.558 31.7431 23.7046 29.7403C23.8337 27.7776 23.919 25.8117 23.9603 23.8452C23.9727 23.0332 23.9293 22.2161 23.9293 21.4046C23.9292 18.9244 23.5255 16.5447 23.5485 14.0598C22.052 14.0712 19.806 14.4305 18.4662 13.5438L18.4581 13.4884C18.3461 12.7813 18.3653 11.731 18.3619 10.9955C18.3538 9.58329 18.3585 8.17093 18.375 6.75881C18.3772 5.81401 18.1445 2.37284 18.4401 1.772C18.6756 1.57645 18.8403 1.64371 19.0772 1.52754C19.7673 1.19647 20.493 0.754823 21.2528 0.600914C24.2237 -0.000709064 27.3675 0.573421 30.3061 1.11677C30.6701 1.18407 31.1139 1.43564 31.4213 1.63308C31.7972 2.58894 31.7267 5.01736 31.57 6.03502C32.3498 6.0325 33.0656 5.8692 33.8319 5.80253C36.1591 5.60011 38.5099 5.63916 40.844 5.57326C41.979 5.58412 43.156 5.37115 44.2827 5.36881C46.1119 5.36503 47.9161 5.32396 49.7438 5.22263C51.367 5.13264 52.9552 4.79946 54.5767 4.74747C55.8929 4.70526 57.2131 4.81195 58.5298 4.67177C59.0181 4.6228 59.5256 4.58997 60.0157 4.57267C60.2461 4.58638 60.5148 4.58397 60.7425 4.61961C61.8711 4.79611 62.9201 4.65324 64.0529 4.62399C65.9247 4.58716 67.7963 4.56534 69.6682 4.55917C70.9314 4.54415 71.9777 4.43218 73.2502 4.61537C74.9447 4.85936 76.9255 4.72689 78.6416 4.64654C78.8833 3.27192 78.4859 1.93745 79.1122 0.675335C79.761 0.500199 80.2129 0.657442 80.7389 0.54885C82.0137 0.285881 83.0911 0.0889181 84.4036 0.0293782ZM74.1191 15.4248C74.7453 15.4154 76.3136 16.2358 76.5486 16.8034C77.156 18.4223 76.9863 20.3009 76.943 22.0351C76.9175 23.0463 77.0879 26.4767 76.078 27.0411C75.447 27.3936 73.4804 27.6268 72.7447 27.4189C72.1717 27.257 71.8806 26.8783 71.6128 26.3868C71.6123 26.3313 71.6189 26.194 71.617 26.1453C71.5946 25.5772 72.1639 24.7243 71.9975 24.1635C71.7193 23.981 70.5509 24.1346 70.1448 24.1107C68.3742 24.0065 66.6003 24.0142 64.8298 23.9074C63.6846 23.8387 62.5693 23.6398 61.4187 23.7143C59.9882 23.8068 58.5392 23.7356 57.1075 23.6975C57.0012 25.8051 57.555 28.1664 57.5818 30.307C57.6045 32.1098 57.6358 33.9154 57.6105 35.72C57.5936 36.9348 57.7544 38.1384 57.7526 39.3266C57.7503 41.0983 57.7534 42.816 57.9285 44.5839C57.9991 45.1788 57.8017 46.0547 57.8865 46.6159C58.1757 48.5249 58.052 50.1313 57.9642 52.0304C59.2926 51.8081 60.4791 51.6639 61.8257 51.7831C62.1048 51.5589 61.9362 51.0196 62.317 50.6755C62.9261 50.1256 64.6871 49.9294 65.2737 50.4618C65.5421 50.706 65.7406 51.9417 65.7688 52.4036C65.874 54.1171 66.0761 55.8523 66.2366 57.5614C66.2564 57.7697 66.121 57.9681 65.9585 58.0959C65.0392 58.8196 63.712 58.3984 62.6365 58.4231C60.2287 58.3948 57.8187 58.3978 55.4107 58.4069C54.6576 58.3915 53.8327 58.5082 53.0886 58.4674C50.2521 58.3115 47.1731 58.2886 44.3562 57.9989C44.2911 56.778 44.4203 55.5204 44.4125 54.2754C44.4083 53.5967 44.3225 52.6798 44.3696 52.074C44.3933 51.6553 44.2814 51.1245 44.479 50.802C44.8006 50.5608 45.1581 50.5457 45.5443 50.564C46.6467 50.6168 47.0317 51.4119 46.9623 52.4034C48.3814 52.6065 48.9609 52.5486 50.3988 52.4022C50.367 50.7603 50.5195 49.0336 50.4502 47.3941C50.3661 45.4099 50.2714 43.5046 50.3032 41.5133C50.3203 40.4836 50.1526 39.2051 50.082 38.1553C49.9406 36.1057 49.8456 34.0532 49.7974 31.9994C49.7817 30.9196 49.9255 30.13 49.9504 29.1189C49.9902 27.4882 49.9836 25.7797 49.9606 24.149C48.6717 24.1365 46.9584 24.3008 45.6477 24.365C45.0294 24.3953 44.0131 24.6503 43.3596 24.6896C41.7112 24.7884 39.9852 24.9139 38.3392 24.9451C38.0478 24.7643 37.8884 24.6147 37.6318 24.3882C37.7423 25.1029 37.7962 26.4866 37.5454 27.1354C37.1237 28.1172 36.0928 27.9533 35.3676 28.0678C31.633 28.6574 32.6531 25.7888 33.0068 23.49C33.0543 23.1812 32.9813 22.4622 33.0081 22.0603C33.0966 20.7311 32.7659 19.2551 33.3834 18.0293C33.9728 17.887 34.7195 17.8728 35.2895 17.7182C38.6905 16.796 41.9714 17.3614 45.4363 17.2311C48.738 17.1056 52.0386 16.9495 55.3374 16.7642C56.0865 16.7181 57.1063 16.393 57.7944 16.4225C59.4474 16.4933 60.7688 16.618 62.4159 16.3643C63.2954 16.2287 64.7156 16.4989 65.6553 16.3936C66.4052 16.3096 67.1962 16.2916 67.9486 16.201C70.0064 16.175 72.1016 15.5267 74.1191 15.4248Z" fill="#380102"/>
</g>
</svg>
