<svg width="94" height="134" viewBox="0 0 94 134" fill="none" xmlns="http://www.w3.org/2000/svg">
<g id="@S-Workshop-Icon">
<path id="Subtract" d="M66.935 16.6555C67.2124 16.7819 67.7388 17.2583 67.9594 17.4729C70.3099 19.7615 71.7064 22.6776 73.2045 25.5413C73.6859 26.3804 74.2572 27.1896 74.7563 28.0149C76.5496 30.9767 78.1636 33.9586 79.561 37.1321C79.9141 37.9348 80.5497 38.763 80.8803 39.5735C81.3633 40.7581 81.7834 41.8633 82.351 43.0208C83.8564 43.3758 85.9301 44.3116 86.7944 45.6487C88.0433 45.838 89.1791 45.6314 90.3256 46.3323C91.3125 46.9429 92.2984 47.9162 93.2426 48.5569C93.67 48.8465 94.0408 51.6515 93.9965 52.2151C93.7788 54.9275 94.1719 65.3128 92.9995 67.3391C92.4825 67.6416 91.556 67.8766 91.1166 68.0959C88.4157 69.4448 88.8977 69.4474 86.0151 69.2415C83.9284 72.8233 82.7044 72.4598 78.9809 72.9827C78.947 73.9463 78.7813 75.6649 78.6498 76.6252C81.355 76.5479 84.6498 76.9923 85.0844 80.2102C84.6516 81.2872 85.3433 81.6097 85.1821 82.3958C84.8338 83.9204 84.0958 85.387 83.4702 86.8206C83.0557 87.7704 81.8178 88.1211 80.976 88.675C80.4543 89.0177 79.4363 89.8963 78.9057 90.0745C78.06 90.3469 76.8878 90.221 76.0678 90.4104C72.1192 91.3216 68.4508 91.1923 64.4848 90.4231C63.5535 90.2433 62.1703 90.2425 61.2612 89.9563C59.4287 89.379 57.08 88.9113 55.6459 87.5647C54.0399 85.9165 55.0011 82.6406 55.6743 80.7288C55.9828 79.8525 56.3628 79.9312 56.2856 79.1282C56.2479 78.7348 56.4883 78.3466 56.7875 78.0911C58.29 76.8109 61.6221 76.1738 63.4995 76.2366C63.3752 75.1627 63.3103 73.8464 63.1069 72.8176C60.5145 72.9593 58.4595 72.9958 56.9467 70.5325C57.0116 69.9325 57.0365 69.7782 57.2377 69.2141C57.0822 68.4918 56.918 68.006 56.1879 67.6545C55.8735 67.5032 55.354 67.561 55.0717 67.7688C53.6472 68.8188 52.1135 69.7038 50.6655 70.72C50.3879 70.9147 50.1023 71.0995 49.8383 71.3127C44.1538 76.141 39.0554 81.6604 34.9663 87.9104C34.377 88.811 33.9531 89.8834 33.4047 90.8147C32.6423 92.1322 31.9868 93.4924 31.4028 94.8938C30.5199 97.2506 29.648 99.7601 28.9184 102.165C28.7234 103.012 28.6012 103.874 28.4096 104.722C28.0043 106.515 27.5838 108.304 27.1674 110.094C26.9863 111.037 26.9211 112.434 26.6928 113.248C26.2694 114.759 25.9893 115.772 25.9516 117.376C25.9317 118.216 25.6033 119.392 25.5336 120.285C25.3672 122.42 25.2699 124.536 24.7231 126.62C24.4386 127.719 24.0637 127.965 23.7534 128.802C23.8076 129.071 23.847 129.127 23.9721 129.378C23.9554 130.426 21.3354 131.272 20.4965 131.616C20.1115 131.763 19.7784 132.333 19.4116 132.471C14.2844 134.39 6.3972 134.486 2.38031 130.246C0.0567266 127.794 0.595455 125.67 0.13715 122.627C-0.303074 119.704 0.395037 116.989 1.1186 114.193C2.6163 106.673 5.11335 99.4452 7.91547 92.3196C8.23028 91.6408 8.58886 90.9764 8.93891 90.3137C10.3781 87.5883 11.3732 84.4966 13.0239 81.9026C14.9413 78.8902 16.2965 75.3313 18.5756 72.5979C22.0259 68.5684 25.4043 64.3618 29.226 60.6692C31.0118 58.9438 33.6204 57.1074 35.5258 55.4495C36.2493 54.82 37.5166 54.317 38.3373 53.7258C39.6059 52.8121 40.808 51.7921 42.1528 50.9983C44.7569 49.5288 47.3912 48.5817 50.185 47.551C52.2375 46.7938 54.3385 45.8836 56.4672 45.3303C57.1084 45.1637 58.338 45.2314 58.9496 45.0823C60.481 44.7087 61.5783 44.1911 63.1928 44.0334C63.0365 43.2226 62.777 42.4672 62.4496 41.6545C60.4054 36.581 57.6301 30.8658 53.392 27.2981C53.1646 27.1068 53.0975 27.2791 52.8735 26.9163C53.115 25.3978 57.2996 27.0172 58.1996 27.2825C60.7068 28.0212 63.8283 28.6033 65.6166 30.6926C65.9342 28.7379 66.5566 26.649 66.6713 24.7034C66.7101 24.0455 66.4851 22.8814 66.3803 22.1897C66.1624 20.7504 65.4092 19.1816 65.6166 17.7112C65.6945 17.2415 66.5188 16.8769 66.935 16.6555ZM59.0991 49.0813C57.3821 50.0641 55.179 50.6043 53.6713 51.4729C48.7828 54.2893 44.0214 57.0406 38.9711 59.5481C37.7369 60.1612 32.6765 64.3876 31.7582 65.3625C24.4409 73.1341 18.6127 82.1215 13.7651 91.595C12.9455 93.1971 11.6651 95.378 11.0766 97.0051C8.92138 102.965 7.58478 109.184 6.64887 115.441C6.10247 119.287 6.00019 123.468 5.1557 127.258C5.73181 127.701 6.37781 128.228 7.0434 128.517C8.24168 128.883 9.00744 128.66 10.184 128.786C13.0236 129.092 15.8118 129.775 18.6381 128.944C20.0966 128.514 21.0841 128.342 21.5385 126.726C21.9582 125.233 22.0276 123.709 22.5327 122.252C22.9301 121.065 22.8204 119.726 22.9858 118.504C23.1955 116.955 23.2257 115.244 23.5776 113.731C23.9435 112.082 24.261 110.406 24.5405 108.739C24.7822 107.296 25.436 105.681 25.6625 104.293C26.032 102.032 26.5424 100.502 27.2934 98.3411C28.1104 95.9907 28.8682 93.8403 29.9448 91.5754C31.3967 88.5204 33.1883 85.6372 35.2866 82.9836C35.9928 82.0872 36.8086 81.2354 37.4975 80.3479C42.063 74.4617 47.6304 68.8862 54.437 65.6643C56.0361 64.9073 57.8169 64.4709 59.4272 63.7737C59.3466 62.8067 59.4923 61.7124 59.5727 60.7385C59.6469 59.8394 59.6089 58.8928 59.7241 58.0022C59.9639 56.1481 60.4322 50.4761 59.2319 49.1057L59.0991 49.0813ZM58.5551 81.0432C58.7627 81.938 59.3881 82.2977 60.2094 82.7346C64.3001 84.9125 69.2534 85.0629 73.7866 85.2717C74.4187 85.3015 75.6457 85.0346 76.2739 84.8831C77.4639 84.5936 78.6221 84.1848 79.7299 83.6624C80.1685 83.4519 80.504 83.1778 80.3139 82.6233C79.9526 82.3194 79.3056 82.4207 78.8549 82.4602C75.1895 82.7779 71.6986 83.5653 68.0082 83.1292C66.9773 83.0075 65.7827 83.246 64.7416 82.9485C62.9916 82.7669 60.1023 81.1594 58.5551 81.0432ZM87.4799 49.5266C87.6202 53.3746 87.5096 57.2104 87.4418 61.0588C87.412 62.7613 87.0864 64.5049 87.0405 66.2434C88.0909 66.2128 88.7839 66.1755 89.8149 65.9553C89.9721 65.8713 90.0398 65.8654 90.0786 65.634C90.5622 62.746 90.3225 59.5397 90.4555 56.5969C90.5208 55.1526 90.5593 53.8695 90.5932 52.4661C90.6166 51.5279 90.4135 50.6286 90.4731 49.6497C89.5789 49.8359 88.3853 49.6835 87.4799 49.5266ZM79.9584 47.1204C78.7868 46.7936 76.9844 46.4843 75.7709 46.6184C73.388 46.7532 68.3431 46.4019 66.4272 47.3616L66.4633 47.4788C67.1943 47.6991 69.7258 47.642 70.6469 47.6692C71.9231 47.6531 73.2279 47.6741 74.4985 47.6428C76.2924 47.5986 78.4385 48.1968 79.9584 47.1204Z" fill="#380102"/>
<path id="Subtract_2" d="M68.4133 106.367C69.8711 106.193 71.1401 106.37 72.6125 106.542C75.2539 106.777 78.1172 109.908 75.0519 111.874C72.7885 113.326 69.2902 113.855 66.6828 113.288C66.3988 113.93 65.1899 115.724 64.7394 116.539C66.1442 117.41 68.0625 118.205 67.6701 120.143C67.4554 121.204 66.9551 122.154 66.8127 123.22C66.5837 124.933 66.5336 126.697 66.0783 128.372C65.9397 128.878 65.4961 129.267 65.0158 129.483C62.1798 129.666 64.0288 126.389 64.1496 125.095C64.3288 123.174 64.1962 121.128 65.1095 119.342C64.3282 118.908 62.7668 117.932 62.549 117.031C62.2948 115.98 63.4351 115.126 64.0129 114.335C64.3825 113.829 64.546 113.599 64.8722 113.059C62.7688 112.666 58.1019 114.029 57.716 110.679C57.6736 110.31 57.8262 109.723 58.1047 109.475C60.6675 107.191 65.1738 106.602 68.4133 106.367ZM68.676 107.901C65.7144 108.091 61.4626 108.42 59.1828 110.494C61.0303 111.129 62.9965 110.981 64.9426 110.92C66.4353 110.847 73.1834 110.23 73.9543 109.334C74.009 109.271 74.0363 109.199 74.0685 109.122C73.7807 108.027 69.7394 107.847 68.676 107.901Z" fill="#380102"/>
<path id="Vector" d="M15.7173 14.5244C16.7351 14.3871 17.8349 14.6198 18.8537 14.7468C25.3618 15.5582 31.5088 18.4659 37.2021 21.5915C38.0689 22.0674 38.9716 22.5197 39.8057 23.0199C41.7822 24.2077 43.6618 25.5498 45.4268 27.0338C46.0952 27.5857 47.6893 28.6573 47.2593 29.6443C46.4901 30.4257 45.0799 29.3979 44.4 28.9431C40.0026 25.8899 34.9801 23.6787 30.0232 21.6918C28.7731 21.1145 27.1598 20.8693 25.921 20.3581C22.4322 18.9037 18.8134 18.4476 15.103 17.7822C14.6263 17.6966 10.5334 17.4131 11.9232 15.6503C12.6068 14.7834 14.5344 14.6483 15.7173 14.5244Z" fill="#380102"/>
<path id="Vector_2" d="M12.9295 5.98403C14.8648 5.96629 16.799 6.07587 18.7198 6.31197C23.8451 6.98503 29.5538 9.04476 34.307 11.0627C35.3542 11.5073 39.7742 14.3955 40.2887 15.1405C40.4277 15.3391 40.4717 15.589 40.4086 15.823C40.3 16.2139 39.7353 16.4922 39.4144 16.3462C36.8731 15.1901 34.6376 13.667 31.9641 12.751C22.878 9.85876 14.3914 8.38476 4.85351 9.65613C4.35833 9.72483 2.28337 9.97068 1.99985 9.68967C0.252102 7.95732 4.65845 7.05962 5.98304 6.75917C8.02761 6.29536 10.6723 6.01604 12.9295 5.98403Z" fill="#380102"/>
<path id="Vector_3" d="M26.6898 0.00443422C27.26 -0.0652178 31.9252 0.704631 32.6907 0.983094C33.84 1.4011 36.5564 2.2905 37.6232 2.88566C42.2458 5.49209 46.4676 9.13653 49.874 13.2015C50.4421 13.8793 52.6908 16.251 52.452 16.9798C51.9054 17.3159 51.547 16.899 51.2017 16.5216C50.5052 15.6574 49.5314 14.783 48.763 14.0085C44.7455 9.95957 39.7781 7.09809 34.3394 5.43001C33.0705 4.93814 32.2769 4.81235 30.9436 4.3262C29.3299 3.73781 24.9781 3.63137 24.3836 1.80242C24.0569 0.797256 25.7218 0.129289 26.6898 0.00443422Z" fill="#380102"/>
</g>
</svg>
